<?xml version="1.0" encoding="utf-8"?>
<svg viewBox="65 212.94 34.85 44.12" xmlns="http://www.w3.org/2000/svg">
  <g fill="#f8485e" fill-rule="nonzero" stroke="none" stroke-width="1" stroke-linecap="butt" stroke-linejoin="miter" stroke-miterlimit="10" stroke-dasharray="" stroke-dashoffset="0" font-family="none" font-weight="none" font-size="none" text-anchor="none" style="mix-blend-mode: normal; fill: rgb(255, 255, 255);" transform="matrix(1, 0, 0, 1, 0, 2.842170943040401e-14)">
    <g data-paper-data="{&quot;isGlobalGroup&quot;:true,&quot;bounds&quot;:{&quot;x&quot;:65,&quot;y&quot;:212.941520416695,&quot;width&quot;:420,&quot;height&quot;:44.11695916660997}}" style="fill: rgb(255, 255, 255);">
      <g data-paper-data="{&quot;fillRule&quot;:&quot;nonzero&quot;,&quot;fillRuleOriginal&quot;:&quot;nonzero&quot;,&quot;isIcon&quot;:true,&quot;iconStyle&quot;:&quot;standalone&quot;,&quot;selectedEffects&quot;:{&quot;container&quot;:&quot;shield_simple_outline3&quot;,&quot;transformation&quot;:&quot;&quot;,&quot;pattern&quot;:&quot;&quot;},&quot;bounds&quot;:{&quot;x&quot;:65,&quot;y&quot;:212.941520416695,&quot;width&quot;:34.85072130739833,&quot;height&quot;:44.11695916660997},&quot;widthRatioIconToContainer&quot;:0.7345230245327476,&quot;heightRatioIconToContainer&quot;:0.6695138739861057,&quot;relativeBoundsIconToContainer&quot;:{&quot;top&quot;:-0.06482183766084208,&quot;left&quot;:0.02233166674878044},&quot;iconType&quot;:&quot;initial&quot;,&quot;initialText&quot;:&quot;S&quot;,&quot;rawInitialId&quot;:870,&quot;blockLetter&quot;:&quot;V&quot;,&quot;suitableAsStandaloneIcon&quot;:true}" style="fill: rgb(255, 255, 255);">
        <path d="M70.40431,241.9859v-2.95369h15.75302v-2.95369h-15.75302v-10.8302l9.84564,-7.87651h5.90738l9.84564,7.87651h-15.75302v2.95369h15.75302v10.8302l-9.84564,7.87651h-10.8302c-2.67801,0 -4.92282,-2.20542 -4.92282,-4.92282zM73.53693,252.2737c-1.12849,-0.96735 -2.08262,-1.91571 -2.86237,-2.84507c-1.42718,-1.70102 -2.64652,-3.69151 -3.65803,-5.97146c-1.01349,-2.28437 -1.64631,-4.47205 -1.89843,-6.56305c-0.07495,-0.62161 -0.11425,-4.18024 -0.11788,-10.67589c-0.00365,-6.54148 0.04072,-9.97332 0.13313,-10.29551c0.18891,-0.6587 0.60761,-1.15673 1.25608,-1.49409c0.43594,-0.22679 2.46747,-0.55007 6.0946,-0.96986c1.96397,-0.22731 3.52729,-0.37071 4.68998,-0.43022c1.15911,-0.05932 2.96033,-0.08832 5.40366,-0.08698c2.53174,0.00138 4.44688,0.04079 5.74544,0.11822c1.30038,0.07754 3.08707,0.25899 5.36006,0.54434c2.28788,0.28721 3.69457,0.49631 4.22005,0.62729c0.70355,0.17535 1.22897,0.52069 1.57625,1.03603l0.22634,0.33592c0.02352,0.03483 0.04431,0.07121 0.06235,0.10913c0.01805,0.03792 0.03321,0.07696 0.0455,0.11713c0.01229,0.04017 0.02152,0.08103 0.0277,0.12256c0.00625,0.04155 0.00937,0.08332 0.00937,0.12532v10.36423c0,6.9604 -0.04062,10.66433 -0.12186,11.11182c-0.46889,2.58292 -1.29234,5.01875 -2.47033,7.30747c-1.1801,2.29258 -2.65784,4.32467 -4.43322,6.09626c-2.45548,2.45022 -5.31411,4.32987 -8.57586,5.63895c-0.72384,0.29055 -1.29634,0.44407 -1.71749,0.46057c-0.44242,0.01734 -0.98322,-0.10013 -1.62238,-0.35241c-1.41111,-0.55694 -2.79255,-1.2421 -4.14432,-2.05547c-1.0231,-0.61564 -2.09921,-1.40739 -3.22832,-2.37523zM83.61741,255.02156c3.04754,-1.22314 5.71735,-2.97827 8.00944,-5.26538c1.64977,-1.64626 3.02408,-3.53686 4.12295,-5.67182c1.1009,-2.13881 1.87073,-4.4168 2.30951,-6.83394c0.06305,-0.34728 0.09458,-3.95018 0.09458,-10.8087v-10.10504l-0.08152,-0.12097c-0.06698,-0.09935 -0.11684,-0.16042 -0.14956,-0.1832c-0.07099,-0.04936 -0.2143,-0.10091 -0.42993,-0.15465c-0.45991,-0.11462 -1.80027,-0.31134 -4.0211,-0.59013c-2.23627,-0.28074 -3.98617,-0.45878 -5.24968,-0.53413c-1.26527,-0.07545 -3.14703,-0.11385 -5.64527,-0.11521c-2.41413,-0.00131 -4.18617,0.02694 -5.31614,0.08477c-1.12639,0.05765 -2.65358,0.19804 -4.58157,0.42117c-3.42005,0.39582 -5.25558,0.65902 -5.50658,0.7896c-0.2172,0.11299 -0.35324,0.26518 -0.40812,0.45656c-0.04848,0.16905 -0.07094,3.44465 -0.06738,9.82679c0.0036,6.42803 0.03882,9.91925 0.10568,10.47367c0.23182,1.92262 0.8201,3.94867 1.76484,6.07815c0.94673,2.13397 2.08236,3.99028 3.40689,5.56891c0.71996,0.85809 1.60887,1.74056 2.66676,2.64738c1.0573,0.90626 2.05694,1.64278 2.99895,2.20956c1.27117,0.76499 2.56863,1.40869 3.8924,1.93108c0.41757,0.16487 0.72855,0.24326 0.93295,0.23519c0.22567,-0.00885 0.60964,-0.12207 1.15191,-0.33967z" data-paper-data="{&quot;isPathIcon&quot;:true}" style=""/>
      </g>
    </g>
  </g>
</svg>