<?xml version="1.0" encoding="utf-8"?>
<svg viewBox="65 203.63 420 62.74" xmlns="http://www.w3.org/2000/svg">
  <g fill="#f8485e" fill-rule="nonzero" stroke="none" stroke-width="1" stroke-linecap="butt" stroke-linejoin="miter" stroke-miterlimit="10" stroke-dasharray="" stroke-dashoffset="0" font-family="none" font-weight="none" font-size="none" text-anchor="none" style="mix-blend-mode: normal; fill: rgb(255, 255, 255);" transform="matrix(0.9999999999999999, 0, 0, 0.9999999999999999, 0, 0)">
    <g data-paper-data="{&quot;isGlobalGroup&quot;:true,&quot;bounds&quot;:{&quot;x&quot;:65,&quot;y&quot;:203.62836696153465,&quot;width&quot;:420,&quot;height&quot;:62.743266076930695}}" style="fill: rgb(255, 255, 255);">
      <g data-paper-data="{&quot;isPrimaryText&quot;:true}" style="fill: rgb(255, 255, 255);">
        <path d="M107.74724,247.00179c0,3.78491 -0.96014,7.14541 -2.88043,10.0815c-1.92029,2.93609 -4.68939,5.21817 -8.30733,6.84624c-3.61793,1.62807 -7.86204,2.4421 -12.73233,2.4421c-4.06321,0 -7.47242,-0.28526 -10.22761,-0.85578c-2.75519,-0.57052 -5.62171,-1.56545 -8.59954,-2.98479v-14.69436c3.14482,1.61415 6.41487,2.87347 9.81016,3.77795c3.39529,0.90448 6.51228,1.35672 9.35096,1.35672c2.44906,0 4.24411,-0.42441 5.38515,-1.27323c1.14104,-0.84882 1.71156,-1.94116 1.71156,-3.27701c0,-0.83491 -0.2296,-1.56545 -0.6888,-2.19163c-0.4592,-0.62618 -1.1967,-1.25932 -2.2125,-1.89941c-1.0158,-0.6401 -3.72229,-1.94812 -8.11947,-3.92406c-3.97972,-1.80897 -6.96452,-3.56227 -8.95438,-5.25991c-1.98986,-1.69764 -3.46486,-3.64576 -4.42501,-5.84435c-0.96014,-2.19859 -1.44021,-4.80072 -1.44021,-7.80638c0,-5.62171 2.04552,-10.00497 6.13657,-13.14979c4.09104,-3.14482 9.71275,-4.71722 16.86512,-4.71722c6.31746,0 12.76016,1.46109 19.3281,4.38326l-5.05119,12.73233c-5.7052,-2.61604 -10.63115,-3.92406 -14.77786,-3.92406c-2.14293,0 -3.70142,0.37571 -4.67548,1.12712c-0.97406,0.75142 -1.46109,1.68373 -1.46109,2.79694c0,1.1967 0.61922,2.26816 1.85767,3.21439c1.23845,0.94623 4.59895,2.6717 10.0815,5.17642c5.25991,2.36557 8.91263,4.90508 10.95816,7.61853c2.04552,2.71345 3.06828,6.12961 3.06828,10.24848z" data-paper-data="{&quot;glyphName&quot;:&quot;S&quot;,&quot;glyphIndex&quot;:0,&quot;firstGlyphOfWord&quot;:true,&quot;word&quot;:1}" style="fill: rgb(243, 53, 53);"/>
        <path d="M153.41666,265.53673h-36.23497v-61.03171h36.23497v13.23328h-19.74555v9.60143h18.28446v13.23328h-18.28446v11.52172h19.74555z" data-paper-data="{&quot;glyphName&quot;:&quot;E&quot;,&quot;glyphIndex&quot;:1,&quot;word&quot;:1}" style="fill: rgb(243, 53, 53);"/>
        <path d="M191.27969,217.15386c-3.92406,0 -6.98539,1.6072 -9.18398,4.82159c-2.19859,3.21439 -3.29788,7.64636 -3.29788,13.2959c0,11.74436 4.46675,17.61654 13.40026,17.61654c2.69953,0 5.31557,-0.37571 7.84813,-1.12712c2.53255,-0.75142 5.07902,-1.6559 7.6394,-2.71345v13.94295c-5.09293,2.25425 -10.85379,3.38137 -17.28258,3.38137c-9.21181,0 -16.27373,-2.6717 -21.18577,-8.01511c-4.91204,-5.34341 -7.36805,-13.0663 -7.36805,-23.16867c0,-6.31746 1.18974,-11.8696 3.56923,-16.6564c2.37949,-4.7868 5.8026,-8.46735 10.26936,-11.04165c4.46675,-2.5743 9.71971,-3.86145 15.75887,-3.86145c6.59577,0 12.89931,1.43326 18.91065,4.29977l-5.05119,12.9828c-2.25425,-1.05755 -4.5085,-1.94812 -6.76275,-2.6717c-2.25425,-0.72359 -4.67548,-1.08538 -7.26369,-1.08538z" data-paper-data="{&quot;glyphName&quot;:&quot;C&quot;,&quot;glyphIndex&quot;:2,&quot;word&quot;:1}" style="fill: rgb(243, 53, 53);"/>
        <path d="M219.58304,204.50502h21.29013c8.29341,0 14.45085,1.23149 18.47232,3.69446c4.02147,2.46298 6.0322,6.29659 6.0322,11.50084c0,3.42312 -0.87665,6.34529 -2.62996,8.76652c-1.7533,2.42123 -4.06321,3.97972 -6.92973,4.67548v0.41745c3.78491,1.00189 6.52619,2.6717 8.22383,5.00944c1.69764,2.33774 2.54647,5.37124 2.54647,9.10049c0,5.53822 -2.08031,9.90061 -6.24093,13.08717c-4.16062,3.18656 -9.83103,4.77984 -17.01123,4.77984h-23.75311zM236.07246,227.92416h4.9677c2.36557,0 4.19541,-0.48703 5.48951,-1.46109c1.29411,-0.97406 1.94116,-2.42123 1.94116,-4.34152c0,-3.42312 -2.58821,-5.13468 -7.76464,-5.13468h-4.63373zM236.07246,239.98857v12.81582h5.8026c5.14859,0 7.72289,-2.17076 7.72289,-6.51228c0,-2.03161 -0.6888,-3.5901 -2.06639,-4.67548c-1.3776,-1.08538 -3.37442,-1.62807 -5.99046,-1.62807z" data-paper-data="{&quot;glyphName&quot;:&quot;B&quot;,&quot;glyphIndex&quot;:3,&quot;word&quot;:1}" style="fill: rgb(243, 53, 53);"/>
        <path d="M293.68105,243.3282v22.20853h-16.48941v-61.03171h19.99602c16.58682,0 24.88023,6.01133 24.88023,18.03399c0,7.06888 -3.45095,12.53752 -10.35285,16.40592l17.78352,26.59179h-18.70192l-12.94106,-22.20853zM293.68105,230.92983h3.08916c5.76086,0 8.64129,-2.54647 8.64129,-7.6394c0,-4.20237 -2.82477,-6.30355 -8.47431,-6.30355h-3.25614z" data-paper-data="{&quot;glyphName&quot;:&quot;R&quot;,&quot;glyphIndex&quot;:4,&quot;word&quot;:1}" style="fill: rgb(243, 53, 53);"/>
        <path d="M372.49627,265.53673l-3.00567,-11.43823h-19.82904l-3.08916,11.43823h-18.11748l19.91253,-61.28218h21.9998l20.16301,61.28218zM366.06749,240.573l-2.62996,-10.01888c-0.61227,-2.22642 -1.35672,-5.10685 -2.23338,-8.64129c-0.87665,-3.53444 -1.45413,-6.06699 -1.73243,-7.59765c-0.25047,1.41934 -0.74446,3.75708 -1.48196,7.01322c-0.7375,3.25614 -2.37253,9.67101 -4.90508,19.24461z" data-paper-data="{&quot;glyphName&quot;:&quot;A&quot;,&quot;glyphIndex&quot;:5,&quot;word&quot;:1}" style="fill: rgb(243, 53, 53);"/>
        <path d="M397.12603,265.53673v-61.03171h16.57291v61.03171z" data-paper-data="{&quot;glyphName&quot;:&quot;I&quot;,&quot;glyphIndex&quot;:6,&quot;word&quot;:1}" style="fill: rgb(243, 53, 53);"/>
        <path d="M485,265.53673h-21.62409l-22.29202,-42.99771h-0.37571c0.52877,6.76275 0.79316,11.92526 0.79316,15.48753v27.51019h-14.61087v-61.03171h21.5406l22.20853,42.41328h0.25047c-0.38962,-6.15048 -0.58443,-11.09035 -0.58443,-14.8196v-27.59368h14.69436z" data-paper-data="{&quot;glyphName&quot;:&quot;N&quot;,&quot;glyphIndex&quot;:7,&quot;lastGlyphOfWord&quot;:true,&quot;word&quot;:1}" style="fill: rgb(243, 53, 53);"/>
      </g>
    </g>
  </g>
</svg>