<?xml version="1.0" encoding="utf-8"?>
<svg viewBox="65 205.09 420 59.83" xmlns="http://www.w3.org/2000/svg">
  <g fill="#f8485e" fill-rule="nonzero" stroke="none" stroke-width="1" stroke-linecap="butt" stroke-linejoin="miter" stroke-miterlimit="10" stroke-dasharray="" stroke-dashoffset="0" font-family="none" font-weight="none" font-size="none" text-anchor="none" style="mix-blend-mode: normal; fill: rgb(255, 255, 255);" transform="matrix(0.9999999999999999, 0, 0, 0.9999999999999999, 0, 0)">
    <g data-paper-data="{&quot;isGlobalGroup&quot;:true,&quot;bounds&quot;:{&quot;x&quot;:65,&quot;y&quot;:205.08518693800283,&quot;width&quot;:420,&quot;height&quot;:59.82962612399433}}" style="fill: rgb(255, 255, 255);">
      <g data-paper-data="{&quot;isPrimaryText&quot;:true}" style="fill: rgb(255, 255, 255);">
        <path d="M105.708,246.469c0,3.60435 -0.91434,6.80454 -2.74302,9.60057c-1.82868,2.79602 -4.46569,4.96924 -7.91103,6.51964c-3.44534,1.5504 -7.48699,2.3256 -12.12494,2.3256c-3.86938,0 -7.11595,-0.27165 -9.73971,-0.81496c-2.62376,-0.5433 -5.35353,-1.49077 -8.1893,-2.8424v-13.99337c2.99479,1.53715 6.10885,2.73639 9.34217,3.59773c3.23332,0.86133 6.20161,1.292 8.90487,1.292c2.33223,0 4.04165,-0.40416 5.12825,-1.21249c1.08661,-0.80833 1.62991,-1.84856 1.62991,-3.12068c0,-0.79508 -0.21865,-1.49077 -0.65594,-2.08708c-0.43729,-0.59631 -1.13961,-1.19924 -2.10696,-1.8088c-0.96735,-0.60956 -3.54472,-1.85518 -7.73213,-3.73687c-3.78987,-1.72267 -6.63228,-3.39233 -8.52721,-5.00899c-1.89494,-1.61666 -3.29957,-3.47184 -4.21391,-5.56555c-0.91434,-2.09371 -1.37151,-4.5717 -1.37151,-7.43398c0,-5.35353 1.94794,-9.52769 5.84382,-12.52248c3.89588,-2.99479 9.24941,-4.49219 16.06058,-4.49219c6.01609,0 12.15144,1.39139 18.40606,4.17416l-4.81022,12.12494c-5.43303,-2.49124 -10.12399,-3.73687 -14.07288,-3.73687c-2.0407,0 -3.52485,0.35779 -4.45244,1.07336c-0.92759,0.71557 -1.39139,1.60341 -1.39139,2.66351c0,1.13961 0.58968,2.15996 1.76905,3.06105c1.17937,0.90109 4.37956,2.54425 9.60057,4.92948c5.00899,2.25272 8.48746,4.67108 10.4354,7.25509c1.94794,2.584 2.92191,5.8372 2.92191,9.75958z" data-paper-data="{&quot;glyphName&quot;:&quot;S&quot;,&quot;glyphIndex&quot;:0,&quot;firstGlyphOfWord&quot;:true,&quot;word&quot;:1}" style="fill: rgb(243, 53, 53);"/>
        <path d="M149.19877,264.11973h-34.50639v-58.12021h34.50639v12.60199h-18.8036v9.1434h17.41221v12.60199h-17.41221v10.97208h18.8036z" data-paper-data="{&quot;glyphName&quot;:&quot;E&quot;,&quot;glyphIndex&quot;:1,&quot;word&quot;:1}" style="fill: rgb(243, 53, 53);"/>
        <path d="M185.25556,218.04496c-3.73687,0 -6.65215,1.53053 -8.74586,4.59158c-2.09371,3.06105 -3.14056,7.28159 -3.14056,12.66162c0,11.1841 4.25367,16.77615 12.761,16.77615c2.57075,0 5.062,-0.35779 7.47373,-1.07336c2.41174,-0.71557 4.83673,-1.5769 7.27496,-2.584v13.2778c-4.84998,2.14671 -10.33602,3.22007 -16.45812,3.22007c-8.77236,0 -15.4974,-2.54425 -20.17511,-7.63275c-4.67771,-5.0885 -7.01656,-12.44297 -7.01656,-22.06342c0,-6.01609 1.13299,-11.30336 3.39896,-15.86181c2.26597,-4.55845 5.52579,-8.06342 9.77946,-10.51491c4.25367,-2.45149 9.25603,-3.67724 15.0071,-3.67724c6.28112,0 12.28396,1.36488 18.00852,4.09465l-4.81022,12.36346c-2.14671,-1.0071 -4.29342,-1.85518 -6.44013,-2.54425c-2.14671,-0.68907 -4.45244,-1.0336 -6.91718,-1.0336z" data-paper-data="{&quot;glyphName&quot;:&quot;C&quot;,&quot;glyphIndex&quot;:2,&quot;word&quot;:1}" style="fill: rgb(243, 53, 53);"/>
        <path d="M236.45859,218.04496c-3.73687,0 -6.65215,1.53053 -8.74586,4.59158c-2.09371,3.06105 -3.14056,7.28159 -3.14056,12.66162c0,11.1841 4.25367,16.77615 12.761,16.77615c2.57075,0 5.062,-0.35779 7.47373,-1.07336c2.41174,-0.71557 4.83673,-1.5769 7.27496,-2.584v13.2778c-4.84998,2.14671 -10.33602,3.22007 -16.45812,3.22007c-8.77236,0 -15.4974,-2.54425 -20.17511,-7.63275c-4.67771,-5.0885 -7.01656,-12.44297 -7.01656,-22.06342c0,-6.01609 1.13299,-11.30336 3.39896,-15.86181c2.26597,-4.55845 5.52579,-8.06342 9.77946,-10.51491c4.25367,-2.45149 9.25603,-3.67724 15.0071,-3.67724c6.28112,0 12.28396,1.36488 18.00852,4.09465l-4.81022,12.36346c-2.14671,-1.0071 -4.29342,-1.85518 -6.44013,-2.54425c-2.14671,-0.68907 -4.45244,-1.0336 -6.91718,-1.0336z" data-paper-data="{&quot;glyphName&quot;:&quot;C&quot;,&quot;glyphIndex&quot;:3,&quot;word&quot;:1}" style="fill: rgb(243, 53, 53);"/>
        <path d="M263.41174,264.11973v-58.12021h15.70279v45.43871h22.38145v12.6815z" data-paper-data="{&quot;glyphName&quot;:&quot;L&quot;,&quot;glyphIndex&quot;:4,&quot;word&quot;:1}" style="fill: rgb(243, 53, 53);"/>
        <path d="M363.55182,234.98012c0,9.77946 -2.39849,17.21344 -7.19546,22.30194c-4.79697,5.0885 -11.82016,7.63275 -21.06957,7.63275c-9.1169,0 -16.10696,-2.5575 -20.97018,-7.6725c-4.86323,-5.115 -7.29484,-12.56223 -7.29484,-22.34169c0,-9.67345 2.41836,-17.06105 7.25509,-22.1628c4.83673,-5.10175 11.86654,-7.65263 21.08945,-7.65263c9.24941,0 16.25935,2.531 21.02982,7.593c4.77047,5.062 7.1557,12.49598 7.1557,22.30194zM323.55939,234.98012c0,11.2371 3.90913,16.85566 11.7274,16.85566c3.97539,0 6.92381,-1.36488 8.84524,-4.09465c1.92144,-2.72977 2.88216,-6.98344 2.88216,-12.761c0,-5.80407 -0.97397,-10.09087 -2.92191,-12.86039c-1.94794,-2.76952 -4.8566,-4.15428 -8.72598,-4.15428c-7.87127,0 -11.80691,5.67156 -11.80691,17.01467z" data-paper-data="{&quot;glyphName&quot;:&quot;O&quot;,&quot;glyphIndex&quot;:5,&quot;word&quot;:1}" style="fill: rgb(243, 53, 53);"/>
        <path d="M423.46096,205.99953v34.98344c0,7.60625 -2.15334,13.49645 -6.46001,17.67061c-4.30667,4.17416 -10.51491,6.26124 -18.6247,6.26124c-7.92428,0 -14.01325,-2.02745 -18.26692,-6.08235c-4.25367,-4.0549 -6.3805,-9.88547 -6.3805,-17.49172v-35.34122h15.7823v34.10885c0,4.1079 0.76858,7.08945 2.30573,8.94463c1.53715,1.85518 3.80312,2.78277 6.79792,2.78277c3.20681,0 5.53242,-0.92097 6.97681,-2.7629c1.44439,-1.84193 2.16659,-4.8566 2.16659,-9.04401v-34.02934z" data-paper-data="{&quot;glyphName&quot;:&quot;U&quot;,&quot;glyphIndex&quot;:6,&quot;word&quot;:1}" style="fill: rgb(243, 53, 53);"/>
        <path d="M485,233.82726c0,9.69995 -2.67014,17.17369 -8.01041,22.4212c-5.34027,5.24752 -12.84714,7.87127 -22.52059,7.87127h-18.8036v-58.12021h20.11548c9.32892,0 16.531,2.38523 21.60625,7.1557c5.07525,4.77047 7.61287,11.66115 7.61287,20.67203zM468.7009,234.38381c0,-5.32702 -1.05348,-9.27591 -3.16044,-11.84666c-2.10696,-2.57075 -5.30715,-3.85613 -9.60057,-3.85613h-4.5717v32.55845h3.49834c4.77047,0 8.26881,-1.38476 10.49503,-4.15428c2.22622,-2.76952 3.33933,-7.00331 3.33933,-12.70137z" data-paper-data="{&quot;glyphName&quot;:&quot;D&quot;,&quot;glyphIndex&quot;:7,&quot;lastGlyphOfWord&quot;:true,&quot;word&quot;:1}" style="fill: rgb(243, 53, 53);"/>
      </g>
    </g>
  </g>
</svg>