<svg xmlns:mydata="http://www.w3.org/2000/svg" xmlns="http://www.w3.org/2000/svg"
     xmlns:xlink="http://www.w3.org/1999/xlink" mydata:contrastcolor="fdc3c0" mydata:template="Default"
     mydata:presentation="2.5" mydata:layouttype="undefined" mydata:specialfontid="undefined" mydata:id1="011"
     mydata:id2="374" mydata:companyname="secops" mydata:companytagline="" version="1.1" class="svg-shirt"
     viewBox="74.62 194.67 400.76 80.66">
  <g fill="rgb(243, 53, 53)" fill-rule="nonzero" stroke="none" stroke-width="1" stroke-linecap="butt" stroke-linejoin="miter"
     stroke-miterlimit="10" stroke-dasharray="" stroke-dashoffset="0" font-family="none" font-weight="none"
     font-size="none" text-anchor="none" style="mix-blend-mode: normal">
    <g data-paper-data="{&quot;isGlobalGroup&quot;:true,&quot;bounds&quot;:{&quot;x&quot;:74.6224216281798,&quot;y&quot;:194.66964969458525,&quot;width&quot;:400.75515674364044,&quot;height&quot;:80.66070061082945}}">
      <g data-paper-data="{&quot;isPrimaryText&quot;:true}">
        <path d="M102.10024,240.98307l0.33239,0.1108c8.08823,2.76994 12.85253,6.64786 12.85253,10.85817c0,1.99436 -2.10516,7.86663 -8.53142,7.86663c-3.43473,0 -12.63093,0 -20.82996,-8.75302l-11.30136,10.63658c5.31829,5.65068 11.52296,9.5286 18.50321,11.74455c5.53988,1.66196 10.19339,1.88356 13.62811,1.88356c6.98025,0 13.29572,-2.88074 17.83842,-7.97743c3.87792,-4.32111 6.20467,-9.97179 6.20467,-15.40088c0,-5.53988 -2.10516,-10.74737 -6.09387,-15.17928c-3.98872,-4.32111 -9.75019,-7.75584 -17.17364,-10.30418c-0.66479,-0.2216 -1.32957,-0.44319 -2.21595,-0.66479c-7.09105,-1.77276 -9.86099,-3.98872 -9.97179,-7.97743c-0.1108,-2.54835 0.66479,-3.76712 1.32957,-4.43191c1.99436,-2.10516 5.87228,-2.88074 6.86946,-2.88074c6.75866,0 9.97179,2.10516 14.95768,5.31829l2.76994,1.77276l8.08823,-13.18492l-2.54835,-1.66196c-5.65068,-3.65632 -11.96615,-7.75584 -23.26751,-7.75584c-3.98872,0 -12.29854,1.66196 -18.06002,7.64504c-3.98872,4.21031 -5.98307,9.6394 -5.65068,15.84407c0.33239,7.42344 3.76712,13.40652 9.97179,17.50603c4.43191,2.99154 9.19621,4.21031 11.74455,4.8751z"
              data-paper-data="{&quot;glyphName&quot;:&quot;S&quot;,&quot;glyphIndex&quot;:0,&quot;firstGlyphOfWord&quot;:true,&quot;word&quot;:1}"></path>
        <path d="M191.40316,196.11002h-51.74251v77.66916h51.41012v-15.51167h-35.89844v-16.84125h29.91537v-15.51167h-29.91537v-14.2929h36.23084z"
              data-paper-data="{&quot;glyphName&quot;:&quot;E&quot;,&quot;glyphIndex&quot;:1,&quot;word&quot;:1}"></path>
        <path d="M263.08925,203.42267c-6.86946,-5.31829 -15.51167,-8.53142 -24.81868,-8.53142c-22.15953,0 -40.21955,18.06002 -40.21955,40.21955c0,22.15953 18.06002,40.21955 40.21955,40.21955c9.75019,0 18.72481,-3.54553 25.70506,-9.307l-9.97179,-11.41216c-14.62529,11.07977 -38.66839,2.32675 -38.66839,-19.50039c0,-20.82996 22.71352,-29.91537 37.782,-20.16518z"
              data-paper-data="{&quot;glyphName&quot;:&quot;C&quot;,&quot;glyphIndex&quot;:2,&quot;word&quot;:1}"></path>
        <path d="M307.51911,194.66965c-22.15953,0 -40.21955,18.06002 -40.21955,40.21955c0,22.15953 18.06002,40.21955 40.21955,40.21955c22.15953,0 40.21955,-18.06002 40.21955,-40.21955c0,-22.15953 -18.06002,-40.21955 -40.21955,-40.21955zM307.51911,210.62451c13.40652,0 24.26469,10.85817 24.26469,24.26469c0,13.40652 -10.85817,24.26469 -24.26469,24.26469c-13.40652,0 -24.26469,-10.85817 -24.26469,-24.26469c0,-13.40652 10.85817,-24.26469 24.26469,-24.26469zM307.51911,224.58502c5.98307,0 10.30418,4.32111 10.30418,10.30418c0,5.98307 -4.32111,10.30418 -10.30418,10.30418c-5.98307,0 -10.30418,-4.32111 -10.30418,-10.30418c0,-5.98307 4.32111,-10.30418 10.30418,-10.30418z"
              data-paper-data="{&quot;glyphName&quot;:&quot;O&quot;,&quot;glyphIndex&quot;:3,&quot;word&quot;:1}"></path>
        <path d="M360.81279,196.11002v77.66916h15.51167v-31.02335h9.6394c12.85253,0 23.26751,-10.41498 23.26751,-23.26751c0,-12.85253 -10.41498,-23.37831 -23.26751,-23.37831zM376.32447,227.24416v-15.62247h9.6394c4.21031,0 7.75584,3.54553 7.75584,7.86663c0,4.32111 -3.54553,7.75584 -7.75584,7.75584z"
              data-paper-data="{&quot;glyphName&quot;:&quot;P&quot;,&quot;glyphIndex&quot;:4,&quot;word&quot;:1}"></path>
        <path d="M446.68098,240.98307l0.33239,0.1108c8.08823,2.76994 12.85253,6.64786 12.85253,10.85817c0,1.99436 -2.10516,7.86663 -8.53142,7.86663c-3.43473,0 -12.63093,0 -20.82996,-8.75302l-11.30136,10.63658c5.31829,5.65068 11.52296,9.5286 18.50321,11.74455c5.53988,1.66196 10.19339,1.88356 13.62811,1.88356c6.98025,0 13.29572,-2.88074 17.83842,-7.97743c3.87792,-4.32111 6.20467,-9.97179 6.20467,-15.40088c0,-5.53988 -2.10516,-10.74737 -6.09387,-15.17928c-3.98872,-4.32111 -9.75019,-7.75584 -17.17364,-10.30418c-0.66479,-0.2216 -1.32957,-0.44319 -2.21595,-0.66479c-7.09105,-1.77276 -9.86099,-3.98872 -9.97179,-7.97743c-0.1108,-2.54835 0.66479,-3.76712 1.32957,-4.43191c1.99436,-2.10516 5.87228,-2.88074 6.86946,-2.88074c6.75866,0 9.97179,2.10516 14.95768,5.31829l2.76994,1.77276l8.08823,-13.18492l-2.54835,-1.66196c-5.65068,-3.65632 -11.96615,-7.75584 -23.26751,-7.75584c-3.98872,0 -12.29854,1.66196 -18.06002,7.64504c-3.98872,4.21031 -5.98307,9.6394 -5.65068,15.84407c0.33239,7.42344 3.76712,13.40652 9.97179,17.50603c4.43191,2.99154 9.19621,4.21031 11.74455,4.8751z"
              data-paper-data="{&quot;glyphName&quot;:&quot;S&quot;,&quot;glyphIndex&quot;:5,&quot;lastGlyphOfWord&quot;:true,&quot;word&quot;:1}"></path>
      </g>
    </g>
  </g>
</svg>