<svg xmlns="http://www.w3.org/2000/svg" viewBox="144.05 212.94 340.95 44.12">
  <g fill="#f8485e" fill-rule="nonzero" stroke="none" stroke-width="1" stroke-linecap="butt" stroke-linejoin="miter" stroke-miterlimit="10" stroke-dasharray="" stroke-dashoffset="0" font-family="none" font-weight="none" font-size="none" text-anchor="none" style="mix-blend-mode: normal; fill: rgb(255, 255, 255);" transform="matrix(0.9999999999999999, 0, 0, 0.9999999999999999, 0, 2.842170943040401e-14)">
    <g data-paper-data="{&quot;isGlobalGroup&quot;:true,&quot;bounds&quot;:{&quot;x&quot;:65,&quot;y&quot;:212.941520416695,&quot;width&quot;:420,&quot;height&quot;:44.11695916660997}}" style="fill: rgb(255, 255, 255);">
      <g data-paper-data="{&quot;isPrimaryText&quot;:true}" style="fill: rgb(255, 255, 255);">
        <path d="M174.07071,243.45697c0,2.65777 -0.67421,5.01751 -2.02264,7.07923c-1.34843,2.06172 -3.29289,3.6642 -5.83341,4.80743c-2.54051,1.14323 -5.52073,1.71485 -8.94065,1.71485c-2.85319,0 -5.24713,-0.20031 -7.18183,-0.60093c-1.9347,-0.40062 -3.94756,-1.09926 -6.0386,-2.09592v-10.31839c2.20829,1.13346 4.50452,2.01775 6.88869,2.65288c2.38417,0.63513 4.57292,0.95269 6.56625,0.95269c1.71973,0 2.98022,-0.29802 3.78145,-0.89406c0.80124,-0.59604 1.20186,-1.36308 1.20186,-2.30112c0,-0.58627 -0.16122,-1.09926 -0.48367,-1.53896c-0.32245,-0.4397 -0.84032,-0.88429 -1.55362,-1.33377c-0.7133,-0.44948 -2.6138,-1.36797 -5.70149,-2.75548c-2.79456,-1.27026 -4.89048,-2.50143 -6.28777,-3.69351c-1.39728,-1.19209 -2.43303,-2.56005 -3.10724,-4.1039c-0.67421,-1.54385 -1.01132,-3.37106 -1.01132,-5.48164c0,-3.94756 1.43637,-7.02549 4.3091,-9.23378c2.87273,-2.20829 6.8203,-3.31244 11.84269,-3.31244c4.43612,0 8.96019,1.02598 13.57219,3.07793l-3.54694,8.94065c-4.00619,-1.83699 -7.4652,-2.75548 -10.37701,-2.75548c-1.50476,0 -2.59914,0.26382 -3.28312,0.79147c-0.68398,0.52764 -1.02598,1.18231 -1.02598,1.96401c0,0.84032 0.43482,1.59271 1.30445,2.25715c0.86964,0.66444 3.22938,1.87607 7.07923,3.63489c3.69351,1.6611 6.25845,3.44435 7.69482,5.34973c1.43637,1.90538 2.15455,4.30421 2.15455,7.19649z" data-paper-data="{&quot;glyphName&quot;:&quot;S&quot;,&quot;glyphIndex&quot;:0,&quot;firstGlyphOfWord&quot;:true,&quot;word&quot;:1}" style="fill: rgb(243, 53, 53);"/>
        <path d="M206.13978,256.47221h-25.4442v-42.85647h25.4442v9.29241h-13.86533v6.74213h12.83935v9.29241h-12.83935v8.09055h13.86533z" data-paper-data="{&quot;glyphName&quot;:&quot;E&quot;,&quot;glyphIndex&quot;:1,&quot;word&quot;:1}" style="fill: rgb(243, 53, 53);"/>
        <path d="M232.72721,222.49775c-2.75548,0 -4.90514,1.12857 -6.44899,3.38572c-1.54385,2.25715 -2.31577,5.36927 -2.31577,9.33638c0,8.24689 3.13655,12.37034 9.40966,12.37034c1.89561,0 3.7326,-0.26382 5.51096,-0.79147c1.77836,-0.52764 3.56649,-1.16277 5.36439,-1.90538v9.79074c-3.57626,1.58293 -7.62153,2.3744 -12.13583,2.3744c-6.46853,0 -11.42742,-1.87607 -14.87665,-5.62821c-3.44923,-3.75214 -5.17385,-9.17515 -5.17385,-16.26904c0,-4.43612 0.83544,-8.33483 2.50631,-11.69612c1.67087,-3.36129 4.07459,-5.94577 7.21114,-7.75345c3.13655,-1.80767 6.82518,-2.71151 11.06588,-2.71151c4.63155,0 9.0579,1.00643 13.27906,3.0193l-3.54694,9.11653c-1.58293,-0.74261 -3.16587,-1.36797 -4.7488,-1.87607c-1.58293,-0.5081 -3.28312,-0.76215 -5.10057,-0.76215z" data-paper-data="{&quot;glyphName&quot;:&quot;C&quot;,&quot;glyphIndex&quot;:2,&quot;word&quot;:1}" style="fill: rgb(243, 53, 53);"/>
        <path d="M276.66829,213.61573h12.95661l-14.04121,42.85647h-13.63082l-13.98258,-42.85647h13.01524l5.83341,21.72137c1.21163,4.82697 1.87607,8.18826 1.99332,10.08388c0.1368,-1.36797 0.41039,-3.07793 0.82078,-5.12988c0.41039,-2.05195 0.77192,-3.6642 1.0846,-4.83674z" data-paper-data="{&quot;glyphName&quot;:&quot;V&quot;,&quot;glyphIndex&quot;:3,&quot;word&quot;:1}" style="fill: rgb(243, 53, 53);"/>
        <path d="M319.70064,256.47221h-25.4442v-42.85647h25.4442v9.29241h-13.86533v6.74213h12.83935v9.29241h-12.83935v8.09055h13.86533z" data-paper-data="{&quot;glyphName&quot;:&quot;E&quot;,&quot;glyphIndex&quot;:4,&quot;word&quot;:1}" style="fill: rgb(243, 53, 53);"/>
        <path d="M346.28807,222.49775c-2.75548,0 -4.90514,1.12857 -6.44899,3.38572c-1.54385,2.25715 -2.31577,5.36927 -2.31577,9.33638c0,8.24689 3.13655,12.37034 9.40966,12.37034c1.89561,0 3.7326,-0.26382 5.51096,-0.79147c1.77836,-0.52764 3.56649,-1.16277 5.36439,-1.90538v9.79074c-3.57626,1.58293 -7.62153,2.3744 -12.13583,2.3744c-6.46853,0 -11.42742,-1.87607 -14.87665,-5.62821c-3.44923,-3.75214 -5.17385,-9.17515 -5.17385,-16.26904c0,-4.43612 0.83544,-8.33483 2.50631,-11.69612c1.67087,-3.36129 4.07459,-5.94577 7.21114,-7.75345c3.13655,-1.80767 6.82518,-2.71151 11.06588,-2.71151c4.63155,0 9.0579,1.00643 13.27906,3.0193l-3.54694,9.11653c-1.58293,-0.74261 -3.16587,-1.36797 -4.7488,-1.87607c-1.58293,-0.5081 -3.28312,-0.76215 -5.10057,-0.76215z" data-paper-data="{&quot;glyphName&quot;:&quot;C&quot;,&quot;glyphIndex&quot;:5,&quot;word&quot;:1}" style="fill: rgb(243, 53, 53);"/>
        <path d="M385.06996,256.47221h-11.57887v-33.38818h-10.46495v-9.46829h32.47946v9.46829h-10.43564z" data-paper-data="{&quot;glyphName&quot;:&quot;T&quot;,&quot;glyphIndex&quot;:6,&quot;word&quot;:1}" style="fill: rgb(243, 53, 53);"/>
        <path d="M440.53128,234.98534c0,7.21114 -1.76859,12.69279 -5.30576,16.44493c-3.53717,3.75214 -8.71591,5.62821 -15.5362,5.62821c-6.72258,0 -11.87689,-1.88584 -15.46292,-5.65752c-3.58603,-3.77168 -5.37904,-9.2631 -5.37904,-16.47424c0,-7.13297 1.78324,-12.58042 5.34973,-16.34233c3.56649,-3.76191 8.75011,-5.64287 15.55086,-5.64287c6.8203,0 11.98926,1.8663 15.50689,5.5989c3.51763,3.7326 5.27645,9.21424 5.27645,16.44493zM411.0418,234.98534c0,8.28598 2.8825,12.42896 8.64751,12.42896c2.93136,0 5.10545,-1.00643 6.52227,-3.0193c1.41682,-2.01287 2.12524,-5.14942 2.12524,-9.40966c0,-4.27978 -0.71818,-7.44077 -2.15455,-9.48295c-1.43637,-2.04218 -3.58114,-3.06327 -6.43433,-3.06327c-5.80409,0 -8.70614,4.18207 -8.70614,12.54622z" data-paper-data="{&quot;glyphName&quot;:&quot;O&quot;,&quot;glyphIndex&quot;:7,&quot;word&quot;:1}" style="fill: rgb(243, 53, 53);"/>
        <path d="M459.84894,240.87738v15.59483h-11.57887v-42.85647h14.04121c11.64727,0 17.4709,4.22116 17.4709,12.66347c0,4.96377 -2.42326,8.80385 -7.26977,11.52024l12.48759,18.67276h-13.13249l-9.08721,-15.59483zM459.84894,232.17124h2.16921c4.04528,0 6.06791,-1.78813 6.06791,-5.36439c0,-2.9509 -1.98355,-4.42635 -5.95066,-4.42635h-2.28646z" data-paper-data="{&quot;glyphName&quot;:&quot;R&quot;,&quot;glyphIndex&quot;:8,&quot;lastGlyphOfWord&quot;:true,&quot;word&quot;:1}" style="fill: rgb(243, 53, 53);"/>
      </g>
    </g>
  </g>
</svg>