<svg xmlns="http://www.w3.org/2000/svg" fill="none" viewBox="0.27 0.05 146.12 29.37"><path d="M68.3036 20.6342C67.8717 19.9325 67.4263 19.2037 67.0484 18.4615L66.9944 18.4885C66.7784 18.6234 66.5895 18.7449 66.3735 18.8529C66.1171 19.0013 65.8336 19.0688 65.5502 19.0823C65.2533 19.0958 64.9698 19.0283 64.7134 18.8934C64.4569 18.7584 64.2275 18.5695 64.052 18.34C63.8766 18.1106 63.7686 17.8272 63.7281 17.5438C63.6741 17.2334 63.6336 16.9095 63.6336 16.5992V9.81104H67.9932V6.05935H63.6336V0.0539551L59.436 1.75436V6.05935H56.3857V9.83803H59.436V16.7206C59.436 17.4494 59.5035 18.1781 59.625 18.8934C59.8679 20.2969 60.4483 21.5114 61.7575 22.2402C62.9723 22.888 64.349 23.1444 65.7122 22.9689C66.7514 22.8745 67.7502 22.5371 68.641 21.9973C68.695 21.9703 68.749 21.9433 68.7895 21.8893C68.83 21.8353 68.857 21.7813 68.8705 21.7274C68.884 21.6599 68.884 21.6059 68.857 21.5384C68.8435 21.4844 68.803 21.4305 68.7625 21.3765C68.6005 21.1471 68.4521 20.8907 68.3036 20.6342ZM54.901 16.0728C55.198 16.8826 55.2385 17.7598 55.0225 18.5965C54.8335 19.3252 54.4961 20.0135 54.0237 20.5938C53.5513 21.1875 52.9575 21.6599 52.2961 21.9973C50.2176 23.1983 47.9636 23.1983 45.6826 22.8745C44.1709 22.672 42.7672 21.9973 41.6604 20.9581C41.0531 20.3913 40.5672 19.7031 40.2298 18.9473C41.593 18.394 42.9157 17.8812 44.1844 17.3954C44.5893 17.9352 45.0482 18.421 45.5611 18.8529C46.1819 19.2847 46.8973 19.5411 47.6396 19.6086C48.382 19.6761 49.1378 19.5411 49.8261 19.2172C50.0421 19.1093 50.2176 18.9743 50.366 18.7854C50.5145 18.61 50.6225 18.394 50.69 18.1781C50.9194 17.4898 50.636 16.8961 49.8126 16.6261C49.1783 16.4102 48.5169 16.2618 47.8421 16.0998C47.6531 16.0593 47.4507 16.0054 47.2617 15.9649C47.0323 15.9109 46.8028 15.8569 46.5734 15.8029C45.4801 15.5465 44.3733 15.3036 43.3476 14.7773C40.8506 13.4952 40.4187 10.9986 41.431 8.89336C41.9304 7.86772 42.7672 7.04451 43.8065 6.57217C45.0752 5.95139 46.4519 5.641 47.8556 5.6275C49.2593 5.6275 50.6495 5.93789 51.9182 6.53168C53.1329 7.13897 54.1722 8.07015 54.901 9.21724C53.5918 9.77055 52.3096 10.2834 51.0274 10.7962C50.6225 10.1754 50.0556 9.67608 49.3807 9.36569C48.8544 9.13627 48.274 9.02831 47.7071 9.02831C47.1267 9.02831 46.5599 9.16326 46.0335 9.39268C45.777 9.52763 45.5611 9.73007 45.4396 9.98647C45.3046 10.2429 45.2641 10.5398 45.3046 10.8232C45.3451 11.0391 45.4531 11.228 45.6151 11.39C45.7635 11.5384 45.966 11.6464 46.1819 11.7004L50.1096 12.7125H50.1231C51.2703 13.0229 52.4311 13.3198 53.4029 14.0486C54.0777 14.5614 54.6041 15.2631 54.901 16.0728ZM109.051 5.73546C110.563 5.61401 112.088 5.80294 113.532 6.28877C115.759 7.13897 117.122 8.73141 117.527 11.1201C117.581 11.6059 117.608 12.0917 117.649 12.5506V12.6315V22.6855H113.573V20.4318C113.343 20.6342 113.1 20.8232 112.844 21.0391H112.83L112.817 21.0526C112.763 21.0931 112.709 21.1336 112.655 21.1875C110.185 23.1983 107.418 23.5627 104.489 22.4966C102.451 21.7409 101.385 19.6086 101.682 17.3819C102.046 14.9122 103.625 13.6302 105.852 12.9419C107.054 12.6181 108.295 12.4696 109.537 12.5101H113.465C113.559 11.9433 113.465 11.3495 113.195 10.8367C112.925 10.3239 112.493 9.919 111.967 9.66259C110.63 9.08229 108.066 9.0553 106.784 10.4588C106.487 10.7692 106.217 11.0931 105.96 11.4305C105.528 11.2145 105.097 10.9986 104.665 10.7962C103.801 10.3643 102.937 9.94599 102.046 9.51414C102.775 8.56947 103.652 7.75976 104.638 7.11198C105.96 6.26178 107.485 5.78944 109.051 5.73546ZM110.576 19.2037C111.508 18.8529 112.331 18.2456 112.952 17.4629C113.181 17.2334 113.357 16.95 113.438 16.6261C113.519 16.3158 113.519 15.9784 113.438 15.6545C112.979 15.6545 112.533 15.6545 112.088 15.641H112.074C111.17 15.641 110.266 15.6275 109.362 15.6545C108.7 15.6815 108.052 15.7894 107.405 15.9649C106.433 16.2348 106.001 16.9365 106.068 18.0027C106.122 18.7584 106.703 19.3117 107.647 19.4602C108.633 19.6491 109.645 19.5546 110.576 19.2037ZM28.3928 6.11333C29.1487 5.82993 29.9585 5.69498 30.7683 5.73546C33.9401 5.82993 36.3021 7.28742 37.7328 10.1349C38.4346 11.4575 38.7991 12.9284 38.7991 14.4264C38.7991 15.9244 38.4346 17.3954 37.7328 18.7179C37.1794 19.9055 36.3156 20.9311 35.2358 21.6869C34.1561 22.4426 32.9144 22.9149 31.6051 23.0364C30.7143 23.1714 29.8235 23.1309 28.9462 22.9284C28.0824 22.7125 27.2591 22.3212 26.5438 21.7948C26.1793 21.4979 25.8284 21.1741 25.5045 20.8232V29.4197H21.2664V6.11333H25.464V8.28607C25.7879 7.9217 26.0579 7.65179 26.3413 7.36839C26.9352 6.82858 27.6235 6.39673 28.3928 6.11333ZM27.2321 18.2996C28.0149 18.7989 28.9192 19.0688 29.8505 19.0553C30.4579 19.0553 31.0653 18.9338 31.6321 18.7044C32.199 18.475 32.6984 18.1241 33.1303 17.6923C33.5622 17.2604 33.8996 16.7476 34.1156 16.1808C34.345 15.614 34.453 15.0067 34.4395 14.3994C34.4395 13.4683 34.1696 12.5641 33.6567 11.7948C33.1438 11.0256 32.4015 10.4183 31.5512 10.0674C30.6873 9.71657 29.7425 9.6221 28.8382 9.81104C27.9339 9.99997 27.0971 10.4453 26.4358 11.1066C25.7879 11.7678 25.3425 12.6046 25.1671 13.5222C24.9916 14.4399 25.0996 15.3846 25.464 16.2348C25.8284 17.0715 26.4493 17.7867 27.2321 18.2996ZM95.3382 17.1929C94.7578 18.1646 93.8265 18.8799 92.7467 19.2037C91.6535 19.5141 90.4792 19.5006 89.3995 19.1363C88.6706 18.9068 88.0093 18.4885 87.4829 17.9217C86.9565 17.3549 86.5921 16.6666 86.4166 15.9109H99.6707C99.6572 15.6275 99.6572 15.3441 99.6572 15.0742C99.6437 14.3724 99.6437 13.7112 99.5492 13.0499C99.4008 11.5654 98.8474 10.1484 97.9296 8.97433C97.0253 7.80024 95.7971 6.89606 94.3934 6.38324C92.7602 5.70847 90.9651 5.56003 89.2375 5.95139C87.9553 6.18081 86.7405 6.70712 85.7013 7.48985C84.662 8.27258 83.8117 9.28472 83.2313 10.4588C82.2865 12.3077 82.0301 14.4399 82.5025 16.4642C82.8264 18.3535 83.8657 20.0539 85.4044 21.2145C88.6031 23.5627 92.0854 23.7112 95.6081 22.0917C96.9038 21.4305 97.9971 20.4453 98.8069 19.2307C98.7394 19.1768 98.6719 19.1228 98.591 19.0823C98.213 18.8664 97.8216 18.6504 97.4437 18.4345L97.4302 18.421C96.7284 17.9892 96.0265 17.5978 95.3382 17.1929ZM90.7627 9.3522C93.4216 9.25773 95.0007 10.6882 95.3922 12.5506H86.6461C86.889 11.1066 88.5761 9.41967 90.7492 9.3387L90.7627 9.3522ZM76.4558 6.70712C77.0632 6.26178 77.765 5.96488 78.5209 5.85692C79.8571 5.58702 81.2473 5.81644 82.4485 6.4777C82.1786 7.20645 81.9221 7.9217 81.6522 8.63695C81.4092 9.29822 81.1663 9.97298 80.9233 10.6477C80.1945 10.2294 79.3712 10.0405 78.5478 10.0674C77.3871 10.1349 76.3208 10.4588 75.646 11.5249C75.2411 12.2672 75.0386 13.1174 75.0926 13.9676V22.7395H70.895V6.09984H75.0386V8.42102C75.3625 7.74626 75.8484 7.15247 76.4558 6.70712ZM146.047 9.67608C145.844 8.94734 145.493 8.28607 145.021 7.70577C144.548 7.12548 143.941 6.65314 143.266 6.32926C142.281 5.89741 141.215 5.68148 140.135 5.69498C138.812 5.6275 137.503 6.03236 136.45 6.82858C136.059 7.11198 135.708 7.47635 135.343 7.84073C135.168 8.01616 134.979 8.2051 134.804 8.38054C133.859 6.58567 132.212 5.78945 130.174 5.69498C129.202 5.61401 128.23 5.78945 127.34 6.1943C126.449 6.59916 125.693 7.23344 125.113 8.01616V6.05935H120.875V22.6855H125.14V22.2537C125.14 19.2037 125.14 16.1268 125.167 13.0904C125.194 11.0121 126.179 9.74356 127.947 9.52763C129.405 9.3387 130.633 9.77055 131.119 11.228C131.308 11.7813 131.389 12.3616 131.389 12.9284C131.416 14.9932 131.402 17.0715 131.402 19.1363V19.1498C131.402 20.1889 131.389 21.2145 131.389 22.2537V22.6855H135.748V13.5357C135.748 13.1444 135.775 12.7395 135.816 12.3481C136.032 10.3913 137.368 9.27122 139.258 9.41967C140.634 9.51414 141.39 10.0944 141.754 11.4035C141.93 12.0647 142.011 12.753 141.997 13.4413C142.011 15.3981 142.011 17.3414 141.997 19.2847C141.997 20.2564 141.997 21.2145 141.997 22.1727V22.6046H146.357V12.4021C146.451 11.5114 146.343 10.5668 146.047 9.67608ZM13.5731 1.94329V1.90281C13.5731 1.90281 17.9191 0.175413 17.9461 0.188908C17.9461 0.539785 17.9461 1.65989 17.9596 3.18486C17.9731 6.32926 17.9866 11.1606 17.9866 14.2105C18.0001 15.4656 17.7842 16.7071 17.3388 17.8677C17.1228 18.421 16.8529 18.9473 16.5289 19.4467C15.9621 20.3104 15.2197 21.0526 14.3559 21.6194C14.14 21.7544 13.924 21.8893 13.7081 21.9973C13.0197 22.3481 12.2909 22.618 11.535 22.78C10.9547 22.9014 10.3608 22.9824 9.76693 23.0229C9.47 23.0364 9.18656 23.0499 8.88962 23.0499C8.30925 23.0499 7.71538 22.9959 7.1485 22.888C6.2712 22.726 5.42088 22.4426 4.62456 22.0512C4.07118 21.7813 3.55829 21.444 3.0859 21.0526C2.64049 20.6747 2.23558 20.2429 1.88466 19.7705C1.53374 19.2982 1.2503 18.7854 1.00735 18.2456C0.764405 17.6788 0.588943 17.0985 0.46747 16.5047V16.4237C0.413482 16.1538 0.386488 15.9109 0.345997 15.614C0.345997 15.5735 0.3325 15.5195 0.3325 15.479C0.292008 15.2226 0.265015 14.9662 0.265015 14.6963V14.0755C0.265015 10.5533 0.292009 7.51684 0.292009 6.27527C0.292009 5.96488 0.292009 5.76245 0.292009 5.70847L4.69204 3.9271V14.2645C4.69204 14.5209 4.70554 14.7773 4.74603 15.0337V15.1417C4.81352 15.5735 4.93499 16.0054 5.12395 16.4102C5.17794 16.5317 5.24542 16.6531 5.31291 16.7746C5.40739 16.95 5.51536 17.112 5.63684 17.2604C5.86629 17.5573 6.13623 17.8272 6.43316 18.0432C6.66261 18.2186 6.91906 18.367 7.189 18.475C7.29697 18.5155 7.39145 18.556 7.49943 18.5965C7.78287 18.6909 8.0798 18.7584 8.37674 18.7989C8.74116 18.8394 9.10558 18.8529 9.48349 18.8394C10.1583 18.8259 10.8197 18.6504 11.4136 18.3131C12.0074 17.9892 12.5068 17.5303 12.8847 16.9635C13.0332 16.7341 13.1547 16.5047 13.2492 16.2483C13.4651 15.7085 13.5866 15.1417 13.6271 14.5614V13.5627V1.94329H13.5731Z" fill="#0061FA"/></svg>