<?xml version="1.0" encoding="utf-8"?>
<svg viewBox="65 212.94 420 44.12" xmlns="http://www.w3.org/2000/svg">
  <g fill="#f8485e" fill-rule="nonzero" stroke="none" stroke-width="1" stroke-linecap="butt" stroke-linejoin="miter" stroke-miterlimit="10" stroke-dasharray="" stroke-dashoffset="0" font-family="none" font-weight="none" font-size="none" text-anchor="none" style="mix-blend-mode: normal; fill: rgb(255, 255, 255);" transform="matrix(0.9999999999999999, 0, 0, 0.9999999999999999, 7.105427357601002e-15, 2.842170943040401e-14)">
    <g data-paper-data="{&quot;isGlobalGroup&quot;:true,&quot;bounds&quot;:{&quot;x&quot;:65,&quot;y&quot;:212.941520416695,&quot;width&quot;:420,&quot;height&quot;:44.11695916660997}}" style="fill: rgb(255, 255, 255);">
      <g data-paper-data="{&quot;isPrimaryText&quot;:true}" style="fill: rgb(255, 255, 255);">
        <path d="M174.07071,243.45697c0,2.65777 -0.67421,5.01751 -2.02264,7.07923c-1.34843,2.06172 -3.29289,3.6642 -5.83341,4.80743c-2.54051,1.14323 -5.52073,1.71485 -8.94065,1.71485c-2.85319,0 -5.24713,-0.20031 -7.18183,-0.60093c-1.9347,-0.40062 -3.94756,-1.09926 -6.0386,-2.09592v-10.31839c2.20829,1.13346 4.50452,2.01775 6.88869,2.65288c2.38417,0.63513 4.57292,0.95269 6.56625,0.95269c1.71973,0 2.98022,-0.29802 3.78145,-0.89406c0.80124,-0.59604 1.20186,-1.36308 1.20186,-2.30112c0,-0.58627 -0.16122,-1.09926 -0.48367,-1.53896c-0.32245,-0.4397 -0.84032,-0.88429 -1.55362,-1.33377c-0.7133,-0.44948 -2.6138,-1.36797 -5.70149,-2.75548c-2.79456,-1.27026 -4.89048,-2.50143 -6.28777,-3.69351c-1.39728,-1.19209 -2.43303,-2.56005 -3.10724,-4.1039c-0.67421,-1.54385 -1.01132,-3.37106 -1.01132,-5.48164c0,-3.94756 1.43637,-7.02549 4.3091,-9.23378c2.87273,-2.20829 6.8203,-3.31244 11.84269,-3.31244c4.43612,0 8.96019,1.02598 13.57219,3.07793l-3.54694,8.94065c-4.00619,-1.83699 -7.4652,-2.75548 -10.37701,-2.75548c-1.50476,0 -2.59914,0.26382 -3.28312,0.79147c-0.68398,0.52764 -1.02598,1.18231 -1.02598,1.96401c0,0.84032 0.43482,1.59271 1.30445,2.25715c0.86964,0.66444 3.22938,1.87607 7.07923,3.63489c3.69351,1.6611 6.25845,3.44435 7.69482,5.34973c1.43637,1.90538 2.15455,4.30421 2.15455,7.19649z" data-paper-data="{&quot;glyphName&quot;:&quot;S&quot;,&quot;glyphIndex&quot;:0,&quot;firstGlyphOfWord&quot;:true,&quot;word&quot;:1}" style=""/>
        <path d="M206.13978,256.47221h-25.4442v-42.85647h25.4442v9.29241h-13.86533v6.74213h12.83935v9.29241h-12.83935v8.09055h13.86533z" data-paper-data="{&quot;glyphName&quot;:&quot;E&quot;,&quot;glyphIndex&quot;:1,&quot;word&quot;:1}" style=""/>
        <path d="M232.72721,222.49775c-2.75548,0 -4.90514,1.12857 -6.44899,3.38572c-1.54385,2.25715 -2.31577,5.36927 -2.31577,9.33638c0,8.24689 3.13655,12.37034 9.40966,12.37034c1.89561,0 3.7326,-0.26382 5.51096,-0.79147c1.77836,-0.52764 3.56649,-1.16277 5.36439,-1.90538v9.79074c-3.57626,1.58293 -7.62153,2.3744 -12.13583,2.3744c-6.46853,0 -11.42742,-1.87607 -14.87665,-5.62821c-3.44923,-3.75214 -5.17385,-9.17515 -5.17385,-16.26904c0,-4.43612 0.83544,-8.33483 2.50631,-11.69612c1.67087,-3.36129 4.07459,-5.94577 7.21114,-7.75345c3.13655,-1.80767 6.82518,-2.71151 11.06588,-2.71151c4.63155,0 9.0579,1.00643 13.27906,3.0193l-3.54694,9.11653c-1.58293,-0.74261 -3.16587,-1.36797 -4.7488,-1.87607c-1.58293,-0.5081 -3.28312,-0.76215 -5.10057,-0.76215z" data-paper-data="{&quot;glyphName&quot;:&quot;C&quot;,&quot;glyphIndex&quot;:2,&quot;word&quot;:1}" style=""/>
        <path d="M276.66829,213.61573h12.95661l-14.04121,42.85647h-13.63082l-13.98258,-42.85647h13.01524l5.83341,21.72137c1.21163,4.82697 1.87607,8.18826 1.99332,10.08388c0.1368,-1.36797 0.41039,-3.07793 0.82078,-5.12988c0.41039,-2.05195 0.77192,-3.6642 1.0846,-4.83674z" data-paper-data="{&quot;glyphName&quot;:&quot;V&quot;,&quot;glyphIndex&quot;:3,&quot;word&quot;:1}" style=""/>
        <path d="M319.70064,256.47221h-25.4442v-42.85647h25.4442v9.29241h-13.86533v6.74213h12.83935v9.29241h-12.83935v8.09055h13.86533z" data-paper-data="{&quot;glyphName&quot;:&quot;E&quot;,&quot;glyphIndex&quot;:4,&quot;word&quot;:1}" style=""/>
        <path d="M346.28807,222.49775c-2.75548,0 -4.90514,1.12857 -6.44899,3.38572c-1.54385,2.25715 -2.31577,5.36927 -2.31577,9.33638c0,8.24689 3.13655,12.37034 9.40966,12.37034c1.89561,0 3.7326,-0.26382 5.51096,-0.79147c1.77836,-0.52764 3.56649,-1.16277 5.36439,-1.90538v9.79074c-3.57626,1.58293 -7.62153,2.3744 -12.13583,2.3744c-6.46853,0 -11.42742,-1.87607 -14.87665,-5.62821c-3.44923,-3.75214 -5.17385,-9.17515 -5.17385,-16.26904c0,-4.43612 0.83544,-8.33483 2.50631,-11.69612c1.67087,-3.36129 4.07459,-5.94577 7.21114,-7.75345c3.13655,-1.80767 6.82518,-2.71151 11.06588,-2.71151c4.63155,0 9.0579,1.00643 13.27906,3.0193l-3.54694,9.11653c-1.58293,-0.74261 -3.16587,-1.36797 -4.7488,-1.87607c-1.58293,-0.5081 -3.28312,-0.76215 -5.10057,-0.76215z" data-paper-data="{&quot;glyphName&quot;:&quot;C&quot;,&quot;glyphIndex&quot;:5,&quot;word&quot;:1}" style=""/>
        <path d="M385.06996,256.47221h-11.57887v-33.38818h-10.46495v-9.46829h32.47946v9.46829h-10.43564z" data-paper-data="{&quot;glyphName&quot;:&quot;T&quot;,&quot;glyphIndex&quot;:6,&quot;word&quot;:1}" style=""/>
        <path d="M440.53128,234.98534c0,7.21114 -1.76859,12.69279 -5.30576,16.44493c-3.53717,3.75214 -8.71591,5.62821 -15.5362,5.62821c-6.72258,0 -11.87689,-1.88584 -15.46292,-5.65752c-3.58603,-3.77168 -5.37904,-9.2631 -5.37904,-16.47424c0,-7.13297 1.78324,-12.58042 5.34973,-16.34233c3.56649,-3.76191 8.75011,-5.64287 15.55086,-5.64287c6.8203,0 11.98926,1.8663 15.50689,5.5989c3.51763,3.7326 5.27645,9.21424 5.27645,16.44493zM411.0418,234.98534c0,8.28598 2.8825,12.42896 8.64751,12.42896c2.93136,0 5.10545,-1.00643 6.52227,-3.0193c1.41682,-2.01287 2.12524,-5.14942 2.12524,-9.40966c0,-4.27978 -0.71818,-7.44077 -2.15455,-9.48295c-1.43637,-2.04218 -3.58114,-3.06327 -6.43433,-3.06327c-5.80409,0 -8.70614,4.18207 -8.70614,12.54622z" data-paper-data="{&quot;glyphName&quot;:&quot;O&quot;,&quot;glyphIndex&quot;:7,&quot;word&quot;:1}" style=""/>
        <path d="M459.84894,240.87738v15.59483h-11.57887v-42.85647h14.04121c11.64727,0 17.4709,4.22116 17.4709,12.66347c0,4.96377 -2.42326,8.80385 -7.26977,11.52024l12.48759,18.67276h-13.13249l-9.08721,-15.59483zM459.84894,232.17124h2.16921c4.04528,0 6.06791,-1.78813 6.06791,-5.36439c0,-2.9509 -1.98355,-4.42635 -5.95066,-4.42635h-2.28646z" data-paper-data="{&quot;glyphName&quot;:&quot;R&quot;,&quot;glyphIndex&quot;:8,&quot;lastGlyphOfWord&quot;:true,&quot;word&quot;:1}" style=""/>
      </g>
      <g data-paper-data="{&quot;fillRule&quot;:&quot;nonzero&quot;,&quot;fillRuleOriginal&quot;:&quot;nonzero&quot;,&quot;isIcon&quot;:true,&quot;iconStyle&quot;:&quot;standalone&quot;,&quot;selectedEffects&quot;:{&quot;container&quot;:&quot;shield_simple_outline3&quot;,&quot;transformation&quot;:&quot;&quot;,&quot;pattern&quot;:&quot;&quot;},&quot;bounds&quot;:{&quot;x&quot;:65,&quot;y&quot;:212.941520416695,&quot;width&quot;:34.85072130739833,&quot;height&quot;:44.11695916660997},&quot;widthRatioIconToContainer&quot;:0.7345230245327476,&quot;heightRatioIconToContainer&quot;:0.6695138739861057,&quot;relativeBoundsIconToContainer&quot;:{&quot;top&quot;:-0.06482183766084208,&quot;left&quot;:0.02233166674878044},&quot;iconType&quot;:&quot;initial&quot;,&quot;initialText&quot;:&quot;S&quot;,&quot;rawInitialId&quot;:870,&quot;blockLetter&quot;:&quot;V&quot;,&quot;suitableAsStandaloneIcon&quot;:true}" style="fill: rgb(255, 255, 255);">
        <path d="M70.40431,241.9859v-2.95369h15.75302v-2.95369h-15.75302v-10.8302l9.84564,-7.87651h5.90738l9.84564,7.87651h-15.75302v2.95369h15.75302v10.8302l-9.84564,7.87651h-10.8302c-2.67801,0 -4.92282,-2.20542 -4.92282,-4.92282zM73.53693,252.2737c-1.12849,-0.96735 -2.08262,-1.91571 -2.86237,-2.84507c-1.42718,-1.70102 -2.64652,-3.69151 -3.65803,-5.97146c-1.01349,-2.28437 -1.64631,-4.47205 -1.89843,-6.56305c-0.07495,-0.62161 -0.11425,-4.18024 -0.11788,-10.67589c-0.00365,-6.54148 0.04072,-9.97332 0.13313,-10.29551c0.18891,-0.6587 0.60761,-1.15673 1.25608,-1.49409c0.43594,-0.22679 2.46747,-0.55007 6.0946,-0.96986c1.96397,-0.22731 3.52729,-0.37071 4.68998,-0.43022c1.15911,-0.05932 2.96033,-0.08832 5.40366,-0.08698c2.53174,0.00138 4.44688,0.04079 5.74544,0.11822c1.30038,0.07754 3.08707,0.25899 5.36006,0.54434c2.28788,0.28721 3.69457,0.49631 4.22005,0.62729c0.70355,0.17535 1.22897,0.52069 1.57625,1.03603l0.22634,0.33592c0.02352,0.03483 0.04431,0.07121 0.06235,0.10913c0.01805,0.03792 0.03321,0.07696 0.0455,0.11713c0.01229,0.04017 0.02152,0.08103 0.0277,0.12256c0.00625,0.04155 0.00937,0.08332 0.00937,0.12532v10.36423c0,6.9604 -0.04062,10.66433 -0.12186,11.11182c-0.46889,2.58292 -1.29234,5.01875 -2.47033,7.30747c-1.1801,2.29258 -2.65784,4.32467 -4.43322,6.09626c-2.45548,2.45022 -5.31411,4.32987 -8.57586,5.63895c-0.72384,0.29055 -1.29634,0.44407 -1.71749,0.46057c-0.44242,0.01734 -0.98322,-0.10013 -1.62238,-0.35241c-1.41111,-0.55694 -2.79255,-1.2421 -4.14432,-2.05547c-1.0231,-0.61564 -2.09921,-1.40739 -3.22832,-2.37523zM83.61741,255.02156c3.04754,-1.22314 5.71735,-2.97827 8.00944,-5.26538c1.64977,-1.64626 3.02408,-3.53686 4.12295,-5.67182c1.1009,-2.13881 1.87073,-4.4168 2.30951,-6.83394c0.06305,-0.34728 0.09458,-3.95018 0.09458,-10.8087v-10.10504l-0.08152,-0.12097c-0.06698,-0.09935 -0.11684,-0.16042 -0.14956,-0.1832c-0.07099,-0.04936 -0.2143,-0.10091 -0.42993,-0.15465c-0.45991,-0.11462 -1.80027,-0.31134 -4.0211,-0.59013c-2.23627,-0.28074 -3.98617,-0.45878 -5.24968,-0.53413c-1.26527,-0.07545 -3.14703,-0.11385 -5.64527,-0.11521c-2.41413,-0.00131 -4.18617,0.02694 -5.31614,0.08477c-1.12639,0.05765 -2.65358,0.19804 -4.58157,0.42117c-3.42005,0.39582 -5.25558,0.65902 -5.50658,0.7896c-0.2172,0.11299 -0.35324,0.26518 -0.40812,0.45656c-0.04848,0.16905 -0.07094,3.44465 -0.06738,9.82679c0.0036,6.42803 0.03882,9.91925 0.10568,10.47367c0.23182,1.92262 0.8201,3.94867 1.76484,6.07815c0.94673,2.13397 2.08236,3.99028 3.40689,5.56891c0.71996,0.85809 1.60887,1.74056 2.66676,2.64738c1.0573,0.90626 2.05694,1.64278 2.99895,2.20956c1.27117,0.76499 2.56863,1.40869 3.8924,1.93108c0.41757,0.16487 0.72855,0.24326 0.93295,0.23519c0.22567,-0.00885 0.60964,-0.12207 1.15191,-0.33967z" data-paper-data="{&quot;isPathIcon&quot;:true}" style=""/>
      </g>
      <path d="M117.53187,257.05848v-44.11696h1.85971v44.11696z" data-paper-data="{&quot;isShapeTextSeparator&quot;:true}" style=""/>
    </g>
  </g>
</svg>