<svg xmlns="http://www.w3.org/2000/svg" version="1.1" xmlns:xlink="http://www.w3.org/1999/xlink" xmlns:svgjs="http://svgjs.dev/svgjs" width="1440" height="800" preserveAspectRatio="none" viewBox="0 0 1440 800">
    <g mask="url(&quot;#SvgjsMask1051&quot;)" fill="none">
        <path d="M784.77 135.11 a183.03 183.03 0 1 0 366.06 0 a183.03 183.03 0 1 0 -366.06 0z" fill="rgba(170, 139, 177, 0.4)" class="triangle-float3"></path>
        <path d="M182.678,364.286C253.704,362.495,322.217,334.902,360.354,274.956C401.495,210.287,413.299,127.724,375.644,60.966C337.415,-6.81,260.474,-41.697,182.678,-40.042C107.758,-38.448,41.878,4.564,3.427,68.884C-36.159,135.103,-51.252,218.373,-11.23,284.329C27.644,348.392,107.767,366.175,182.678,364.286" fill="rgba(170, 139, 177, 0.4)" class="triangle-float1"></path>
        <path d="M615.64 191.77 a219.44 219.44 0 1 0 438.88 0 a219.44 219.44 0 1 0 -438.88 0z" fill="rgba(170, 139, 177, 0.4)" class="triangle-float1"></path>
        <path d="M240.416,520.549C300.473,515.011,337.623,460.352,364.971,406.597C389.19,358.992,399.274,304.6,374.299,257.388C347.694,207.094,297.311,170.583,240.416,171.139C184.338,171.687,141.687,213.027,110.987,259.959C75.963,313.501,40.055,376.631,68.515,433.932C99.106,495.523,171.936,526.863,240.416,520.549" fill="rgba(170, 139, 177, 0.4)" class="triangle-float1"></path>
        <path d="M1043.441,971.399C1110.55,972.407,1158.926,914.891,1192.113,856.553C1224.832,799.037,1247.428,729.344,1213.438,672.57C1180.081,616.853,1108.38,608.38,1043.441,608.223C978.126,608.065,904.716,615.206,872.012,671.743C839.279,728.331,869.849,795.455,902.311,852.199C935.084,909.486,977.449,970.407,1043.441,971.399" fill="rgba(170, 139, 177, 0.4)" class="triangle-float2"></path>
        <path d="M1156.49 81.98 a185.94 185.94 0 1 0 371.88 0 a185.94 185.94 0 1 0 -371.88 0z" fill="rgba(170, 139, 177, 0.4)" class="triangle-float2"></path>
        <path d="M548.808,923.074C603.102,924.203,664.314,919.03,692.11,872.377C720.325,825.021,700.194,765.789,669.993,719.675C642.973,678.418,598.102,655.117,548.808,653.57C496.293,651.922,441.564,667.093,413.69,711.631C384.312,758.573,385.651,819.961,415.47,866.624C443.325,910.214,497.089,921.998,548.808,923.074" fill="rgba(170, 139, 177, 0.4)" class="triangle-float1"></path>
        <path d="M-5.467,607.744C27.938,605.621,56.666,586.756,74.005,558.125C92.083,528.273,99.813,491.73,83.459,460.9C66.162,428.294,31.442,408.551,-5.467,408.312C-42.791,408.07,-76.855,427.943,-96.411,459.735C-117.01,493.223,-125.186,535.979,-104.603,569.477C-84.728,601.824,-43.356,610.152,-5.467,607.744" fill="rgba(170, 139, 177, 0.4)" class="triangle-float2"></path>
        <path d="M1421.313,958.714C1487.373,955.795,1529.758,894.524,1559.306,835.369C1585.169,783.59,1591.3,724.362,1563.812,673.427C1534.869,619.796,1482.252,580.289,1421.313,579.667C1359.396,579.035,1305.472,617.328,1273.684,670.465C1240.926,725.224,1231.356,791.783,1260.443,848.577C1292.194,910.571,1351.729,961.789,1421.313,958.714" fill="rgba(170, 139, 177, 0.4)" class="triangle-float3"></path>
        <path d="M332.57 320.67 a217.89 217.89 0 1 0 435.78 0 a217.89 217.89 0 1 0 -435.78 0z" fill="rgba(170, 139, 177, 0.4)" class="triangle-float1"></path>
    </g>
    <defs>
        <mask id="SvgjsMask1051">
            <rect width="1440" height="800" fill="#ffffff"></rect>
        </mask>
        <style>
            @keyframes float1 {
                    0%{transform: translate(0, 0)}
                    50%{transform: translate(-10px, 0)}
                    100%{transform: translate(0, 0)}
                }

                .triangle-float1 {
                    animation: float1 5s infinite;
                }

                @keyframes float2 {
                    0%{transform: translate(0, 0)}
                    50%{transform: translate(-5px, -5px)}
                    100%{transform: translate(0, 0)}
                }

                .triangle-float2 {
                    animation: float2 4s infinite;
                }

                @keyframes float3 {
                    0%{transform: translate(0, 0)}
                    50%{transform: translate(0, -10px)}
                    100%{transform: translate(0, 0)}
                }

                .triangle-float3 {
                    animation: float3 6s infinite;
                }
        </style>
    </defs>
</svg>