<svg xmlns="http://www.w3.org/2000/svg" version="1.1" xmlns:xlink="http://www.w3.org/1999/xlink" xmlns:svgjs="http://svgjs.dev/svgjs" width="1440" height="900" preserveAspectRatio="none" viewBox="0 0 1440 900">
    <g mask="url(&quot;#SvgjsMask1036&quot;)" fill="none">
        <path d="M610.79 139.33L610.79 143.06L641.08 143.06L641.08 139.33zM634.48 141.19 a6.6 6.6 0 1 0 13.2 0 a6.6 6.6 0 1 0 -13.2 0zM606.09 166.71L604.66 170.15L629.48 180.43L630.9 176.99zM623.59 178.71 a6.6 6.6 0 1 0 13.2 0 a6.6 6.6 0 1 0 -13.2 0zM591.26 190.2L588.63 192.83L602.29 206.5L604.93 203.86zM597.01 205.18 a6.6 6.6 0 1 0 13.2 0 a6.6 6.6 0 1 0 -13.2 0zM568.58 206.23L565.14 207.66L575.29 232.16L578.73 230.73zM570.41 231.45 a6.6 6.6 0 1 0 13.2 0 a6.6 6.6 0 1 0 -13.2 0zM541.49 212.36L537.76 212.36L537.76 237.25L541.49 237.25zM533.02 237.25 a6.6 6.6 0 1 0 13.2 0 a6.6 6.6 0 1 0 -13.2 0zM514.11 207.66L510.67 206.23L502.9 224.98L506.34 226.4zM498.02 225.69 a6.6 6.6 0 1 0 13.2 0 a6.6 6.6 0 1 0 -13.2 0zM490.62 192.83L487.98 190.2L472.18 206L474.81 208.64zM466.89 207.32 a6.6 6.6 0 1 0 13.2 0 a6.6 6.6 0 1 0 -13.2 0zM474.58 170.15L473.16 166.71L442.96 179.22L444.38 182.66zM437.07 180.94 a6.6 6.6 0 1 0 13.2 0 a6.6 6.6 0 1 0 -13.2 0zM468.45 143.06L468.45 139.33L457.92 139.33L457.92 143.06zM451.32 141.19 a6.6 6.6 0 1 0 13.2 0 a6.6 6.6 0 1 0 -13.2 0zM473.16 115.68L474.58 112.24L442.72 99.04L441.29 102.48zM435.41 100.76 a6.6 6.6 0 1 0 13.2 0 a6.6 6.6 0 1 0 -13.2 0zM487.98 92.19L490.62 89.55L481.19 80.12L478.56 82.76zM473.27 81.44 a6.6 6.6 0 1 0 13.2 0 a6.6 6.6 0 1 0 -13.2 0zM510.67 76.15L514.11 74.73L506.09 55.37L502.65 56.8zM497.77 56.09 a6.6 6.6 0 1 0 13.2 0 a6.6 6.6 0 1 0 -13.2 0zM537.76 70.02L541.49 70.02L541.49 50.53L537.76 50.53zM533.02 50.53 a6.6 6.6 0 1 0 13.2 0 a6.6 6.6 0 1 0 -13.2 0zM565.14 74.73L568.58 76.15L578.05 53.29L574.61 51.86zM569.73 52.57 a6.6 6.6 0 1 0 13.2 0 a6.6 6.6 0 1 0 -13.2 0zM588.63 89.55L591.26 92.19L608.72 74.73L606.09 72.09zM600.81 73.41 a6.6 6.6 0 1 0 13.2 0 a6.6 6.6 0 1 0 -13.2 0zM604.66 112.24L606.09 115.68L617.54 110.93L616.12 107.49zM610.23 109.21 a6.6 6.6 0 1 0 13.2 0 a6.6 6.6 0 1 0 -13.2 0zM468.43 141.19 a71.19 71.19 0 1 0 142.38 0 a71.19 71.19 0 1 0 -142.38 0z" fill="rgba(205, 30, 53, 1)"></path>
        <path d="M482.44 98.79 A70.1936 70.1936 0 0 1 604.88 112.74M604.88 112.74 A142.3872 142.3872 0 0 0 482.44 98.79" fill="#a4182a" fill-rule="nonzero"></path>
        <path d="M514.15 105.68 a14.24 14.24 0 1 0 28.48 0 a14.24 14.24 0 1 0 -28.48 0zM474.35 114.05 a5.7 5.7 0 1 0 11.4 0 a5.7 5.7 0 1 0 -11.4 0zM579.94 183.85 a7.12 7.12 0 1 0 14.24 0 a7.12 7.12 0 1 0 -14.24 0zM536.86 139.92 a9.97 9.97 0 1 0 19.94 0 a9.97 9.97 0 1 0 -19.94 0zM543.59 192.95 a11.39 11.39 0 1 0 22.78 0 a11.39 11.39 0 1 0 -22.78 0zM566.62 122.84 a8.54 8.54 0 1 0 17.08 0 a8.54 8.54 0 1 0 -17.08 0zM500.53 170.65 a14.24 14.24 0 1 0 28.48 0 a14.24 14.24 0 1 0 -28.48 0zM492.61 134.05 a8.54 8.54 0 1 0 17.08 0 a8.54 8.54 0 1 0 -17.08 0zM586.97 152.94 a10.68 10.68 0 1 0 21.36 0 a10.68 10.68 0 1 0 -21.36 0zM471.65 159.37 a5.7 5.7 0 1 0 11.4 0 a5.7 5.7 0 1 0 -11.4 0z" fill="#a4182a" fill-rule="nonzero"></path>
        <path d="M813.91 426.35L813.91 430.08L824.85 430.08L824.85 426.35zM818.25 428.21 a6.6 6.6 0 1 0 13.2 0 a6.6 6.6 0 1 0 -13.2 0zM809.2 453.73L807.78 457.17L831.24 466.89L832.66 463.44zM825.35 465.17 a6.6 6.6 0 1 0 13.2 0 a6.6 6.6 0 1 0 -13.2 0zM794.38 477.22L791.75 479.86L812.37 500.48L815 497.84zM807.08 499.16 a6.6 6.6 0 1 0 13.2 0 a6.6 6.6 0 1 0 -13.2 0zM771.7 493.25L768.25 494.68L777.8 517.73L781.24 516.3zM772.92 517.02 a6.6 6.6 0 1 0 13.2 0 a6.6 6.6 0 1 0 -13.2 0zM744.6 499.38L740.88 499.38L740.88 531.78L744.6 531.78zM736.14 531.78 a6.6 6.6 0 1 0 13.2 0 a6.6 6.6 0 1 0 -13.2 0zM717.23 494.68L713.78 493.25L706.09 511.83L709.53 513.26zM701.21 512.54 a6.6 6.6 0 1 0 13.2 0 a6.6 6.6 0 1 0 -13.2 0zM693.73 479.86L691.1 477.22L670.75 497.56L673.39 500.2zM665.47 498.88 a6.6 6.6 0 1 0 13.2 0 a6.6 6.6 0 1 0 -13.2 0zM677.7 457.17L676.27 453.73L659.05 460.86L660.48 464.3zM653.17 462.58 a6.6 6.6 0 1 0 13.2 0 a6.6 6.6 0 1 0 -13.2 0zM671.57 430.08L671.57 426.35L637.73 426.35L637.73 430.08zM631.13 428.21 a6.6 6.6 0 1 0 13.2 0 a6.6 6.6 0 1 0 -13.2 0zM676.27 402.7L677.7 399.26L656.78 390.59L655.36 394.04zM649.47 392.31 a6.6 6.6 0 1 0 13.2 0 a6.6 6.6 0 1 0 -13.2 0zM691.1 379.21L693.73 376.57L680.14 362.97L677.5 365.61zM672.22 364.29 a6.6 6.6 0 1 0 13.2 0 a6.6 6.6 0 1 0 -13.2 0zM713.78 363.18L717.23 361.75L706.19 335.11L702.75 336.54zM697.87 335.83 a6.6 6.6 0 1 0 13.2 0 a6.6 6.6 0 1 0 -13.2 0zM740.88 357.04L744.6 357.04L744.6 340.56L740.88 340.56zM736.14 340.56 a6.6 6.6 0 1 0 13.2 0 a6.6 6.6 0 1 0 -13.2 0zM768.25 361.75L771.7 363.18L778.42 346.94L774.98 345.52zM770.1 346.23 a6.6 6.6 0 1 0 13.2 0 a6.6 6.6 0 1 0 -13.2 0zM791.75 376.57L794.38 379.21L802.22 371.37L799.58 368.74zM794.3 370.05 a6.6 6.6 0 1 0 13.2 0 a6.6 6.6 0 1 0 -13.2 0zM807.78 399.26L809.2 402.7L830.49 393.88L829.06 390.44zM823.18 392.16 a6.6 6.6 0 1 0 13.2 0 a6.6 6.6 0 1 0 -13.2 0zM671.55 428.21 a71.19 71.19 0 1 0 142.38 0 a71.19 71.19 0 1 0 -142.38 0z" fill="rgba(135, 136, 149, 1)"></path>
        <path d="M771.73 363.19 A70.1936 70.1936 0 0 1 784.68 485.74M784.68 485.74 A142.3872 142.3872 0 0 0 771.73 363.19" fill="#6b6c79" fill-rule="nonzero"></path>
        <path d="M753.95 435.05 a14.24 14.24 0 1 0 28.48 0 a14.24 14.24 0 1 0 -28.48 0zM687.7 468.95 a10.68 10.68 0 1 0 21.36 0 a10.68 10.68 0 1 0 -21.36 0zM717.82 487.02 a6.41 6.41 0 1 0 12.82 0 a6.41 6.41 0 1 0 -12.82 0zM791.5 455.3 a7.83 7.83 0 1 0 15.66 0 a7.83 7.83 0 1 0 -15.66 0zM775.78 381.64 a8.54 8.54 0 1 0 17.08 0 a8.54 8.54 0 1 0 -17.08 0zM672.24 419.42 a2.85 2.85 0 1 0 5.7 0 a2.85 2.85 0 1 0 -5.7 0zM740.42 471.89 a5.7 5.7 0 1 0 11.4 0 a5.7 5.7 0 1 0 -11.4 0zM712.67 437.73 a13.53 13.53 0 1 0 27.06 0 a13.53 13.53 0 1 0 -27.06 0zM741.31 377.47 a9.97 9.97 0 1 0 19.94 0 a9.97 9.97 0 1 0 -19.94 0zM710.24 384.58 a8.54 8.54 0 1 0 17.08 0 a8.54 8.54 0 1 0 -17.08 0z" fill="#6b6c79" fill-rule="nonzero"></path>
        <path d="M1158.82 187.43L1158.82 191.15L1189.61 191.15L1189.61 187.43zM1183.01 189.29 a6.6 6.6 0 1 0 13.2 0 a6.6 6.6 0 1 0 -13.2 0zM1154.12 214.8L1152.69 218.25L1182.17 230.46L1183.6 227.01zM1176.29 228.74 a6.6 6.6 0 1 0 13.2 0 a6.6 6.6 0 1 0 -13.2 0zM1139.29 238.3L1136.66 240.93L1146.25 250.52L1148.88 247.88zM1140.96 249.2 a6.6 6.6 0 1 0 13.2 0 a6.6 6.6 0 1 0 -13.2 0zM1116.61 254.33L1113.17 255.75L1121.41 275.66L1124.86 274.24zM1116.53 274.95 a6.6 6.6 0 1 0 13.2 0 a6.6 6.6 0 1 0 -13.2 0zM1089.52 260.46L1085.79 260.46L1085.79 275.33L1089.52 275.33zM1081.05 275.33 a6.6 6.6 0 1 0 13.2 0 a6.6 6.6 0 1 0 -13.2 0zM1062.14 255.75L1058.7 254.33L1046.44 283.92L1049.88 285.35zM1041.56 284.63 a6.6 6.6 0 1 0 13.2 0 a6.6 6.6 0 1 0 -13.2 0zM1038.65 240.93L1036.01 238.3L1029.38 244.92L1032.02 247.56zM1024.1 246.24 a6.6 6.6 0 1 0 13.2 0 a6.6 6.6 0 1 0 -13.2 0zM1022.61 218.25L1021.19 214.8L1004.87 221.56L1006.3 225zM998.98 223.28 a6.6 6.6 0 1 0 13.2 0 a6.6 6.6 0 1 0 -13.2 0zM1016.48 191.15L1016.48 187.43L992.82 187.43L992.82 191.15zM986.22 189.29 a6.6 6.6 0 1 0 13.2 0 a6.6 6.6 0 1 0 -13.2 0zM1021.19 163.78L1022.61 160.33L1000.5 151.17L999.07 154.61zM993.18 152.89 a6.6 6.6 0 1 0 13.2 0 a6.6 6.6 0 1 0 -13.2 0zM1036.01 140.28L1038.65 137.65L1014.3 113.3L1011.66 115.94zM1006.38 114.62 a6.6 6.6 0 1 0 13.2 0 a6.6 6.6 0 1 0 -13.2 0zM1058.7 124.25L1062.14 122.82L1054.79 105.09L1051.35 106.51zM1046.47 105.8 a6.6 6.6 0 1 0 13.2 0 a6.6 6.6 0 1 0 -13.2 0zM1085.79 118.12L1089.52 118.12L1089.52 105.77L1085.79 105.77zM1081.05 105.77 a6.6 6.6 0 1 0 13.2 0 a6.6 6.6 0 1 0 -13.2 0zM1113.17 122.82L1116.61 124.25L1127.94 96.89L1124.5 95.46zM1119.62 96.17 a6.6 6.6 0 1 0 13.2 0 a6.6 6.6 0 1 0 -13.2 0zM1136.66 137.65L1139.29 140.28L1163.55 116.03L1160.91 113.39zM1155.63 114.71 a6.6 6.6 0 1 0 13.2 0 a6.6 6.6 0 1 0 -13.2 0zM1152.69 160.33L1154.12 163.78L1166.11 158.81L1164.68 155.37zM1158.8 157.09 a6.6 6.6 0 1 0 13.2 0 a6.6 6.6 0 1 0 -13.2 0zM1016.46 189.29 a71.19 71.19 0 1 0 142.38 0 a71.19 71.19 0 1 0 -142.38 0z" fill="rgba(205, 30, 53, 1)"></path>
        <path d="M1032.96 143.72 A70.1936 70.1936 0 0 1 1154.42 164.57M1154.42 164.57 A142.3872 142.3872 0 0 0 1032.96 143.72" fill="#a4182a" fill-rule="nonzero"></path>
        <path d="M1132.92 218.31 a9.26 9.26 0 1 0 18.52 0 a9.26 9.26 0 1 0 -18.52 0zM1110.06 147.48 a14.24 14.24 0 1 0 28.48 0 a14.24 14.24 0 1 0 -28.48 0zM1057.98 251.14 a4.27 4.27 0 1 0 8.54 0 a4.27 4.27 0 1 0 -8.54 0zM1075.22 234.54 a7.83 7.83 0 1 0 15.66 0 a7.83 7.83 0 1 0 -15.66 0zM1026.35 154.72 a5.7 5.7 0 1 0 11.4 0 a5.7 5.7 0 1 0 -11.4 0zM1049.44 138.86 a14.24 14.24 0 1 0 28.48 0 a14.24 14.24 0 1 0 -28.48 0zM1113.87 189.87 a9.97 9.97 0 1 0 19.94 0 a9.97 9.97 0 1 0 -19.94 0zM1104.93 228.19 a4.27 4.27 0 1 0 8.54 0 a4.27 4.27 0 1 0 -8.54 0zM1075.59 185.39 a12.1 12.1 0 1 0 24.2 0 a12.1 12.1 0 1 0 -24.2 0zM1028.72 201.2 a14.24 14.24 0 1 0 28.48 0 a14.24 14.24 0 1 0 -28.48 0z" fill="#a4182a" fill-rule="nonzero"></path>
        <path d="M743.36 693.37L743.36 695.7L754.68 695.7L754.68 693.37zM750.55 694.53 a4.13 4.13 0 1 0 8.26 0 a4.13 4.13 0 1 0 -8.26 0zM740.42 710.48L739.52 712.63L754.14 718.69L755.03 716.53zM750.46 717.61 a4.13 4.13 0 1 0 8.26 0 a4.13 4.13 0 1 0 -8.26 0zM731.15 725.16L729.5 726.81L733.62 730.93L735.27 729.28zM730.31 730.1 a4.13 4.13 0 1 0 8.26 0 a4.13 4.13 0 1 0 -8.26 0zM716.97 735.18L714.82 736.07L721.99 753.38L724.14 752.49zM718.93 752.93 a4.13 4.13 0 1 0 8.26 0 a4.13 4.13 0 1 0 -8.26 0zM700.04 739.01L697.71 739.01L697.71 749.05L700.04 749.05zM694.75 749.05 a4.13 4.13 0 1 0 8.26 0 a4.13 4.13 0 1 0 -8.26 0zM682.93 736.07L680.78 735.18L678.62 740.39L680.77 741.29zM675.56 740.84 a4.13 4.13 0 1 0 8.26 0 a4.13 4.13 0 1 0 -8.26 0zM668.25 726.81L666.6 725.16L657.14 734.62L658.79 736.26zM653.84 735.44 a4.13 4.13 0 1 0 8.26 0 a4.13 4.13 0 1 0 -8.26 0zM658.23 712.63L657.33 710.48L651.3 712.98L652.19 715.13zM647.62 714.06 a4.13 4.13 0 1 0 8.26 0 a4.13 4.13 0 1 0 -8.26 0zM654.39 695.7L654.39 693.37L641.7 693.37L641.7 695.7zM637.57 694.53 a4.13 4.13 0 1 0 8.26 0 a4.13 4.13 0 1 0 -8.26 0zM657.33 678.59L658.23 676.44L641.1 669.34L640.21 671.49zM636.52 670.42 a4.13 4.13 0 1 0 8.26 0 a4.13 4.13 0 1 0 -8.26 0zM666.6 663.91L668.25 662.26L664.29 658.3L662.64 659.95zM659.33 659.12 a4.13 4.13 0 1 0 8.26 0 a4.13 4.13 0 1 0 -8.26 0zM680.78 653.89L682.93 652.99L678.33 641.9L676.18 642.79zM673.13 642.34 a4.13 4.13 0 1 0 8.26 0 a4.13 4.13 0 1 0 -8.26 0zM697.71 650.05L700.04 650.05L700.04 631.29L697.71 631.29zM694.75 631.29 a4.13 4.13 0 1 0 8.26 0 a4.13 4.13 0 1 0 -8.26 0zM714.82 652.99L716.97 653.89L723.23 638.78L721.08 637.89zM718.02 638.33 a4.13 4.13 0 1 0 8.26 0 a4.13 4.13 0 1 0 -8.26 0zM729.5 662.26L731.15 663.91L740.27 654.79L738.62 653.14zM735.31 653.97 a4.13 4.13 0 1 0 8.26 0 a4.13 4.13 0 1 0 -8.26 0zM739.52 676.44L740.42 678.59L752.93 673.4L752.04 671.25zM748.36 672.33 a4.13 4.13 0 1 0 8.26 0 a4.13 4.13 0 1 0 -8.26 0zM654.38 694.53 a44.5 44.5 0 1 0 89 0 a44.5 44.5 0 1 0 -89 0z" fill="rgba(135, 136, 149, 1)"></path>
        <path d="M733.41 666.47 A43.496 43.496 0 0 1 706 738.46M706 738.46 A88.992 88.992 0 0 0 733.41 666.47" fill="#6b6c79" fill-rule="nonzero"></path>
        <path d="M657.48 679.7 a7.12 7.12 0 1 0 14.24 0 a7.12 7.12 0 1 0 -14.24 0zM683.46 681.77 a8.9 8.9 0 1 0 17.8 0 a8.9 8.9 0 1 0 -17.8 0zM732.24 691.88 a5.34 5.34 0 1 0 10.68 0 a5.34 5.34 0 1 0 -10.68 0zM682.2 716.77 a8.9 8.9 0 1 0 17.8 0 a8.9 8.9 0 1 0 -17.8 0zM718.85 665.21 a5.34 5.34 0 1 0 10.68 0 a5.34 5.34 0 1 0 -10.68 0zM707.91 691.88 a2.22 2.22 0 1 0 4.44 0 a2.22 2.22 0 1 0 -4.44 0zM660.94 716.57 a3.56 3.56 0 1 0 7.12 0 a3.56 3.56 0 1 0 -7.12 0zM703.44 731.14 a2.67 2.67 0 1 0 5.34 0 a2.67 2.67 0 1 0 -5.34 0zM677.8 660.28 a5.34 5.34 0 1 0 10.68 0 a5.34 5.34 0 1 0 -10.68 0zM709.89 716.73 a5.34 5.34 0 1 0 10.68 0 a5.34 5.34 0 1 0 -10.68 0z" fill="#6b6c79" fill-rule="nonzero"></path>
        <path d="M1166.73 750.07L1166.73 753.8L1199.21 753.8L1199.21 750.07zM1192.61 751.94 a6.6 6.6 0 1 0 13.2 0 a6.6 6.6 0 1 0 -13.2 0zM1162.03 777.45L1160.6 780.89L1183.82 790.51L1185.24 787.07zM1177.93 788.79 a6.6 6.6 0 1 0 13.2 0 a6.6 6.6 0 1 0 -13.2 0zM1147.2 800.94L1144.57 803.58L1152.28 811.29L1154.92 808.66zM1147 809.97 a6.6 6.6 0 1 0 13.2 0 a6.6 6.6 0 1 0 -13.2 0zM1124.52 816.97L1121.07 818.4L1130.59 841.38L1134.04 839.95zM1125.71 840.66 a6.6 6.6 0 1 0 13.2 0 a6.6 6.6 0 1 0 -13.2 0zM1097.42 823.1L1093.7 823.1L1093.7 832.83L1097.42 832.83zM1088.96 832.83 a6.6 6.6 0 1 0 13.2 0 a6.6 6.6 0 1 0 -13.2 0zM1070.05 818.4L1066.6 816.97L1061.8 828.56L1065.25 829.99zM1056.93 829.27 a6.6 6.6 0 1 0 13.2 0 a6.6 6.6 0 1 0 -13.2 0zM1046.55 803.58L1043.92 800.94L1030.96 813.9L1033.6 816.53zM1025.68 815.21 a6.6 6.6 0 1 0 13.2 0 a6.6 6.6 0 1 0 -13.2 0zM1030.52 780.89L1029.1 777.45L1003.11 788.21L1004.53 791.66zM997.22 789.94 a6.6 6.6 0 1 0 13.2 0 a6.6 6.6 0 1 0 -13.2 0zM1024.39 753.8L1024.39 750.07L1005.49 750.07L1005.49 753.8zM998.89 751.94 a6.6 6.6 0 1 0 13.2 0 a6.6 6.6 0 1 0 -13.2 0zM1029.1 726.42L1030.52 722.98L1016.16 717.03L1014.73 720.47zM1008.84 718.75 a6.6 6.6 0 1 0 13.2 0 a6.6 6.6 0 1 0 -13.2 0zM1043.92 702.93L1046.55 700.29L1025.09 678.83L1022.45 681.46zM1017.17 680.14 a6.6 6.6 0 1 0 13.2 0 a6.6 6.6 0 1 0 -13.2 0zM1066.6 686.9L1070.05 685.47L1063.39 669.4L1059.95 670.83zM1055.07 670.12 a6.6 6.6 0 1 0 13.2 0 a6.6 6.6 0 1 0 -13.2 0zM1093.7 680.77L1097.42 680.77L1097.42 657.62L1093.7 657.62zM1088.96 657.62 a6.6 6.6 0 1 0 13.2 0 a6.6 6.6 0 1 0 -13.2 0zM1121.07 685.47L1124.52 686.9L1133.68 664.78L1130.24 663.35zM1125.36 664.07 a6.6 6.6 0 1 0 13.2 0 a6.6 6.6 0 1 0 -13.2 0zM1144.57 700.29L1147.2 702.93L1165.98 684.16L1163.34 681.52zM1158.06 682.84 a6.6 6.6 0 1 0 13.2 0 a6.6 6.6 0 1 0 -13.2 0zM1160.6 722.98L1162.03 726.42L1187.37 715.92L1185.94 712.48zM1180.05 714.2 a6.6 6.6 0 1 0 13.2 0 a6.6 6.6 0 1 0 -13.2 0zM1024.37 751.94 a71.19 71.19 0 1 0 142.38 0 a71.19 71.19 0 1 0 -142.38 0z" fill="rgba(135, 136, 149, 1)"></path>
        <path d="M1161.56 778.64 A70.1936 70.1936 0 0 1 1039.53 795.85M1039.53 795.85 A142.3872 142.3872 0 0 0 1161.56 778.64" fill="#6b6c79" fill-rule="nonzero"></path>
        <path d="M1089.09 772.32 a14.24 14.24 0 1 0 28.48 0 a14.24 14.24 0 1 0 -28.48 0zM1120.47 732.69 a14.24 14.24 0 1 0 28.48 0 a14.24 14.24 0 1 0 -28.48 0zM1040.4 713.8 a14.24 14.24 0 1 0 28.48 0 a14.24 14.24 0 1 0 -28.48 0zM1082.21 703.62 a10.68 10.68 0 1 0 21.36 0 a10.68 10.68 0 1 0 -21.36 0zM1057.19 769.25 a8.54 8.54 0 1 0 17.08 0 a8.54 8.54 0 1 0 -17.08 0zM1124.54 698.47 a5.7 5.7 0 1 0 11.4 0 a5.7 5.7 0 1 0 -11.4 0zM1100.09 819.74 a2.85 2.85 0 1 0 5.7 0 a2.85 2.85 0 1 0 -5.7 0zM1131.93 775.39 a4.98 4.98 0 1 0 9.96 0 a4.98 4.98 0 1 0 -9.96 0zM1070.36 813.77 a6.41 6.41 0 1 0 12.82 0 a6.41 6.41 0 1 0 -12.82 0zM1032.98 758.49 a5.7 5.7 0 1 0 11.4 0 a5.7 5.7 0 1 0 -11.4 0z" fill="#6b6c79" fill-rule="nonzero"></path>
        <path d="M213.63 719.55L213.63 723.27L225.51 723.27L225.51 719.55zM218.91 721.41 a6.6 6.6 0 1 0 13.2 0 a6.6 6.6 0 1 0 -13.2 0zM208.92 746.92L207.5 750.37L236.81 762.51L238.24 759.07zM230.93 760.79 a6.6 6.6 0 1 0 13.2 0 a6.6 6.6 0 1 0 -13.2 0zM194.1 770.42L191.47 773.05L210.2 791.79L212.84 789.16zM204.92 790.47 a6.6 6.6 0 1 0 13.2 0 a6.6 6.6 0 1 0 -13.2 0zM171.42 786.45L167.97 787.88L178.76 813.93L182.21 812.5zM173.89 813.22 a6.6 6.6 0 1 0 13.2 0 a6.6 6.6 0 1 0 -13.2 0zM144.32 792.58L140.59 792.58L140.59 827.32L144.32 827.32zM135.86 827.32 a6.6 6.6 0 1 0 13.2 0 a6.6 6.6 0 1 0 -13.2 0zM116.95 787.88L113.5 786.45L110.06 794.76L113.5 796.19zM105.18 795.48 a6.6 6.6 0 1 0 13.2 0 a6.6 6.6 0 1 0 -13.2 0zM93.45 773.05L90.82 770.42L66.85 794.39L69.48 797.02zM61.56 795.71 a6.6 6.6 0 1 0 13.2 0 a6.6 6.6 0 1 0 -13.2 0zM77.42 750.37L75.99 746.92L63.96 751.91L65.39 755.35zM58.08 753.63 a6.6 6.6 0 1 0 13.2 0 a6.6 6.6 0 1 0 -13.2 0zM71.29 723.27L71.29 719.55L42.17 719.55L42.17 723.27zM35.57 721.41 a6.6 6.6 0 1 0 13.2 0 a6.6 6.6 0 1 0 -13.2 0zM75.99 695.9L77.42 692.45L50.97 681.5L49.54 684.94zM43.66 683.22 a6.6 6.6 0 1 0 13.2 0 a6.6 6.6 0 1 0 -13.2 0zM90.82 672.4L93.45 669.77L84.32 660.63L81.68 663.27zM76.4 661.95 a6.6 6.6 0 1 0 13.2 0 a6.6 6.6 0 1 0 -13.2 0zM113.5 656.37L116.95 654.95L106.5 629.72L103.05 631.15zM98.18 630.44 a6.6 6.6 0 1 0 13.2 0 a6.6 6.6 0 1 0 -13.2 0zM140.59 650.24L144.32 650.24L144.32 626.92L140.59 626.92zM135.86 626.92 a6.6 6.6 0 1 0 13.2 0 a6.6 6.6 0 1 0 -13.2 0zM167.97 654.95L171.42 656.37L177.76 641.05L174.32 639.63zM169.44 640.34 a6.6 6.6 0 1 0 13.2 0 a6.6 6.6 0 1 0 -13.2 0zM191.47 669.77L194.1 672.4L202.11 664.4L199.47 661.76zM194.19 663.08 a6.6 6.6 0 1 0 13.2 0 a6.6 6.6 0 1 0 -13.2 0zM207.5 692.45L208.92 695.9L231.51 686.54L230.09 683.1zM224.2 684.82 a6.6 6.6 0 1 0 13.2 0 a6.6 6.6 0 1 0 -13.2 0zM71.27 721.41 a71.19 71.19 0 1 0 142.38 0 a71.19 71.19 0 1 0 -142.38 0z" fill="rgba(205, 30, 53, 1)"></path>
        <path d="M108.66 658.75 A70.1936 70.1936 0 0 1 213.63 723.32M213.63 723.32 A142.3872 142.3872 0 0 0 108.66 658.75" fill="#a4182a" fill-rule="nonzero"></path>
        <path d="M132.52 754 a14.24 14.24 0 1 0 28.48 0 a14.24 14.24 0 1 0 -28.48 0zM183.43 730.42 a14.24 14.24 0 1 0 28.48 0 a14.24 14.24 0 1 0 -28.48 0zM86.74 759.66 a14.24 14.24 0 1 0 28.48 0 a14.24 14.24 0 1 0 -28.48 0zM102.25 727.64 a3.56 3.56 0 1 0 7.12 0 a3.56 3.56 0 1 0 -7.12 0zM121.47 689.84 a14.24 14.24 0 1 0 28.48 0 a14.24 14.24 0 1 0 -28.48 0zM166.28 681.06 a14.24 14.24 0 1 0 28.48 0 a14.24 14.24 0 1 0 -28.48 0zM180.89 769.22 a5.7 5.7 0 1 0 11.4 0 a5.7 5.7 0 1 0 -11.4 0zM100.22 686.9 a3.56 3.56 0 1 0 7.12 0 a3.56 3.56 0 1 0 -7.12 0zM80.7 707.68 a7.83 7.83 0 1 0 15.66 0 a7.83 7.83 0 1 0 -15.66 0zM146.75 655.61 a4.27 4.27 0 1 0 8.54 0 a4.27 4.27 0 1 0 -8.54 0z" fill="#a4182a" fill-rule="nonzero"></path>
        <path d="M146.88 426.52L146.88 429.31L156.49 429.31L156.49 426.52zM151.54 427.91 a4.95 4.95 0 1 0 9.9 0 a4.95 4.95 0 1 0 -9.9 0zM143.35 447.05L142.28 449.63L162.62 458.06L163.69 455.48zM158.21 456.77 a4.95 4.95 0 1 0 9.9 0 a4.95 4.95 0 1 0 -9.9 0zM132.23 464.67L130.26 466.65L139.21 475.6L141.19 473.62zM135.25 474.61 a4.95 4.95 0 1 0 9.9 0 a4.95 4.95 0 1 0 -9.9 0zM115.22 476.69L112.64 477.76L118.16 491.1L120.75 490.03zM114.5 490.57 a4.95 4.95 0 1 0 9.9 0 a4.95 4.95 0 1 0 -9.9 0zM94.9 481.29L92.1 481.29L92.1 492.66L94.9 492.66zM88.55 492.66 a4.95 4.95 0 1 0 9.9 0 a4.95 4.95 0 1 0 -9.9 0zM74.37 477.76L71.78 476.69L64.96 493.17L67.54 494.24zM61.3 493.7 a4.95 4.95 0 1 0 9.9 0 a4.95 4.95 0 1 0 -9.9 0zM56.75 466.65L54.77 464.67L38.19 481.25L40.17 483.23zM34.23 482.24 a4.95 4.95 0 1 0 9.9 0 a4.95 4.95 0 1 0 -9.9 0zM44.72 449.63L43.65 447.05L27.43 453.77L28.5 456.35zM23.01 455.06 a4.95 4.95 0 1 0 9.9 0 a4.95 4.95 0 1 0 -9.9 0zM40.12 429.31L40.12 426.52L31.36 426.52L31.36 429.31zM26.41 427.91 a4.95 4.95 0 1 0 9.9 0 a4.95 4.95 0 1 0 -9.9 0zM43.65 408.78L44.72 406.2L28.89 399.64L27.82 402.22zM23.4 400.93 a4.95 4.95 0 1 0 9.9 0 a4.95 4.95 0 1 0 -9.9 0zM54.77 391.16L56.75 389.18L50.33 382.77L48.36 384.75zM44.4 383.76 a4.95 4.95 0 1 0 9.9 0 a4.95 4.95 0 1 0 -9.9 0zM71.78 379.14L74.37 378.07L66.9 360.04L64.32 361.11zM60.66 360.58 a4.95 4.95 0 1 0 9.9 0 a4.95 4.95 0 1 0 -9.9 0zM92.1 374.54L94.9 374.54L94.9 355.37L92.1 355.37zM88.55 355.37 a4.95 4.95 0 1 0 9.9 0 a4.95 4.95 0 1 0 -9.9 0zM112.64 378.07L115.22 379.14L123.19 359.88L120.61 358.81zM116.95 359.35 a4.95 4.95 0 1 0 9.9 0 a4.95 4.95 0 1 0 -9.9 0zM130.26 389.18L132.23 391.16L138.49 384.9L136.51 382.92zM132.55 383.91 a4.95 4.95 0 1 0 9.9 0 a4.95 4.95 0 1 0 -9.9 0zM142.28 406.2L143.35 408.78L161.8 401.14L160.73 398.55zM156.32 399.85 a4.95 4.95 0 1 0 9.9 0 a4.95 4.95 0 1 0 -9.9 0zM40.1 427.91 a53.4 53.4 0 1 0 106.8 0 a53.4 53.4 0 1 0 -106.8 0z" fill="rgba(135, 136, 149, 1)"></path>
        <path d="M146.6 422.3 A52.3952 52.3952 0 0 1 71.92 476.75M71.92 476.75 A106.7904 106.7904 0 0 0 146.6 422.3" fill="#6b6c79" fill-rule="nonzero"></path>
        <path d="M46.19 449.87 a8.01 8.01 0 1 0 16.02 0 a8.01 8.01 0 1 0 -16.02 0zM69.64 463.53 a9.61 9.61 0 1 0 19.22 0 a9.61 9.61 0 1 0 -19.22 0zM84.56 418.9 a10.68 10.68 0 1 0 21.36 0 a10.68 10.68 0 1 0 -21.36 0zM71.13 407.24 a2.67 2.67 0 1 0 5.34 0 a2.67 2.67 0 1 0 -5.34 0zM89.78 444.06 a3.74 3.74 0 1 0 7.48 0 a3.74 3.74 0 1 0 -7.48 0zM121.63 454.82 a8.01 8.01 0 1 0 16.02 0 a8.01 8.01 0 1 0 -16.02 0zM109.55 399.05 a8.54 8.54 0 1 0 17.08 0 a8.54 8.54 0 1 0 -17.08 0zM42.55 414.14 a8.01 8.01 0 1 0 16.02 0 a8.01 8.01 0 1 0 -16.02 0zM86.16 387.75 a7.48 7.48 0 1 0 14.96 0 a7.48 7.48 0 1 0 -14.96 0zM114.19 430.87 a4.81 4.81 0 1 0 9.62 0 a4.81 4.81 0 1 0 -9.62 0z" fill="#6b6c79" fill-rule="nonzero"></path>
        <path d="M1400.12 437.38L1400.12 440.64L1422.34 440.64L1422.34 437.38zM1416.56 439.01 a5.78 5.78 0 1 0 11.56 0 a5.78 5.78 0 1 0 -11.56 0zM1396.01 461.33L1394.76 464.35L1406.72 469.3L1407.97 466.29zM1401.57 467.8 a5.78 5.78 0 1 0 11.56 0 a5.78 5.78 0 1 0 -11.56 0zM1383.04 481.89L1380.73 484.2L1388.45 491.91L1390.75 489.6zM1383.82 490.76 a5.78 5.78 0 1 0 11.56 0 a5.78 5.78 0 1 0 -11.56 0zM1363.19 495.92L1360.18 497.17L1364.88 508.53L1367.9 507.28zM1360.61 507.91 a5.78 5.78 0 1 0 11.56 0 a5.78 5.78 0 1 0 -11.56 0zM1339.48 501.28L1336.22 501.28L1336.22 517.64L1339.48 517.64zM1332.07 517.64 a5.78 5.78 0 1 0 11.56 0 a5.78 5.78 0 1 0 -11.56 0zM1315.53 497.17L1312.51 495.92L1307 509.23L1310.01 510.48zM1302.73 509.86 a5.78 5.78 0 1 0 11.56 0 a5.78 5.78 0 1 0 -11.56 0zM1294.97 484.2L1292.66 481.89L1272.62 501.93L1274.93 504.24zM1268 503.08 a5.78 5.78 0 1 0 11.56 0 a5.78 5.78 0 1 0 -11.56 0zM1280.94 464.35L1279.69 461.33L1256.21 471.06L1257.46 474.07zM1251.05 472.57 a5.78 5.78 0 1 0 11.56 0 a5.78 5.78 0 1 0 -11.56 0zM1275.58 440.64L1275.58 437.38L1253.76 437.38L1253.76 440.64zM1247.98 439.01 a5.78 5.78 0 1 0 11.56 0 a5.78 5.78 0 1 0 -11.56 0zM1279.69 416.68L1280.94 413.67L1269.45 408.91L1268.2 411.92zM1263.05 410.42 a5.78 5.78 0 1 0 11.56 0 a5.78 5.78 0 1 0 -11.56 0zM1292.66 396.13L1294.97 393.82L1283.52 382.37L1281.22 384.68zM1276.59 383.53 a5.78 5.78 0 1 0 11.56 0 a5.78 5.78 0 1 0 -11.56 0zM1312.51 382.1L1315.53 380.85L1306.18 358.28L1303.16 359.53zM1298.89 358.91 a5.78 5.78 0 1 0 11.56 0 a5.78 5.78 0 1 0 -11.56 0zM1336.22 376.74L1339.48 376.74L1339.48 360.73L1336.22 360.73zM1332.07 360.73 a5.78 5.78 0 1 0 11.56 0 a5.78 5.78 0 1 0 -11.56 0zM1360.18 380.85L1363.19 382.1L1370.08 365.47L1367.06 364.22zM1362.79 364.85 a5.78 5.78 0 1 0 11.56 0 a5.78 5.78 0 1 0 -11.56 0zM1380.73 393.82L1383.04 396.13L1403.76 375.41L1401.45 373.1zM1396.82 374.26 a5.78 5.78 0 1 0 11.56 0 a5.78 5.78 0 1 0 -11.56 0zM1394.76 413.67L1396.01 416.68L1415.75 408.51L1414.5 405.49zM1409.35 407 a5.78 5.78 0 1 0 11.56 0 a5.78 5.78 0 1 0 -11.56 0zM1275.56 439.01 a62.29 62.29 0 1 0 124.58 0 a62.29 62.29 0 1 0 -124.58 0z" fill="rgba(205, 30, 53, 1)"></path>
        <path d="M1398.05 455.05 A61.294399999999996 61.294399999999996 0 0 1 1293.96 483.21M1293.96 483.21 A124.58879999999999 124.58879999999999 0 0 0 1398.05 455.05" fill="#a4182a" fill-rule="nonzero"></path>
        <path d="M1325.42 409.16 a12.46 12.46 0 1 0 24.92 0 a12.46 12.46 0 1 0 -24.92 0zM1301.31 447.94 a12.46 12.46 0 1 0 24.92 0 a12.46 12.46 0 1 0 -24.92 0zM1337.38 381.71 a2.49 2.49 0 1 0 4.98 0 a2.49 2.49 0 1 0 -4.98 0zM1362.32 417.22 a6.23 6.23 0 1 0 12.46 0 a6.23 6.23 0 1 0 -12.46 0zM1311.84 389.26 a4.36 4.36 0 1 0 8.72 0 a4.36 4.36 0 1 0 -8.72 0zM1369 477.42 a7.48 7.48 0 1 0 14.96 0 a7.48 7.48 0 1 0 -14.96 0zM1334.18 482.65 a11.21 11.21 0 1 0 22.42 0 a11.21 11.21 0 1 0 -22.42 0zM1391.56 453.39 a3.11 3.11 0 1 0 6.22 0 a3.11 3.11 0 1 0 -6.22 0zM1283.09 410.12 a2.49 2.49 0 1 0 4.98 0 a2.49 2.49 0 1 0 -4.98 0zM1376.07 439.25 a4.36 4.36 0 1 0 8.72 0 a4.36 4.36 0 1 0 -8.72 0z" fill="#a4182a" fill-rule="nonzero"></path>
        <path d="M366.67 365.02L366.67 367.35L375.25 367.35L375.25 365.02zM371.12 366.18 a4.13 4.13 0 1 0 8.26 0 a4.13 4.13 0 1 0 -8.26 0zM363.73 382.13L362.84 384.28L376.7 390.02L377.59 387.87zM373.02 388.94 a4.13 4.13 0 1 0 8.26 0 a4.13 4.13 0 1 0 -8.26 0zM354.47 396.81L352.82 398.46L365.2 410.83L366.84 409.18zM361.89 410.01 a4.13 4.13 0 1 0 8.26 0 a4.13 4.13 0 1 0 -8.26 0zM340.29 406.83L338.14 407.72L346.47 427.84L348.63 426.95zM343.42 427.4 a4.13 4.13 0 1 0 8.26 0 a4.13 4.13 0 1 0 -8.26 0zM323.36 410.66L321.03 410.66L321.03 424.96L323.36 424.96zM318.06 424.96 a4.13 4.13 0 1 0 8.26 0 a4.13 4.13 0 1 0 -8.26 0zM306.25 407.72L304.1 406.83L298.81 419.6L300.96 420.49zM295.75 420.04 a4.13 4.13 0 1 0 8.26 0 a4.13 4.13 0 1 0 -8.26 0zM291.56 398.46L289.92 396.81L282.26 404.47L283.91 406.11zM278.95 405.29 a4.13 4.13 0 1 0 8.26 0 a4.13 4.13 0 1 0 -8.26 0zM281.54 384.28L280.65 382.13L272.84 385.36L273.73 387.52zM269.15 386.44 a4.13 4.13 0 1 0 8.26 0 a4.13 4.13 0 1 0 -8.26 0zM277.71 367.35L277.71 365.02L272.14 365.02L272.14 367.35zM268.01 366.18 a4.13 4.13 0 1 0 8.26 0 a4.13 4.13 0 1 0 -8.26 0zM280.65 350.23L281.54 348.08L267.34 342.2L266.45 344.35zM262.77 343.28 a4.13 4.13 0 1 0 8.26 0 a4.13 4.13 0 1 0 -8.26 0zM289.92 335.55L291.56 333.9L279.12 321.46L277.47 323.11zM274.17 322.28 a4.13 4.13 0 1 0 8.26 0 a4.13 4.13 0 1 0 -8.26 0zM304.1 325.53L306.25 324.64L303.65 318.38L301.5 319.27zM298.45 318.82 a4.13 4.13 0 1 0 8.26 0 a4.13 4.13 0 1 0 -8.26 0zM321.03 321.7L323.36 321.7L323.36 304.09L321.03 304.09zM318.06 304.09 a4.13 4.13 0 1 0 8.26 0 a4.13 4.13 0 1 0 -8.26 0zM338.14 324.64L340.29 325.53L344.6 315.14L342.44 314.25zM339.39 314.69 a4.13 4.13 0 1 0 8.26 0 a4.13 4.13 0 1 0 -8.26 0zM352.82 333.9L354.47 335.55L361.82 328.2L360.17 326.56zM356.86 327.38 a4.13 4.13 0 1 0 8.26 0 a4.13 4.13 0 1 0 -8.26 0zM362.84 348.08L363.73 350.23L369.94 347.66L369.05 345.51zM365.37 346.59 a4.13 4.13 0 1 0 8.26 0 a4.13 4.13 0 1 0 -8.26 0zM277.69 366.18 a44.5 44.5 0 1 0 89 0 a44.5 44.5 0 1 0 -89 0z" fill="rgba(135, 136, 149, 1)"></path>
        <path d="M313.52 409.82 A43.496 43.496 0 0 1 288.67 336.92M288.67 336.92 A88.992 88.992 0 0 0 313.52 409.82" fill="#6b6c79" fill-rule="nonzero"></path>
        <path d="M306.46 352.01 a8.9 8.9 0 1 0 17.8 0 a8.9 8.9 0 1 0 -17.8 0zM360.97 364.13 a2.67 2.67 0 1 0 5.34 0 a2.67 2.67 0 1 0 -5.34 0zM314.77 324.91 a2.67 2.67 0 1 0 5.34 0 a2.67 2.67 0 1 0 -5.34 0zM280.26 351.71 a1.78 1.78 0 1 0 3.56 0 a1.78 1.78 0 1 0 -3.56 0zM294.83 369.54 a5.34 5.34 0 1 0 10.68 0 a5.34 5.34 0 1 0 -10.68 0zM340.62 379.76 a8.9 8.9 0 1 0 17.8 0 a8.9 8.9 0 1 0 -17.8 0zM304.1 401.47 a7.56 7.56 0 1 0 15.12 0 a7.56 7.56 0 1 0 -15.12 0zM351.14 347.68 a5.34 5.34 0 1 0 10.68 0 a5.34 5.34 0 1 0 -10.68 0zM294.25 348.38 a1.78 1.78 0 1 0 3.56 0 a1.78 1.78 0 1 0 -3.56 0zM335.47 363.13 a2.22 2.22 0 1 0 4.44 0 a2.22 2.22 0 1 0 -4.44 0z" fill="#6b6c79" fill-rule="nonzero"></path>
        <path d="M193.83 188.75L193.83 191.07L202.41 191.07L202.41 188.75zM198.28 189.91 a4.13 4.13 0 1 0 8.26 0 a4.13 4.13 0 1 0 -8.26 0zM190.89 205.86L189.99 208.01L209.11 215.93L210 213.77zM205.43 214.85 a4.13 4.13 0 1 0 8.26 0 a4.13 4.13 0 1 0 -8.26 0zM181.62 220.54L179.97 222.19L194.58 236.8L196.23 235.15zM191.28 235.97 a4.13 4.13 0 1 0 8.26 0 a4.13 4.13 0 1 0 -8.26 0zM167.44 230.56L165.29 231.45L170.77 244.67L172.92 243.78zM167.71 244.23 a4.13 4.13 0 1 0 8.26 0 a4.13 4.13 0 1 0 -8.26 0zM150.51 234.39L148.18 234.39L148.18 252.15L150.51 252.15zM145.22 252.15 a4.13 4.13 0 1 0 8.26 0 a4.13 4.13 0 1 0 -8.26 0zM133.4 231.45L131.25 230.56L124.37 247.16L126.52 248.05zM121.32 247.61 a4.13 4.13 0 1 0 8.26 0 a4.13 4.13 0 1 0 -8.26 0zM118.72 222.19L117.07 220.54L104 233.61L105.65 235.25zM100.7 234.43 a4.13 4.13 0 1 0 8.26 0 a4.13 4.13 0 1 0 -8.26 0zM108.7 208.01L107.8 205.86L90.34 213.09L91.23 215.24zM86.66 214.16 a4.13 4.13 0 1 0 8.26 0 a4.13 4.13 0 1 0 -8.26 0zM104.86 191.07L104.86 188.75L85.97 188.75L85.97 191.07zM81.84 189.91 a4.13 4.13 0 1 0 8.26 0 a4.13 4.13 0 1 0 -8.26 0zM107.8 173.96L108.7 171.81L100.94 168.6L100.04 170.75zM96.36 169.67 a4.13 4.13 0 1 0 8.26 0 a4.13 4.13 0 1 0 -8.26 0zM117.07 159.28L118.72 157.63L107.76 146.67L106.11 148.32zM102.8 147.5 a4.13 4.13 0 1 0 8.26 0 a4.13 4.13 0 1 0 -8.26 0zM131.25 149.26L133.4 148.37L131 142.58L128.85 143.47zM125.79 143.02 a4.13 4.13 0 1 0 8.26 0 a4.13 4.13 0 1 0 -8.26 0zM148.18 145.43L150.51 145.43L150.51 129.2L148.18 129.2zM145.22 129.2 a4.13 4.13 0 1 0 8.26 0 a4.13 4.13 0 1 0 -8.26 0zM165.29 148.37L167.44 149.26L169.92 143.28L167.77 142.39zM164.71 142.84 a4.13 4.13 0 1 0 8.26 0 a4.13 4.13 0 1 0 -8.26 0zM179.97 157.63L181.62 159.28L186.32 154.58L184.68 152.93zM181.37 153.76 a4.13 4.13 0 1 0 8.26 0 a4.13 4.13 0 1 0 -8.26 0zM189.99 171.81L190.89 173.96L196.73 171.54L195.84 169.39zM192.16 170.47 a4.13 4.13 0 1 0 8.26 0 a4.13 4.13 0 1 0 -8.26 0zM104.85 189.91 a44.5 44.5 0 1 0 89 0 a44.5 44.5 0 1 0 -89 0z" fill="rgba(135, 136, 149, 1)"></path>
        <path d="M105.56 197.82 A43.496 43.496 0 0 1 164.3 148M164.3 148 A88.992 88.992 0 0 0 105.56 197.82" fill="#6b6c79" fill-rule="nonzero"></path>
        <path d="M166.36 197.97 a8.9 8.9 0 1 0 17.8 0 a8.9 8.9 0 1 0 -17.8 0zM154.59 203.36 a1.78 1.78 0 1 0 3.56 0 a1.78 1.78 0 1 0 -3.56 0zM141.4 216.57 a5.34 5.34 0 1 0 10.68 0 a5.34 5.34 0 1 0 -10.68 0zM164.6 171.47 a8.45 8.45 0 1 0 16.9 0 a8.45 8.45 0 1 0 -16.9 0zM105.33 192.44 a4 4 0 1 0 8 0 a4 4 0 1 0 -8 0zM117.6 219.12 a4.45 4.45 0 1 0 8.9 0 a4.45 4.45 0 1 0 -8.9 0zM144.79 186.51 a6.67 6.67 0 1 0 13.34 0 a6.67 6.67 0 1 0 -13.34 0zM161.67 150.68 a2.22 2.22 0 1 0 4.44 0 a2.22 2.22 0 1 0 -4.44 0zM144.13 163.75 a6.23 6.23 0 1 0 12.46 0 a6.23 6.23 0 1 0 -12.46 0zM116.37 172.5 a8.9 8.9 0 1 0 17.8 0 a8.9 8.9 0 1 0 -17.8 0z" fill="#6b6c79" fill-rule="nonzero"></path>
    </g>
    <defs>
        <mask id="SvgjsMask1036">
            <rect width="1440" height="900" fill="#ffffff"></rect>
        </mask>
    </defs>
</svg>