<svg xmlns:mydata="http://www.w3.org/2000/svg" xmlns="http://www.w3.org/2000/svg"
     xmlns:xlink="http://www.w3.org/1999/xlink" mydata:contrastcolor="fbbfc6"
     mydata:template="BlackAndHighlightColorHex1" mydata:presentation="2.5" mydata:layouttype="undefined"
     mydata:specialfontid="undefined" mydata:id1="001" mydata:id2="682" mydata:companyname="Luix Passport"
     mydata:companytagline="" version="1.1" class="svg-mug" viewBox="172.08 106 205.84 258">
    <g fill="#f4364c" fill-rule="evenodd" stroke="none" stroke-width="1" stroke-linecap="butt" stroke-linejoin="miter"
       stroke-miterlimit="10" stroke-dasharray="" stroke-dashoffset="0" font-family="none" font-weight="none"
       font-size="none" text-anchor="none" style="mix-blend-mode: normal; fill: rgb(255, 255, 255);">
        <g data-paper-data="{&quot;isGlobalGroup&quot;:true,&quot;bounds&quot;:{&quot;x&quot;:172.08230713933227,&quot;y&quot;:106,&quot;width&quot;:205.83538572133546,&quot;height&quot;:258}}"
           style="fill: rgb(255, 255, 255);">
            <g data-paper-data="{&quot;isContainerElementsWrapper&quot;:true}" style="fill: rgb(255, 255, 255);">
                <path d="M181.25508,116.73574c0.22542,-0.1127 0.46226,-0.19079 0.71051,-0.23427h0.00001c62.03836,-10.86623 124.07681,-10.86621 186.11535,0.00006c0.24865,0.04347 0.48511,0.12154 0.70939,0.23421c3.41285,1.70623 5.50932,4.1199 6.2894,7.24101c0.01365,0.05425 0.02584,0.1099 0.03657,0.16693c0.30911,1.71993 0.45878,21.5655 0.44903,59.5367c-0.01073,37.97637 -0.17064,58.66981 -0.47975,62.08032c-0.0039,0.03501 -0.00829,0.07177 -0.01316,0.11028c-1.58649,12.06307 -5.27676,24.66434 -11.07081,37.80382c-5.86816,13.30525 -12.86694,24.80412 -20.99635,34.49662c-15.85348,18.49571 -35.52048,32.30898 -59.001,41.43983c-3.45663,1.38367 -6.45039,2.06234 -8.98126,2.03601c-2.59445,0 -5.5806,-0.67526 -8.95844,-2.02577c-23.49671,-9.13864 -43.17741,-22.96265 -59.0421,-41.47201c-8.11674,-9.6769 -15.10909,-21.16846 -20.97705,-34.47468c-5.79437,-13.13948 -9.48516,-25.74085 -11.07238,-37.80412c-0.00349,-0.02652 -0.00657,-0.05314 -0.00924,-0.07986c-0.34294,-3.42943 -0.51947,-24.13291 -0.52957,-62.11045c-0.01011,-37.98885 0.15831,-57.85064 0.50526,-59.58537c0.02105,-0.10529 0.04856,-0.20886 0.08251,-0.31071c1.04855,-3.14563 3.12625,-5.49515 6.2331,-7.04856zM368.48464,114.18516c-62.30757,-10.91356 -124.61582,-10.91354 -186.92475,0.00006h0.00001c-0.47395,0.08301 -0.9261,0.23211 -1.35645,0.44729c-3.68766,1.8438 -6.15843,4.64653 -7.41232,8.40818c-0.06481,0.19444 -0.11731,0.39215 -0.15751,0.59312c-0.37744,1.88726 -0.56108,21.90298 -0.55092,60.04716c0.01012,38.05555 0.19053,58.83684 0.54124,62.34389c0.00511,0.0511 0.01102,0.10209 0.01773,0.15299c1.61649,12.28559 5.36722,25.1005 11.25217,38.44476c5.95826,13.51099 13.06723,25.19075 21.32691,35.03927c16.13207,18.82139 36.12919,32.87162 59.99136,42.15068c3.64444,1.45778 6.91473,2.18666 9.81088,2.18666c2.82516,0.02828 6.11018,-0.70695 9.85505,-2.20568c23.8337,-9.26736 43.80425,-23.29808 59.91165,-42.09217c8.28348,-9.87387 15.40464,-21.56679 21.36348,-35.07876c5.88473,-13.34523 9.63497,-26.16024 11.25071,-38.44505c0.00878,-0.06133 0.01609,-0.12472 0.02194,-0.19014c0.31691,-3.49037 0.48072,-24.25919 0.49145,-62.30645c0.00975,-38.10742 -0.1526,-58.09181 -0.48706,-59.95317c-0.0195,-0.10854 -0.04242,-0.21688 -0.06874,-0.32502c-0.9556,-3.81824 -3.46161,-6.74167 -7.51803,-8.77027c-0.43099,-0.21522 -0.88393,-0.36434 -1.3588,-0.44735z"
                      data-paper-data="{&quot;isOuterDoubleOutline&quot;:true}" style="fill: rgb(244, 54, 76);"></path>
                <path d="M177.47589,124.60227c0.617,-1.85098 2.46798,-4.31897 4.93597,-5.55295c61.27428,-10.73239 123.94785,-10.73239 185.22152,0c2.46895,1.23398 4.31921,3.08498 4.93645,5.55295c0.55581,3.08505 0.55581,114.14429 -0.06143,120.93128c-3.08473,23.446 -15.42512,51.82728 -31.46747,70.95437c-14.80788,17.27537 -35.78522,32.08325 -57.99704,40.72167c-3.08502,1.23448 -5.55295,1.87512 -8.02089,1.85172c-2.46808,0 -4.93601,-0.61724 -8.02103,-1.85172c-22.21182,-8.63842 -43.18974,-23.4463 -57.99762,-40.72167c-16.04192,-19.12709 -28.38178,-47.50837 -31.46675,-70.95437c-0.67869,-6.78699 -0.67869,-117.84623 -0.0617,-120.93128zM276.65005,161.01076h-2.72068l-0.78895,-1.60994h-5.8117l-0.77272,1.60994h-2.57587l6.32699,-12.20319zM283.78735,155.69797c1.15915,0.12886 1.80301,0.72445 1.80301,1.69039c0,0.77286 -0.64386,1.43281 -1.46499,1.43281c-0.70836,0 -1.27178,-0.17698 -1.8191,-0.86925l-2.06073,1.51326c1.14306,1.25569 2.51137,1.75489 3.87983,1.75489c2.109,0 4.05696,-1.67444 4.05696,-4.00869c0,-2.3183 -1.69039,-3.70285 -3.73488,-3.83156c-1.27192,-0.08059 -1.6743,-0.57965 -1.6743,-1.12697c0,-0.66009 0.45064,-1.06262 1.11074,-1.06262c0.41861,0 0.94985,0.25772 1.27192,0.59574l1.96405,-1.43281c-0.91767,-1.09479 -2.04464,-1.54558 -3.23597,-1.54558c-1.65821,0 -3.52572,1.43281 -3.52572,3.46136c0,1.8836 1.35237,3.18756 3.42919,3.42904zM297.71837,157.38836c0,-0.96593 -0.64401,-1.56153 -1.80316,-1.69039c-2.07667,-0.24148 -3.42904,-1.54544 -3.42904,-3.42904c0,-2.02855 1.86751,-3.46136 3.52572,-3.46136c1.19133,0 2.31816,0.45079 3.23582,1.54558l-1.96405,1.43281c-0.32193,-0.33802 -0.85316,-0.59574 -1.27178,-0.59574c-0.66009,0 -1.11088,0.40252 -1.11088,1.06262c0,0.54732 0.40252,1.04638 1.6743,1.12697c2.04464,0.12871 3.73503,1.51326 3.73503,3.83156c0,2.33424 -1.94796,4.00869 -4.05696,4.00869c-1.36846,0 -2.73691,-0.4992 -3.87997,-1.75489l2.06073,-1.51326c0.54732,0.69227 1.11088,0.86925 1.81925,0.86925c0.82099,0 1.46499,-0.65995 1.46499,-1.43281zM331.29528,155.0057c0,3.42919 -2.7688,6.21437 -6.19725,6.21437c-3.44571,0 -6.2148,-2.78518 -6.2148,-6.21437c0,-3.42904 2.76909,-6.19813 6.19871,-6.19813c3.44454,0 6.21334,2.76909 6.21334,6.19813zM192.30716,161.01076v-11.99388h2.49543v9.73994h4.82967v2.25395zM214.36818,155.66579c0,3.49354 -1.94796,5.55427 -5.1516,5.55427c-3.50963,0 -5.18393,-2.43107 -5.18393,-5.76358v-6.43961h2.49543v6.85822c0,1.8836 0.91752,2.94607 2.6885,2.94607c1.85142,0 2.65632,-1.14292 2.65632,-2.94607v-6.85822h2.49528zM222.39097,149.01687h-2.49543v11.99388h2.49543zM226.90398,161.01076l3.8478,-6.16595l-3.81547,-5.82793h2.81721l2.59196,4.00869l2.52761,-4.00869h2.64023l-3.59008,5.68298l4.10522,6.3109h-2.80127l-2.8978,-4.45948l-2.78518,4.45948zM255.18463,161.01076v-2.07682h1.43281c3.17161,0 5.21611,-2.12509 5.21611,-5.20002c0,-2.60805 -2.15726,-4.71705 -4.97462,-4.71705h-4.16958v11.99388zM307.83392,161.01076v-2.07682h1.43281c3.17147,0 5.21611,-2.12509 5.21611,-5.20002c0,-2.60805 -2.15726,-4.71705 -4.97462,-4.71705h-4.16958v11.99388zM340.1882,158.93394l1.96288,2.07682h3.31729l-2.59182,-2.76909c1.67327,-0.77272 2.70444,-2.35048 2.70444,-4.50774c0,-2.60805 -2.15741,-4.71705 -4.97448,-4.71705h-4.17002v11.99388h2.49528v-2.07682zM354.5368,151.27082v9.73994h-2.49528v-9.73994h-2.96187v-2.25395h8.61355v2.25395zM328.73564,155.0057c0,-2.10885 -1.62647,-3.81547 -3.6537,-3.81547c-2.04479,0 -3.63893,1.70662 -3.63893,3.81547c0,2.14117 1.59414,3.81547 3.65502,3.81547c2.02723,0 3.63761,-1.6743 3.63761,-3.81547zM255.18463,156.67999v-5.40918h1.5134c1.73865,0 2.62414,1.19133 2.62414,2.65632c0,1.6743 -0.99811,2.75286 -2.76909,2.75286zM307.83392,156.67999v-5.40918h1.51326c1.7388,0 2.62414,1.19133 2.62414,2.65632c0,1.6743 -0.99811,2.75286 -2.76894,2.75286zM338.93178,156.67999v-5.40918h1.51384c1.73763,0 2.624,1.19133 2.624,2.65632c0,1.6743 -0.99899,2.75286 -2.7688,2.75286zM272.04577,157.14687l-1.83533,-3.73488l-1.80301,3.73488zM318.25721,220.38415c-6.83585,0.03262 -12.9351,2.06702 -18.29776,6.10306c4.05564,-5.39236 6.08346,-11.55509 6.08346,-18.48791c0.0019,-8.55826 -3.03091,-15.87196 -9.09871,-21.94137c-6.06869,-6.07015 -13.38399,-9.10529 -21.94605,-9.10529c-8.55982,0 -15.87435,3.03515 -21.94357,9.10544c-6.06873,6.0699 -9.1031,13.38423 -9.1031,21.94298c0.00176,6.89874 2.03455,13.0508 6.09794,18.45588c-5.39718,-4.05359 -11.55626,-6.08039 -18.47694,-6.08039c-8.55973,0 -15.87425,3.0351 -21.94357,9.10529c-6.06873,6.06942 -9.1031,13.38321 -9.1031,21.94137c0,8.56343 3.03437,15.88015 9.1031,21.95015c6.06834,6.06903 13.38287,9.10354 21.94357,9.10354c0.03935,0 0.07869,-0.00146 0.11804,-0.00293c6.8493,-0.0234 12.96114,-2.056 18.3355,-6.09779c-4.0533,5.39816 -6.07995,11.55689 -6.07995,18.47621c0.00088,8.5609 3.03602,15.87415 9.105,21.94415c6.06986,6.07 13.3856,9.105 21.94708,9.105c8.56163,0 15.87693,-3.035 21.94591,-9.105c6.06839,-6.07 9.10252,-13.38472 9.10252,-21.94562c0,-0.03949 -0.00132,-0.07898 -0.0038,-0.11847c-0.02311,-6.85252 -2.05985,-12.96933 -6.11008,-18.35042c5.39806,4.06178 11.56299,6.0934 18.49478,6.0934c8.56031,0.00146 15.87503,-3.03354 21.94357,-9.10208c6.06854,-6.06854 9.10354,-13.38179 9.10354,-21.94284c0,-8.56163 -3.035,-15.87752 -9.10354,-21.94781c-6.07,-6.07078 -13.38574,-9.10617 -21.94722,-9.10617c-0.05573,0 -0.11116,0.00263 -0.1666,0.00761zM318.58162,224.00977c-0.05251,0.00468 -0.10516,0.00687 -0.15782,0.00687c-6.74721,0 -12.68484,2.20261 -17.81275,6.60753c-0.08615,0.07386 -0.1783,0.1391 -0.27659,0.19585c-0.09844,0.0566 -0.20111,0.1037 -0.30833,0.14115c-0.10707,0.03744 -0.21662,0.0645 -0.32895,0.08132c-0.11219,0.01682 -0.2251,0.02311 -0.33846,0.01887c-0.11336,-0.00424 -0.22539,-0.01901 -0.33597,-0.04432c-0.11072,-0.0253 -0.21808,-0.06055 -0.32208,-0.10604c-0.10399,-0.04534 -0.20287,-0.10005 -0.29663,-0.16396c-0.09376,-0.06392 -0.18078,-0.13603 -0.26108,-0.21633l-2.22689,-2.22703c-0.0803,-0.0803 -0.15241,-0.16733 -0.21633,-0.26094c-0.06392,-0.0939 -0.11862,-0.19278 -0.16411,-0.29692c-0.04534,-0.10399 -0.08074,-0.21135 -0.10604,-0.32208c-0.0253,-0.11058 -0.04008,-0.22262 -0.04432,-0.33597c-0.00424,-0.1135 0.00205,-0.22627 0.01887,-0.3386c0.01697,-0.11219 0.04417,-0.22188 0.08162,-0.3291c0.03744,-0.10721 0.08439,-0.20989 0.14115,-0.30833c0.05675,-0.09829 0.12213,-0.19044 0.19614,-0.27659c4.39132,-5.1086 6.58705,-11.05384 6.58705,-17.83586c0.00161,-7.55547 -2.67665,-14.01293 -8.03507,-19.37267c-5.35925,-5.36071 -11.81822,-8.04107 -19.37691,-8.04107c-7.55654,0 -14.01473,2.68041 -19.37457,8.04122c-5.35945,5.36042 -8.03917,11.81856 -8.03917,19.37442c0.00166,6.74672 2.2048,12.68504 6.60943,17.81494c0.07386,0.086 0.1391,0.17815 0.19585,0.27644c0.0566,0.09814 0.10356,0.20082 0.141,0.30789c0.0373,0.10707 0.0645,0.21662 0.08132,0.32895c0.01682,0.11219 0.02311,0.22481 0.01887,0.33802c-0.00424,0.11336 -0.01901,0.22525 -0.04432,0.33582c-0.02516,0.11058 -0.06041,0.21793 -0.10575,0.32193c-0.0452,0.10385 -0.09975,0.20272 -0.16367,0.29648c-0.06377,0.09376 -0.13573,0.18078 -0.21589,0.26094l-2.22147,2.22513c-0.08035,0.08045 -0.16738,0.1527 -0.26108,0.21676c-0.09376,0.06392 -0.19263,0.11862 -0.29663,0.16426c-0.10399,0.04549 -0.21135,0.08088 -0.32208,0.10619c-0.11072,0.02545 -0.22276,0.04037 -0.33626,0.04476c-0.11336,0.00424 -0.22627,-0.0019 -0.33846,-0.01872c-0.11233,-0.01682 -0.22203,-0.04403 -0.32924,-0.08147c-0.10721,-0.0373 -0.21004,-0.08439 -0.30833,-0.14115c-0.09844,-0.0566 -0.19073,-0.12184 -0.27688,-0.1957c-5.1186,-4.39546 -11.06471,-6.59319 -17.83835,-6.59319c-7.55644,0 -14.01463,2.68036 -19.37457,8.04107c-5.35945,5.36013 -8.03917,11.81768 -8.03917,19.37267c0,7.56059 2.67972,14.02112 8.03917,19.38173c5.33253,5.33283 11.75342,8.0124 19.26267,8.03873c0.0373,-0.00146 0.0746,-0.00293 0.11189,-0.00293c6.74589,0 12.68411,-2.20422 17.8145,-6.61118c0.08615,-0.0746 0.17844,-0.13895 0.27688,-0.196c0.09829,-0.05704 0.20111,-0.10385 0.30818,-0.14188c0.10736,-0.03657 0.21706,-0.06436 0.32939,-0.08045c0.11219,-0.01755 0.2251,-0.0234 0.3386,-0.01901c0.1135,0.00439 0.22554,0.01901 0.33612,0.04534c0.11072,0.02487 0.21823,0.05997 0.32237,0.10531c0.10399,0.04534 0.20287,0.10092 0.29663,0.16382c0.09361,0.06436 0.18064,0.13749 0.26094,0.21793l2.22147,2.22469c0.08015,0.08045 0.15197,0.16674 0.21589,0.26035c0.06392,0.09361 0.11847,0.19307 0.16382,0.29692c0.04534,0.10385 0.08059,0.21062 0.10575,0.32178c0.0253,0.11116 0.04008,0.22232 0.04432,0.33641c0.00424,0.11262 -0.00205,0.22525 -0.01887,0.33787c-0.01682,0.11262 -0.04403,0.22086 -0.08147,0.3291c-0.0373,0.10677 -0.08425,0.20916 -0.141,0.30716c-0.05646,0.098 -0.12169,0.19014 -0.19556,0.27644c-4.39429,5.11928 -6.59144,11.06495 -6.59144,17.83703c0.00073,7.55752 2.68119,14.01512 8.04122,19.37574c5.36032,5.35915 11.81968,8.04019 19.37793,8.04019c7.5584,0 14.01732,-2.68104 19.37691,-8.04166c5.33268,-5.33283 8.01226,-11.75533 8.03844,-19.26458c-0.00224,-0.03705 -0.00336,-0.07411 -0.00336,-0.11116c0,-6.74136 -2.20319,-12.67826 -6.60972,-17.81216c-0.07386,-0.08483 -0.1391,-0.17698 -0.19585,-0.27644c-0.05646,-0.098 -0.10356,-0.20038 -0.14085,-0.30716c-0.0373,-0.10824 -0.06436,-0.21793 -0.08132,-0.3291c-0.01682,-0.11262 -0.02311,-0.22525 -0.01887,-0.33787c0.00439,-0.11409 0.01916,-0.22525 0.04432,-0.33641c0.0253,-0.11116 0.0607,-0.21793 0.1059,-0.32178c0.04549,-0.10385 0.10019,-0.20331 0.16411,-0.29692c0.06377,-0.09361 0.13573,-0.17991 0.21589,-0.26035l2.22703,-2.22908c0.0803,-0.08045 0.16733,-0.15212 0.26094,-0.21647c0.0939,-0.06436 0.19287,-0.11896 0.29692,-0.16382c0.10399,-0.04534 0.21135,-0.08191 0.32208,-0.10677c0.11058,-0.02487 0.22276,-0.03949 0.33612,-0.04388c0.1135,-0.00439 0.22642,0.00146 0.3386,0.01901c0.11233,0.01609 0.22203,0.04388 0.3291,0.08045c0.10721,0.03803 0.21004,0.08483 0.30833,0.14188c0.09844,0.05704 0.19073,0.1214 0.27673,0.196c5.11416,4.39527 11.06013,6.59217 17.83791,6.59217c7.55664,0.00098 14.01502,-2.67811 19.37515,-8.03727c5.35915,-5.35915 8.03873,-11.81729 8.03873,-19.37442c0,-7.55849 -2.68006,-14.01819 -8.04019,-19.3791c-5.32259,-5.32405 -11.729,-8.0045 -19.21953,-8.04166zM282.17492,208.00105c0,1.98667 -0.69993,3.67769 -2.09978,5.07306l-0.00219,0.00219c-0.17025,0.1704 -0.3016,0.36683 -0.39375,0.58945c-0.09215,0.22247 -0.13822,0.45401 -0.13822,0.69491c0,0.24104 0.04622,0.47273 0.13851,0.6952c0.09215,0.22247 0.22335,0.4189 0.39375,0.58916l6.36297,6.36122l0.00015,0.00015c0.08439,0.08439 0.17625,0.15958 0.27542,0.22583c0.09917,0.06626 0.20389,0.12213 0.31403,0.16791c0.11028,0.04563 0.22379,0.08001 0.3408,0.10312c0.11701,0.02326 0.23519,0.03481 0.3544,0.03481c0.11935,0 0.23739,-0.01155 0.3544,-0.03496c0.11701,-0.02326 0.23051,-0.05777 0.34051,-0.10341c0.11028,-0.04563 0.21501,-0.10165 0.31418,-0.16806c0.09917,-0.06611 0.19088,-0.14144 0.27512,-0.22598c3.86506,-3.8671 5.79751,-8.5353 5.79751,-14.00444c0,-5.46812 -1.93333,-10.13559 -5.8,-14.00225c-3.8671,-3.8671 -8.5353,-5.80073 -14.00459,-5.80073c-5.46797,0 -10.13544,1.93333 -14.00225,5.8c-3.86535,3.86491 -5.79883,8.53003 -5.80058,13.99523v0.0098c0.00176,5.46373 1.93567,10.13076 5.80146,14.00108l5.07686,5.07642l-29.42605,29.41728c-1.40824,1.40341 -3.10184,2.10549 -5.08066,2.10549c-0.03554,0 -0.07123,0.00146 -0.10677,0.00293c-4.70964,-0.039 -7.06446,-2.43341 -7.06446,-7.18323c0,-4.78209 2.39226,-7.17313 7.17679,-7.17313c1.98062,0 3.67311,0.70144 5.07745,2.10432c0.08425,0.08425 0.17596,0.15958 0.27512,0.22569c0.09931,0.06611 0.20404,0.12213 0.31432,0.16777c0.11014,0.04549 0.22364,0.08001 0.34051,0.10326c0.11701,0.02311 0.23519,0.03466 0.3544,0.03466c0.11935,0 0.23739,-0.0117 0.3544,-0.0351c0.11687,-0.02326 0.23037,-0.05777 0.34065,-0.10356c0.11014,-0.04563 0.21472,-0.10151 0.31388,-0.16777c0.09917,-0.06626 0.19088,-0.14158 0.27512,-0.22598l6.36122,-6.36487l0.00073,-0.00073c0.08425,-0.08439 0.15943,-0.1761 0.22554,-0.27527c0.06626,-0.09931 0.12213,-0.20419 0.16777,-0.31432c0.04554,-0.11019 0.07991,-0.22379 0.10312,-0.3408c0.02311,-0.11687 0.03466,-0.23505 0.03452,-0.3544c-0.00015,-0.11921 -0.01185,-0.23739 -0.03525,-0.3544c-0.0234,-0.11687 -0.05792,-0.23051 -0.10356,-0.34065c-0.04578,-0.11014 -0.1018,-0.21472 -0.1682,-0.31388c-0.0664,-0.09902 -0.14173,-0.19073 -0.22613,-0.27498c-3.87091,-3.86462 -8.53954,-5.79692 -14.00561,-5.79692c-5.46944,0 -10.13734,1.93333 -14.00371,5.7997c-3.86618,3.86618 -5.79926,8.5333 -5.79926,14.00137c0,5.47002 1.93275,10.13924 5.79809,14.00649c3.86652,3.86871 8.53471,5.8038 14.00488,5.8038c0.04008,0 0.08001,-0.00146 0.11994,-0.00439c5.41108,-0.02925 10.03876,-1.96288 13.88319,-5.80087l5.07423,-5.07394l29.41728,29.41976c1.404,1.41292 2.10592,3.10667 2.10592,5.08417c0,0.0351 0.00102,0.07167 0.00307,0.10677c-0.0392,4.70827 -2.4318,7.06314 -7.17796,7.06314c-4.78453,0 -7.17679,-2.39241 -7.17679,-7.17723c0,-1.98189 0.70046,-3.67418 2.10139,-5.07832c0.08425,-0.08483 0.15928,-0.17552 0.22539,-0.27498c0.06626,-0.09946 0.12199,-0.20477 0.16747,-0.31447c0.04563,-0.1097 0.08001,-0.22379 0.10312,-0.3408c0.02326,-0.11701 0.03481,-0.23549 0.03466,-0.35396c-0.00015,-0.11994 -0.01185,-0.23695 -0.0351,-0.35396c-0.0234,-0.11701 -0.05792,-0.2311 -0.10356,-0.3408c-0.04563,-0.1097 -0.10151,-0.21501 -0.16777,-0.31447c-0.0664,-0.098 -0.14173,-0.19014 -0.22598,-0.27498l-6.36122,-6.35668c-0.08425,-0.08483 -0.17596,-0.15943 -0.27512,-0.22671c-0.09917,-0.06582 -0.20389,-0.1214 -0.31388,-0.16674c-0.11028,-0.04534 -0.22379,-0.08045 -0.3408,-0.10385c-0.11687,-0.0234 -0.2349,-0.0351 -0.35425,-0.0351c-0.11921,0 -0.23724,0.0117 -0.35411,0.0351c-0.11701,0.0234 -0.23066,0.05851 -0.3408,0.10385c-0.11014,0.04534 -0.21472,0.10092 -0.31388,0.16674c-0.09917,0.06728 -0.19088,0.14188 -0.27527,0.22671c-3.86783,3.86579 -5.8019,8.53311 -5.8019,14.00342c0,5.46739 1.93348,10.13471 5.80058,14.00196c3.86744,3.86725 8.53613,5.80087 14.00605,5.80087c5.46724,0 10.135,-1.93362 14.00313,-5.79941c3.86886,-3.86725 5.80336,-8.53603 5.80336,-14.00342c0,-0.04095 -0.00146,-0.08045 -0.0041,-0.11994c-0.02984,-5.41473 -1.96419,-10.0411 -5.80278,-13.8791l-5.07262,-5.07394l29.42386,-29.42079c1.40985,-1.40239 3.10448,-2.10344 5.08388,-2.10344c0.03554,0 0.07123,-0.00102 0.10677,-0.00307c4.70549,0.03935 7.0589,2.43253 7.0589,7.17986c0,4.78492 -2.391,7.17737 -7.17299,7.17737c-1.98204,0 -3.67433,-0.70207 -5.07672,-2.10432l-0.00044,-0.00029c-0.08439,-0.08439 -0.1761,-0.15958 -0.27542,-0.22583c-0.09917,-0.06626 -0.20375,-0.12213 -0.31403,-0.16777c-0.11019,-0.04573 -0.22379,-0.08015 -0.3408,-0.10326c-0.11687,-0.02326 -0.23505,-0.03481 -0.35425,-0.03481c-0.11935,0 -0.23749,0.01165 -0.3544,0.03496c-0.11701,0.02326 -0.23051,0.05777 -0.34065,0.10341c-0.11014,0.04563 -0.21486,0.10165 -0.31403,0.16806c-0.09917,0.06626 -0.19088,0.14158 -0.27527,0.22598l-6.35741,6.36165c-0.08439,0.08337 -0.15958,0.17552 -0.22583,0.27498c-0.06626,0.09946 -0.12228,0.20331 -0.16791,0.31447c-0.04554,0.11019 -0.07991,0.2233 -0.10312,0.33934c-0.02326,0.11701 -0.03496,0.23549 -0.03496,0.35542c0,0.11847 0.0117,0.23695 0.03496,0.35396c0.0234,0.11701 0.05777,0.2311 0.10341,0.3408c0.04563,0.1097 0.10165,0.21501 0.16791,0.31447c0.06626,0.098 0.14158,0.19014 0.22583,0.27498c3.86652,3.86579 8.53413,5.79941 14.00313,5.79941c5.46749,0 10.13485,-1.93314 14.0021,-5.79941c3.86725,-3.86725 5.80087,-8.5353 5.80087,-14.00357c0,-5.46885 -1.93362,-10.13734 -5.79941,-14.00532c-3.86725,-3.86871 -8.53457,-5.80307 -14.00357,-5.80307c-0.04008,0 -0.08015,0.00132 -0.12023,0.00395c-5.41093,0.02994 -10.0373,1.96361 -13.8791,5.80102l-5.0773,5.07642l-29.42298,-29.43c-1.40312,-1.40166 -2.10461,-3.09365 -2.10461,-5.07584c0.00517,-4.78219 2.39738,-7.17328 7.17664,-7.17328c4.78579,0 7.17869,2.39217 7.17869,7.17664zM274.99097,236.01447l-15.41283,15.41195l15.41181,15.41473l15.41429,-15.40903z"
                      data-paper-data="{&quot;isBaseLogoContainer&quot;:true}" style="fill: rgb(244, 54, 76);"></path>
            </g>
        </g>
    </g>
</svg>