<?xml version="1.0" encoding="UTF-8"?>
<svg width="266.106781px" height="66.2604612px" viewBox="0 0 266.106781 66.2604612" version="1.1" xmlns="http://www.w3.org/2000/svg" xmlns:xlink="http://www.w3.org/1999/xlink">
    <title>Group</title>
    <g id="Page-1" stroke="none" stroke-width="1" fill="none" fill-rule="evenodd">
        <g id="Group">
            <polyline id="Fill-138" fill="#0D0E0C" points="259.084 23.7604612 259.751 23.7604612 259.292 25.4684612 258.917 25.8854612 258.792 33.3234612 259.979 34.6984612 253.917 34.6984612 249.229 32.3854612 252.001 23.5934612 259.084 23.7604612"></polyline>
            <path d="M263.229,39.4484612 L263.479,45.5104612 L252.167,47.1354612 L244.229,54.1984612 L233.229,54.8234612 L201.792,58.1984612 L200.709,60.5934612 L35.667,59.7604612 L32.542,47.0104612 L37.167,31.7604612 C37.167,31.7604612 48.542,24.7604612 49.042,24.7604612 C49.542,24.7604612 66.917,24.7604612 67.542,24.8854612 C68.167,25.0104612 90.042,38.3854612 90.042,38.3854612 L176.542,42.2604612 C176.542,42.2604612 190.042,30.0104612 190.292,29.6354612 C190.542,29.2604612 209.667,17.2604612 209.667,17.2604612 L228.167,16.8854612 L241.042,27.6354612 C241.042,27.6354612 244.042,38.2604612 247.542,38.6354612 C251.042,39.0104612 263.229,39.4484612 263.229,39.4484612" id="Fill-139" fill="#242525"></path>
            <path d="M237.376,44.5104612 C237.376,55.8794612 228.16,65.0934612 216.792,65.0934612 C205.424,65.0934612 196.209,55.8794612 196.209,44.5104612 C196.209,33.1424612 205.424,23.9274612 216.792,23.9274612 C228.16,23.9274612 237.376,33.1424612 237.376,44.5104612" id="Fill-140" fill="#0D0E0C"></path>
            <path d="M234.564,44.5564612 C234.564,54.4714612 226.526,62.5094612 216.61,62.5094612 C206.695,62.5094612 198.657,54.4714612 198.657,44.5564612 C198.657,34.6404612 206.695,26.6024612 216.61,26.6024612 C226.526,26.6024612 234.564,34.6404612 234.564,44.5564612" id="Fill-141" fill="#957F4B"></path>
            <path d="M232.823,44.5564612 C232.823,53.5094612 225.564,60.7684612 216.61,60.7684612 C207.657,60.7684612 200.398,53.5094612 200.398,44.5564612 C200.398,35.6024612 207.657,28.3434612 216.61,28.3434612 C225.564,28.3434612 232.823,35.6024612 232.823,44.5564612" id="Fill-142" fill="#72552C"></path>
            <path d="M231.031,44.5564612 C231.031,52.5204612 224.575,58.9764612 216.61,58.9764612 C208.646,58.9764612 202.19,52.5204612 202.19,44.5564612 C202.19,36.5914612 208.646,30.1354612 216.61,30.1354612 C224.575,30.1354612 231.031,36.5914612 231.031,44.5564612" id="Fill-143" fill="#242525"></path>
            <path d="M226.923,44.5564612 C226.923,50.2524612 222.306,54.8694612 216.61,54.8694612 C210.915,54.8694612 206.298,50.2524612 206.298,44.5564612 C206.298,38.8604612 210.915,34.2444612 216.61,34.2444612 C222.306,34.2444612 226.923,38.8604612 226.923,44.5564612" id="Fill-144" fill="#484849"></path>
            <path d="M223.457,44.5564612 C223.457,48.3374612 220.391,51.4024612 216.61,51.4024612 C212.83,51.4024612 209.765,48.3374612 209.765,44.5564612 C209.765,40.7754612 212.83,37.7104612 216.61,37.7104612 C220.391,37.7104612 223.457,40.7754612 223.457,44.5564612" id="Fill-145" fill="#72552C"></path>
            <path d="M75.729,47.3434612 C75.729,57.7924612 67.26,66.2604612 56.813,66.2604612 C46.366,66.2604612 37.896,57.7924612 37.896,47.3434612 C37.896,36.8964612 46.366,28.4274612 56.813,28.4274612 C67.26,28.4274612 75.729,36.8964612 75.729,47.3434612" id="Fill-146" fill="#0D0E0C"></path>
            <path d="M73.146,47.3854612 C73.146,56.4994612 65.759,63.8854612 56.646,63.8854612 C47.534,63.8854612 40.146,56.4994612 40.146,47.3854612 C40.146,38.2734612 47.534,30.8854612 56.646,30.8854612 C65.759,30.8854612 73.146,38.2734612 73.146,47.3854612" id="Fill-147" fill="#957F4B"></path>
            <path d="M71.729,47.3854612 C71.729,55.7154612 64.976,62.4684612 56.646,62.4684612 C48.316,62.4684612 41.563,55.7154612 41.563,47.3854612 C41.563,39.0554612 48.316,32.3024612 56.646,32.3024612 C64.976,32.3024612 71.729,39.0554612 71.729,47.3854612" id="Fill-148" fill="#72552C"></path>
            <path d="M70.063,47.3854612 C70.063,54.7964612 64.056,60.8024612 56.646,60.8024612 C49.236,60.8024612 43.229,54.7964612 43.229,47.3854612 C43.229,39.9754612 49.236,33.9684612 56.646,33.9684612 C64.056,33.9684612 70.063,39.9754612 70.063,47.3854612" id="Fill-149" fill="#242525"></path>
            <path d="M66.959,47.3854612 C66.959,53.0814612 62.342,57.6984612 56.646,57.6984612 C50.951,57.6984612 46.334,53.0814612 46.334,47.3854612 C46.334,41.6904612 50.951,37.0734612 56.646,37.0734612 C62.342,37.0734612 66.959,41.6904612 66.959,47.3854612" id="Fill-150" fill="#484849"></path>
            <path d="M62.334,47.3854612 C62.334,50.5274612 59.787,53.0734612 56.646,53.0734612 C53.505,53.0734612 50.959,50.5274612 50.959,47.3854612 C50.959,44.2454612 53.505,41.6984612 56.646,41.6984612 C59.787,41.6984612 62.334,44.2454612 62.334,47.3854612" id="Fill-151" fill="#72552C"></path>
            <g id="Fill-316" fill="#928E87">
                <path d="M5.792,52.4684612 C5.792,52.4684612 1.334,48.0524612 0,43.6774612 C7.459,37.2604612 22.792,23.5104612 57.417,19.8854612 L61.459,20.2604612 C61.459,20.2604612 94.042,5.7604612 113.417,2.8854612 C132.792,0.0104612045 145.542,-0.239538795 153.917,0.135461205 C162.292,0.510461205 174.667,1.6354612 174.667,1.6354612 L175.917,2.7604612 C175.917,2.7604612 219.542,7.2604612 232.042,9.3854612 C244.542,11.5104612 262.792,13.8854612 263.292,14.5104612 C263.792,15.1354612 262.667,15.8234612 262.667,15.8234612 L253.979,17.5104612 C253.979,17.5104612 249.042,32.4484612 249.229,32.3854612 C249.417,32.3234612 253.917,34.6984612 253.917,34.6984612 L259.979,34.6984612 L258.792,33.3234612 L264.854,33.1354612 C264.854,33.1354612 265.979,33.5734612 266.105406,35.4484612 C266.229,37.3234612 257.979,45.3234612 257.979,45.3234612 L252.042,46.3854612 L244.917,45.5104612 L238.792,49.5734612 C238.792,49.5734612 239.042,39.0734612 239.042,38.8854612 C239.042,38.6984612 235.292,28.1354612 230.042,24.0104612 C226.792,21.7604612 219.229,21.0734612 211.667,22.0104612 C204.104,22.9484612 198.876,28.1774612 198.084,29.3024612 C197.292,30.4274612 196.042,33.8854612 196.042,33.8854612 L191.834,35.4684612 L184.875,45.8434612 L189.292,55.6354612 C189.292,55.6354612 195.292,56.6354612 195.417,56.6354612 C195.542,56.6354612 195.667,57.8854612 195.667,57.8854612 L199.626,57.8434612 L200.709,60.5934612 L71.709,62.0934612 L76.125,60.0934612 L78.209,52.1774612 C78.209,52.1774612 77.042,37.6774612 71.625,32.1774612 C66.209,26.6774612 59.042,25.9484612 50.729,27.4484612 C42.417,28.9484612 38.229,35.8854612 37.104,39.0104612 C35.979,42.1354612 34.542,49.5734612 35.417,54.0104612 C36.292,58.4484612 37.417,61.0734612 37.417,61.0734612 C37.417,61.0734612 10.042,60.5734612 7.229,60.5734612 C4.417,60.5734612 1.917,60.0734612 1.667,59.1354612 C1.417,58.1984612 5.792,52.4684612 5.792,52.4684612" id="Fill-152"></path>
            </g>
            <polyline id="Fill-153" fill="#957F4B" points="52.386 32.3854612 52.563 40.4904612 45.771 35.8024612 45.104 36.4684612 54.667 44.2924612 53.396 32.2604612 52.386 32.3854612"></polyline>
            <polyline id="Fill-154" fill="#957F4B" points="65.882 34.9534612 59.783 40.2924612 59.016 32.0754612 58.077 31.9924612 58.218 44.3454612 66.627 35.6474612 65.882 34.9534612"></polyline>
            <polyline id="Fill-155" fill="#957F4B" points="42.137 54.3104612 50.09 52.7444612 46.639 60.2404612 47.41 60.7824612 53.474 50.0184612 41.84 53.3374612 42.137 54.3104612"></polyline>
            <polyline id="Fill-156" fill="#957F4B" points="42.098 40.8244612 48.404 45.9164612 40.442 48.0834612 40.521 49.0224612 52.667 46.7604612 42.654 39.9714612 42.098 40.8244612"></polyline>
            <polyline id="Fill-157" fill="#957F4B" points="71.241 53.4564612 63.216 52.3134612 67.06 59.6164612 66.318 60.1984612 59.691 49.7714612 71.485 52.4674612 71.241 53.4564612"></polyline>
            <polyline id="Fill-158" fill="#957F4B" points="70.636 40.0574612 64.392 45.2274612 72.381 47.2954612 72.313 48.2354612 60.14 46.1254612 70.069 39.2124612 70.636 40.0574612"></polyline>
            <polyline id="Fill-159" fill="#957F4B" points="54.143 63.3474612 57.104 55.8434612 61.571 62.8494612 62.448 62.5034612 56.793 51.5184612 53.166 63.0604612 54.143 63.3474612"></polyline>
            <path d="M58.563,47.3854612 C58.563,48.4444612 57.705,49.3024612 56.646,49.3024612 C55.588,49.3024612 54.729,48.4444612 54.729,47.3854612 C54.729,46.3274612 55.588,45.4684612 56.646,45.4684612 C57.705,45.4684612 58.563,46.3274612 58.563,47.3854612" id="Fill-160" fill="#242525"></path>
            <polyline id="Fill-161" fill="#957F4B" points="211.974 28.2344612 212.168 37.0524612 204.777 31.9524612 204.053 32.6774612 214.457 41.1894612 213.074 28.0984612 211.974 28.2344612"></polyline>
            <polyline id="Fill-162" fill="#957F4B" points="226.66 31.0284612 220.023 36.8374612 219.189 27.8964612 218.168 27.8054612 218.321 41.2484612 227.471 31.7834612 226.66 31.0284612"></polyline>
            <polyline id="Fill-163" fill="#957F4B" points="200.822 52.0914612 209.476 50.3864612 205.722 58.5434612 206.56 59.1324612 213.159 47.4214612 200.5 51.0314612 200.822 52.0914612"></polyline>
            <polyline id="Fill-164" fill="#957F4B" points="200.78 37.4164612 207.642 42.9574612 198.978 45.3144612 199.064 46.3374612 212.281 43.8764612 201.386 36.4884612 200.78 37.4164612"></polyline>
            <polyline id="Fill-165" fill="#957F4B" points="232.491 51.1614612 223.759 49.9184612 227.942 57.8644612 227.135 58.4984612 219.924 47.1524612 232.757 50.0864612 232.491 51.1614612"></polyline>
            <polyline id="Fill-166" fill="#957F4B" points="231.833 36.5834612 225.039 42.2084612 233.731 44.4584612 233.658 45.4804612 220.412 43.1844612 231.216 35.6624612 231.833 36.5834612"></polyline>
            <polyline id="Fill-167" fill="#957F4B" points="213.887 61.9244612 217.109 53.7594612 221.97 61.3824612 222.924 61.0064612 216.77 49.0524612 212.824 61.6114612 213.887 61.9244612"></polyline>
            <path d="M219.331,44.5564612 C219.331,46.0584612 218.113,47.2764612 216.61,47.2764612 C215.108,47.2764612 213.89,46.0584612 213.89,44.5564612 C213.89,43.0534612 215.108,41.8364612 216.61,41.8364612 C218.113,41.8364612 219.331,43.0534612 219.331,44.5564612" id="Fill-168" fill="#242525"></path>
            <path d="M68.354,21.2604612 C68.354,21.2604612 88.792,11.2604612 107.875,8.0104612 C126.959,4.7604612 146.084,3.4684612 160.5,7.3024612 C162.584,9.8024612 165.334,13.7184612 165.334,13.7184612 C165.334,13.7184612 96.792,24.5104612 88.875,24.5104612 C80.959,24.5104612 68.354,21.2604612 68.354,21.2604612" id="Fill-169" fill="#1D1D1B"></path>
            <polyline id="Fill-170" fill="#0D0E0C" points="5.042 45.8234612 10.229 43.5734612 16.542 54.0104612 12.979 56.7604612 7.354 56.3854612 8.604 50.5734612 6.854 46.8234612 5.042 45.8234612"></polyline>
            <path d="M196.042,33.8854612 C196.042,33.8854612 192.792,44.4274612 192.709,46.8434612 C192.626,49.2604612 195.417,56.6354612 195.417,56.6354612 L189.292,55.6354612 L184.875,45.8434612 L191.834,35.4684612 L196.042,33.8854612" id="Fill-171" fill="#0D0E0C"></path>
            <path d="M171.167,21.5104612 C171.167,21.5104612 176.479,22.5104612 180.042,23.6984612 C175.479,30.7604612 167.354,42.9484612 166.604,43.4484612 C165.854,43.9484612 157.667,45.9484612 157.667,45.9484612 C157.667,45.9484612 162.604,42.3234612 164.417,39.8234612 C166.229,37.3234612 173.417,23.8234612 173.417,23.8234612 L171.167,21.5104612" id="Fill-172" fill="#161614"></path>
            <polyline id="Fill-173" fill="#0D0E0C" points="171.167 21.5104612 168.417 32.8234612 174.167 23.9484612 171.167 21.5104612"></polyline>
            <polyline id="Fill-174" fill="#6A645E" points="253.979 17.5104612 230.042 24.0104612 253.292 19.8434612 253.979 17.5104612"></polyline>
            <path d="M262.667,15.8234612 C262.667,15.8234612 262.751,16.9684612 259.084,23.7604612 L251.834,23.7604612 L253.979,17.5104612 L262.667,15.8234612" id="Fill-175" fill="#8C2227"></path>
            <polyline id="Fill-176" fill="#0D0E0C" points="147.313 5.2604612 145.819 16.7604612 153.254 15.6204612 153.479 5.8854612 147.313 5.2604612"></polyline>
            <path d="M82.336,52.6484612 L82.239,52.1244612 L82.741,52.0834612 L82.748,52.1234612 L146.022,48.4814612 L146.179,46.8884612 L146.683,46.8474612 L146.478,48.9564612 L146.264,48.9684612 L82.336,52.6484612 M82.193,51.8744612 L78.46,31.5704612 C78.511,31.5704612 78.562,31.5704612 78.615,31.5704612 C78.73,31.5704612 78.847,31.5704612 78.967,31.5694612 L82.687,51.7944612 C82.517,51.8224612 82.353,51.8484612 82.193,51.8744612 M147.466,41.7574612 C149.073,36.7284612 151.93,27.8544612 153.054,24.7584612 C153.233,24.7574612 153.411,24.7564612 153.587,24.7554612 C152.544,27.5914612 149.66,36.5384612 148.014,41.6824612 C147.835,41.7074612 147.65,41.7324612 147.466,41.7574612 M78.322,30.8204612 L78.268,30.5274612 L86.522,24.4294612 C86.739,24.4434612 86.953,24.4554612 87.166,24.4664612 C87.161,24.5364612 87.127,24.6044612 87.065,24.6494612 L78.819,30.7414612 C78.647,30.7684612 78.482,30.7944612 78.322,30.8204612" id="Fill-177" fill="#555049"></path>
            <path d="M87.166,24.4664612 C86.953,24.4554612 86.739,24.4434612 86.522,24.4294612 L86.768,24.2474612 C86.812,24.2144612 86.864,24.1984612 86.915,24.1984612 C86.992,24.1984612 87.068,24.2334612 87.118,24.2994612 C87.155,24.3494612 87.17,24.4084612 87.166,24.4664612" id="Fill-178" fill="#141513"></path>
            <path d="M156.073,19.0444612 L151.29,16.2264612 C151.188,16.1664612 151.145,16.0464612 151.177,15.9384612 L151.662,15.8644612 L156.866,18.9314612 C156.6,18.9694612 156.34,19.0054612 156.073,19.0444612" id="Fill-179" fill="#555049"></path>
            <path d="M151.177,15.9384612 C151.183,15.9204612 151.191,15.9014612 151.202,15.8834612 C151.248,15.8044612 151.331,15.7604612 151.417,15.7604612 C151.46,15.7604612 151.504,15.7714612 151.544,15.7954612 L151.662,15.8644612 L151.177,15.9384612" id="Fill-180" fill="#0C0D0B"></path>
            <path d="M167.542,4.5104612 C167.542,4.5104612 183.292,9.5934612 189.125,12.9274612 C197.376,12.2604612 203.626,11.2604612 203.626,11.2604612 C203.626,11.2604612 186.709,3.4274612 175.917,2.7604612 L167.542,4.5104612" id="Fill-181" fill="#0D0E0C"></path>
            <path d="M159.792,5.1774612 L167.542,4.5104612 C167.542,4.5104612 179.792,8.7604612 184.459,10.8434612 C176.959,11.9274612 166.292,13.5104612 166.292,13.5104612 L161.459,7.0934612 C161.459,7.0934612 158.917,5.5104612 152.542,4.6354612 C157.667,4.8854612 159.792,5.1774612 159.792,5.1774612" id="Fill-182" fill="#0D0E0C"></path>
            <path d="M164.084,5.5524612 C164.084,5.5524612 167.959,7.3024612 170.042,10.4274612 C168.167,12.1354612 166.917,13.0934612 166.917,13.0934612 L164.084,5.5524612" id="Fill-183" fill="#928E87"></path>
            <polyline id="Fill-184" fill="#161614" points="84.292 54.0104612 92 59.4274612 143.834 58.8024612 84.292 54.0104612"></polyline>
            <path d="M9.25,37.6354612 L13.792,38.0104612 L33.792,28.8434612 L29.875,28.0934612 C29.875,28.0934612 13.875,32.1774612 9.25,37.6354612" id="Fill-185" fill="#181817"></path>
            <path d="M78.46,31.5704612 C76.965,31.5644612 75.956,31.4674612 75.542,31.2604612 C75.542,31.2604612 76.528,31.1034612 78.322,30.8204612 L78.46,31.5704612 M78.967,31.5694612 L78.816,30.7444612 L78.819,30.7414612 C89.748,29.0144612 125.96,23.3314612 156.073,19.0444612 L156.411,19.2434612 C155.848,19.9284612 154.203,22.0084612 153.396,23.8694612 C153.315,24.0554612 153.199,24.3594612 153.054,24.7584612 C152.994,24.7594612 152.935,24.7604612 152.875,24.7604612 C140.779,24.9084612 92.64,31.4544612 78.967,31.5694612 M169.375,28.5934612 C169.375,28.5934612 166.656,24.7554612 153.7,24.7554612 C153.663,24.7554612 153.625,24.7554612 153.587,24.7554612 C153.699,24.4534612 153.789,24.2194612 153.855,24.0684612 C154.786,21.9214612 156.96,19.3664612 156.982,19.3404612 L157.176,19.1134612 L156.866,18.9314612 C176.742,16.1074612 193.826,13.9174612 198.987,13.9174612 C199.191,13.9174612 199.376,13.9214612 199.542,13.9274612 C166.523,19.5044612 163.611,19.9124612 163.387,19.9304612 L171.167,21.5104612 L169.375,28.5934612" id="Fill-186" fill="#AEADA6"></path>
            <path d="M78.615,31.5704612 C78.562,31.5704612 78.511,31.5704612 78.46,31.5704612 L78.322,30.8204612 C78.482,30.7944612 78.647,30.7684612 78.819,30.7414612 L78.816,30.7444612 L78.967,31.5694612 C78.847,31.5704612 78.73,31.5704612 78.615,31.5704612 M153.054,24.7584612 C153.199,24.3594612 153.315,24.0554612 153.396,23.8694612 C154.203,22.0084612 155.848,19.9284612 156.411,19.2434612 L156.073,19.0444612 C156.34,19.0054612 156.6,18.9694612 156.866,18.9314612 L157.176,19.1134612 L156.982,19.3404612 C156.96,19.3664612 154.786,21.9214612 153.855,24.0684612 C153.789,24.2194612 153.699,24.4534612 153.587,24.7554612 C153.411,24.7564612 153.233,24.7574612 153.054,24.7584612" id="Fill-187" fill="#83827B"></path>
            <path d="M57.451,44.3034612 C57.451,44.6954612 57.134,45.0124612 56.742,45.0124612 C56.35,45.0124612 56.033,44.6954612 56.033,44.3034612 C56.033,43.9124612 56.35,43.5934612 56.742,43.5934612 C57.134,43.5934612 57.451,43.9124612 57.451,44.3034612" id="Fill-188" fill="#191919"></path>
            <path d="M54.716,46.5834612 C54.716,46.9744612 54.398,47.2924612 54.006,47.2924612 C53.615,47.2924612 53.297,46.9744612 53.297,46.5834612 C53.297,46.1914612 53.615,45.8744612 54.006,45.8744612 C54.398,45.8744612 54.716,46.1914612 54.716,46.5834612" id="Fill-189" fill="#191919"></path>
            <path d="M55.813,49.9264612 C55.813,50.3184612 55.495,50.6354612 55.104,50.6354612 C54.712,50.6354612 54.395,50.3184612 54.395,49.9264612 C54.395,49.5354612 54.712,49.2174612 55.104,49.2174612 C55.495,49.2174612 55.813,49.5354612 55.813,49.9264612" id="Fill-190" fill="#191919"></path>
            <path d="M59.072,49.8594612 C59.072,50.2514612 58.755,50.5684612 58.363,50.5684612 C57.972,50.5684612 57.654,50.2514612 57.654,49.8594612 C57.654,49.4674612 57.972,49.1494612 58.363,49.1494612 C58.755,49.1494612 59.072,49.4674612 59.072,49.8594612" id="Fill-191" fill="#191919"></path>
            <path d="M60.203,46.4814612 C60.203,46.8734612 59.886,47.1914612 59.494,47.1914612 C59.103,47.1914612 58.785,46.8734612 58.785,46.4814612 C58.785,46.0904612 59.103,45.7724612 59.494,45.7724612 C59.886,45.7724612 60.203,46.0904612 60.203,46.4814612" id="Fill-192" fill="#191919"></path>
            <path d="M217.311,41.7444612 C217.311,42.1364612 216.994,42.4544612 216.602,42.4544612 C216.211,42.4544612 215.893,42.1364612 215.893,41.7444612 C215.893,41.3524612 216.211,41.0354612 216.602,41.0354612 C216.994,41.0354612 217.311,41.3524612 217.311,41.7444612" id="Fill-193" fill="#191919"></path>
            <path d="M214.576,44.0244612 C214.576,44.4164612 214.259,44.7334612 213.867,44.7334612 C213.474,44.7334612 213.157,44.4164612 213.157,44.0244612 C213.157,43.6324612 213.474,43.3154612 213.867,43.3154612 C214.259,43.3154612 214.576,43.6324612 214.576,44.0244612" id="Fill-194" fill="#191919"></path>
            <path d="M215.674,47.3684612 C215.674,47.7594612 215.356,48.0774612 214.965,48.0774612 C214.572,48.0774612 214.255,47.7594612 214.255,47.3684612 C214.255,46.9764612 214.572,46.6584612 214.965,46.6584612 C215.356,46.6584612 215.674,46.9764612 215.674,47.3684612" id="Fill-195" fill="#191919"></path>
            <path d="M218.932,47.2994612 C218.932,47.6924612 218.615,48.0094612 218.223,48.0094612 C217.832,48.0094612 217.515,47.6924612 217.515,47.2994612 C217.515,46.9084612 217.832,46.5904612 218.223,46.5904612 C218.615,46.5904612 218.932,46.9084612 218.932,47.2994612" id="Fill-196" fill="#191919"></path>
            <path d="M220.064,43.9234612 C220.064,44.3144612 219.746,44.6324612 219.354,44.6324612 C218.963,44.6324612 218.645,44.3144612 218.645,43.9234612 C218.645,43.5314612 218.963,43.2144612 219.354,43.2144612 C219.746,43.2144612 220.064,43.5314612 220.064,43.9234612" id="Fill-197" fill="#191919"></path>
            <path d="M79.042,52.3854612 C79.042,52.3854612 80.185,52.1994612 82.193,51.8744612 L82.239,52.1244612 L79.042,52.3854612 M82.741,52.0834612 L82.687,51.7944612 C94.211,49.9304612 130.101,44.1574612 147.466,41.7574612 C146.838,43.7254612 146.401,45.1044612 146.334,45.3194612 L146.179,46.8884612 L82.741,52.0834612 M146.683,46.8474612 L146.822,45.4194612 C146.839,45.3664612 147.314,43.8674612 148.014,41.6824612 C152.491,41.0684612 155.646,40.6944612 156.692,40.6944612 C156.754,40.6944612 156.808,40.6954612 156.854,40.6984612 C160.959,40.9264612 162.672,41.4144612 162.941,41.4984612 C162.841,41.5974612 162.74,41.6964612 162.638,41.7964612 L157.667,45.9484612 L146.683,46.8474612" id="Fill-198" fill="#AEADA6"></path>
            <path d="M162.638,41.7964612 C162.74,41.6964612 162.841,41.5974612 162.941,41.4984612 C162.967,41.5064612 162.979,41.5104612 162.979,41.5104612 L162.638,41.7964612" id="Fill-199" fill="#545552"></path>
            <path d="M82.239,52.1244612 L82.193,51.8744612 C82.353,51.8484612 82.517,51.8224612 82.687,51.7944612 L82.741,52.0834612 L82.239,52.1244612 M146.179,46.8884612 L146.334,45.3194612 C146.401,45.1044612 146.838,43.7254612 147.466,41.7574612 C147.65,41.7324612 147.835,41.7074612 148.014,41.6824612 C147.314,43.8674612 146.839,45.3664612 146.822,45.4194612 L146.683,46.8474612 L146.179,46.8884612" id="Fill-200" fill="#83827B"></path>
            <path d="M249.126,18.4274612 L198.792,14.5934612 C198.792,14.5934612 202.876,13.4274612 214.876,13.0934612 C215.29,13.0824612 215.719,13.0764612 216.164,13.0764612 C228.631,13.0764612 252.792,17.4274612 252.792,17.4274612 L249.126,18.4274612" id="Fill-201" fill="#CFD2CB"></path>
            <path d="M198.354,29.1984612 L198.192,29.1584612 C198.194,29.1564612 198.196,29.1534612 198.198,29.1514612 L198.354,29.1984612" id="Fill-202" fill="#606261"></path>
            <path d="M198.192,29.1584612 L179.479,24.5734612 L180.042,23.6984612 L198.198,29.1514612 C198.196,29.1534612 198.194,29.1564612 198.192,29.1584612" id="Fill-203" fill="#AEADA6"></path>
            <polyline id="Fill-204" fill="#AEADA6" points="5.042 45.8234612 1.292 45.2604612 37.292 36.8854612 10.229 43.5734612 5.042 45.8234612"></polyline>
            <path d="M89.084,25.7184612 C89.084,25.7184612 89.375,23.9274612 89.084,23.4684612 C88.792,23.0104612 83.834,18.0934612 83.667,17.4684612 C83.5,16.8434612 86.125,13.1354612 94.792,13.8434612 C95.584,14.9274612 95.167,19.8024612 90.667,20.5104612 L95.5,25.5104612 L93.167,26.6354612 L89.084,25.7184612" id="Fill-205" fill="#928E87"></path>
        </g>
    </g>
</svg>