<?xml version="1.0" encoding="UTF-8"?>
<svg width="250.916238px" height="81.8586524px" viewBox="0 0 250.916238 81.8586524" version="1.1" xmlns="http://www.w3.org/2000/svg" xmlns:xlink="http://www.w3.org/1999/xlink">
    <title>Group</title>
    <g id="Page-1" stroke="none" stroke-width="1" fill="none" fill-rule="evenodd">
        <g id="Group" transform="translate(-0.000000, 0.000000)">
            <path d="M240.896,66.6506524 L244.229,63.4836524 C244.229,63.4836524 244.521,65.9416524 244.063,67.9006524 L238.771,67.9836524 L238.604,67.4006524 C238.604,67.4006524 235.479,67.9416524 235.146,68.1916524 C234.813,68.4416524 233.479,69.3586524 231.896,69.4006524 C230.313,69.4416524 227.688,69.6916524 227.688,69.6916524 L225.729,67.6506524 L240.896,66.6506524" id="Fill-68" fill="#0D0E0C"></path>
            <path d="M250.614,52.1916524 C250.614,52.1916524 250.489,59.2856524 250.864,59.5046524 C251.239,59.7226524 249.646,65.0046524 244.427,66.0666524 C239.208,67.1296524 231.802,67.9416524 231.802,67.9416524 L243.458,56.1296524 L245.708,52.3796524 L250.614,52.1916524" id="Fill-69" fill="#161614"></path>
            <path d="M71.958,27.0666524 C71.958,27.0666524 100.833,10.2546524 115.239,6.03565244 L118.521,6.75465244 L118.521,8.12965244 L78.833,28.8166524 L71.958,27.0666524" id="Fill-70" fill="#161614"></path>
            <path d="M27.187,71.8586524 L36.604,74.0256524 L72.771,72.8586524 L212.938,72.1916524 L224.438,67.6086524 L227.313,68.9836524 L230.104,55.6916524 C230.104,55.6916524 226.438,49.4416524 226.354,49.1916524 C226.271,48.9416524 207.354,38.3586524 207.354,38.3586524 L187.354,38.3586524 L64.771,47.1086524 L47.437,40.6916524 L26.854,51.7756524 L27.187,71.8586524" id="Fill-71" fill="#242525"></path>
            <path d="M218.708,8.09765244 C218.708,8.09765244 235.104,16.8586524 242.771,23.1916524 L220.354,20.3586524 L204.688,10.4416524 L209.771,8.52565244 L218.708,8.09765244" id="Fill-72" fill="#161614"></path>
            <path d="M250.563,46.7756524 C250.563,46.7756524 249.688,46.4836524 247.896,45.3586524 C246.771,42.1506524 245.479,41.8586524 244.979,40.5256524 C244.479,39.1916524 245.688,33.4836524 245.688,32.5666524 C245.688,31.6506524 246.896,30.6916524 246.896,30.6916524 C247.021,28.3166524 245.688,23.7336524 245.104,23.5256524 C244.521,23.3166524 230.021,21.0666524 225.729,20.1916524 C221.438,19.3166524 207.739,10.7226524 207.739,10.7226524 L218.708,8.09765244 L219.675,8.61865244 C219.965,7.50265244 221.641,7.22965244 221.583,6.94165244 C221.521,6.62965244 219.833,6.62965244 217.958,6.37965244 C216.083,6.12965244 204.521,4.31665244 203.396,4.31665244 C202.271,4.31665244 192.146,2.75465244 185.771,2.37965244 C179.396,2.00465244 165.854,1.19165244 155.771,1.19165244 C145.688,1.19165244 136.146,1.94165244 130.104,2.77565244 C124.063,3.60865244 115.239,6.03565244 115.239,6.03565244 L117.208,7.12965244 C103.146,12.0666524 86.396,23.1916524 83.208,24.7546524 C80.021,26.3166524 77.708,26.6916524 74.583,26.7546524 C71.458,26.8166524 64.583,26.5046524 64.583,26.5046524 C64.583,26.5046524 56.646,27.3796524 48.521,28.3166524 C40.396,29.2546524 30.438,30.8166524 20.271,33.4416524 C10.104,36.0666524 0.479,42.8586524 0.479,42.8586524 L0.479,43.8166524 C0.479,43.8166524 3.688,45.5666524 3.854,46.3586524 C4.021,47.1506524 4.104,47.4836524 2.188,51.0256524 C-0.187,55.7756524 0.833,61.5046524 0.833,61.5046524 L1.396,63.4416524 L2.021,63.6296524 C2.021,63.6296524 2.708,65.5666524 3.146,67.0046524 C1.146,66.9416524 0.271,68.7546524 0.333,69.3796524 C0.396,70.0046524 7.583,72.5046524 8.958,72.6296524 C10.333,72.7546524 28.271,72.7756524 28.271,72.7756524 C28.271,72.7756524 25.218,45.0666524 49.271,43.7756524 C74.104,42.4416524 72.604,71.6086524 72.604,71.6086524 L184.104,70.6916524 C184.104,70.6916524 181.771,43.6086524 204.979,42.5256524 C227.829,41.4586524 227.313,68.9836524 227.313,68.9836524 L232.313,67.9836524 C232.313,67.9836524 243.771,57.0256524 245.354,54.8166524 C246.938,52.6086524 250.646,52.5666524 250.646,52.5666524 C250.646,51.6506524 250.563,46.7756524 250.563,46.7756524" id="Fill-73" fill="#CB2C39"></path>
            <path d="M68.938,63.5256524 C68.938,73.6506524 60.73,81.8586524 50.604,81.8586524 C40.479,81.8586524 32.271,73.6506524 32.271,63.5256524 C32.271,53.4006524 40.479,45.1916524 50.604,45.1916524 C60.73,45.1916524 68.938,53.4006524 68.938,63.5256524" id="Fill-74" fill="#0D0E0C"></path>
            <path d="M65.563,63.5256524 C65.563,71.7866524 58.865,78.4836524 50.604,78.4836524 C42.343,78.4836524 35.646,71.7866524 35.646,63.5256524 C35.646,55.2636524 42.343,48.5666524 50.604,48.5666524 C58.865,48.5666524 65.563,55.2636524 65.563,63.5256524" id="Fill-75" fill="#A09B87"></path>
            <path d="M64.479,63.5256524 C64.479,71.1886524 58.267,77.4006524 50.604,77.4006524 C42.941,77.4006524 36.729,71.1886524 36.729,63.5256524 C36.729,55.8626524 42.941,49.6506524 50.604,49.6506524 C58.267,49.6506524 64.479,55.8626524 64.479,63.5256524" id="Fill-76" fill="#191919"></path>
            <path d="M59.906,63.6186524 C59.906,68.8426524 55.671,73.0776524 50.448,73.0776524 C45.224,73.0776524 40.989,68.8426524 40.989,63.6186524 C40.989,58.3956524 45.224,54.1606524 50.448,54.1606524 C55.671,54.1606524 59.906,58.3956524 59.906,63.6186524" id="Fill-77" fill="#EFEDEF"></path>
            <path d="M57.207,63.6506524 C57.207,67.3666524 54.195,70.3786524 50.479,70.3786524 C46.763,70.3786524 43.751,67.3666524 43.751,63.6506524 C43.751,59.9346524 46.763,56.9226524 50.479,56.9226524 C54.195,56.9226524 57.207,59.9346524 57.207,63.6506524" id="Fill-78" fill="#191919"></path>
            <path d="M55.2,55.4236524 L55.282,58.0486524 C55.282,58.0486524 55.564,59.6896524 55.813,60.3696524 C56.062,61.0496524 56.31,62.3926524 56.393,63.0066524 C56.476,63.6196524 56.376,65.7596524 56.045,66.4726524 C55.713,67.1856524 55.597,67.6496524 55.447,68.5456524 C55.299,69.4406524 55.133,70.7176524 55.133,70.8506524 C55.133,70.9836524 54.95,71.5806524 55.481,71.9946524 C56.012,72.4096524 57.139,71.7126524 57.504,71.0496524 C57.869,70.3866524 59.295,68.8446524 59.528,68.3296524 C59.76,67.8156524 60.307,67.1196524 60.091,66.8036524 C60.091,66.8036524 60.606,65.5606524 60.606,64.4496524 C60.606,63.3386524 60.506,61.3646524 60.025,60.3036524 C59.544,59.2416524 59.162,58.3136524 58.516,57.4846524 C57.869,56.6556524 55.879,55.1296524 55.879,55.1296524 L55.2,55.4236524" id="Fill-79" fill="#CB2C39"></path>
            <path d="M52.943,49.3016524 L53.302,51.6296524 C53.302,51.6296524 52.146,55.7226524 51.521,56.6296524 C51.135,57.1896524 50.737,57.3306524 50.489,57.3576524 L50.239,57.3576524 C49.992,57.3306524 49.594,57.1896524 49.208,56.6296524 C48.583,55.7226524 47.427,51.6296524 47.427,51.6296524 L47.786,49.3016524 L44.224,50.4886524 L44.521,51.0356524 L47.802,59.5356524 L49.458,62.1916524 L51.271,62.1916524 L52.927,59.5356524 L56.208,51.0356524 L56.505,50.4886524 L52.943,49.3016524" id="Fill-80" fill="#A09B87"></path>
            <path d="M39.947,73.7726524 L41.049,71.6906524 C41.049,71.6906524 44.422,69.0976524 45.465,68.7436524 C46.109,68.5256524 46.511,68.6496524 46.727,68.7756524 L46.927,68.9246524 C47.11,69.0946524 47.344,69.4456524 47.319,70.1246524 C47.279,71.2246524 45.762,75.1996524 45.762,75.1996524 L44.083,76.8516524 L47.65,78.0276524 L47.738,77.4106524 L50.183,68.6336524 L50.441,65.5136524 L49.814,65.0476524 L49.613,64.8986524 L48.987,64.4316524 L46.072,65.5736524 L38.364,70.4306524 L37.799,70.6926524 L39.947,73.7726524" id="Fill-81" fill="#A09B87"></path>
            <path d="M37.554,56.9176524 L39.882,57.2816524 C39.882,57.2816524 43.432,59.6236524 44.106,60.4946524 C44.523,61.0326524 44.537,61.4536524 44.487,61.6986524 L44.412,61.9366524 C44.311,62.1646524 44.056,62.4996524 43.405,62.6986524 C42.352,63.0186524 38.1,62.8796524 38.1,62.8796524 L35.991,61.8306524 L36.042,65.5856524 L36.653,65.4686524 L45.748,64.9196524 L48.781,64.1466524 L49.018,63.4026524 L49.094,63.1636524 L49.331,62.4196524 L47.302,60.0356524 L40.197,54.3316524 L39.766,53.8826524 L37.554,56.9176524" id="Fill-82" fill="#A09B87"></path>
            <path d="M63.268,56.9176524 L60.94,57.2816524 C60.94,57.2816524 57.39,59.6236524 56.715,60.4946524 C56.299,61.0326524 56.284,61.4536524 56.334,61.6986524 L56.409,61.9366524 C56.511,62.1646524 56.766,62.4996524 57.417,62.6986524 C58.47,63.0186524 62.722,62.8796524 62.722,62.8796524 L64.831,61.8306524 L64.779,65.5856524 L64.168,65.4686524 L55.073,64.9196524 L52.04,64.1466524 L51.803,63.4026524 L51.728,63.1636524 L51.49,62.4196524 L53.52,60.0356524 L60.624,54.3316524 L61.056,53.8826524 L63.268,56.9176524" id="Fill-83" fill="#A09B87"></path>
            <path d="M60.917,73.7726524 L59.816,71.6906524 C59.816,71.6906524 56.443,69.0976524 55.401,68.7436524 C54.756,68.5256524 54.354,68.6496524 54.138,68.7756524 L53.938,68.9246524 C53.755,69.0946524 53.521,69.4456524 53.546,70.1246524 C53.585,71.2246524 55.103,75.1996524 55.103,75.1996524 L56.781,76.8516524 L53.215,78.0276524 L53.126,77.4106524 L50.682,68.6336524 L50.424,65.5136524 L51.051,65.0476524 L51.251,64.8986524 L51.878,64.4316524 L54.793,65.5736524 L62.501,70.4306524 L63.066,70.6926524 L60.917,73.7726524" id="Fill-84" fill="#A09B87"></path>
            <path d="M187.104,63.5256524 C187.104,73.6506524 195.313,81.8586524 205.438,81.8586524 C215.563,81.8586524 223.771,73.6506524 223.771,63.5256524 C223.771,53.4006524 215.563,45.1916524 205.438,45.1916524 C195.313,45.1916524 187.104,53.4006524 187.104,63.5256524" id="Fill-85" fill="#0D0E0C"></path>
            <path d="M190.479,63.5256524 C190.479,71.7866524 197.176,78.4836524 205.438,78.4836524 C213.698,78.4836524 220.396,71.7866524 220.396,63.5256524 C220.396,55.2636524 213.698,48.5666524 205.438,48.5666524 C197.176,48.5666524 190.479,55.2636524 190.479,63.5256524" id="Fill-86" fill="#A09B87"></path>
            <path d="M191.563,63.5256524 C191.563,71.1886524 197.775,77.4006524 205.438,77.4006524 C213.101,77.4006524 219.313,71.1886524 219.313,63.5256524 C219.313,55.8626524 213.101,49.6506524 205.438,49.6506524 C197.775,49.6506524 191.563,55.8626524 191.563,63.5256524" id="Fill-87" fill="#191919"></path>
            <path d="M196.135,63.6186524 C196.135,68.8426524 200.37,73.0776524 205.594,73.0776524 C210.818,73.0776524 215.052,68.8426524 215.052,63.6186524 C215.052,58.3956524 210.818,54.1606524 205.594,54.1606524 C200.37,54.1606524 196.135,58.3956524 196.135,63.6186524" id="Fill-88" fill="#EFEDEF"></path>
            <path d="M198.834,63.6506524 C198.834,67.3666524 201.847,70.3786524 205.563,70.3786524 C209.279,70.3786524 212.29,67.3666524 212.29,63.6506524 C212.29,59.9346524 209.279,56.9226524 205.563,56.9226524 C201.847,56.9226524 198.834,59.9346524 198.834,63.6506524" id="Fill-89" fill="#191919"></path>
            <path d="M200.841,55.4236524 L200.76,58.0486524 C200.76,58.0486524 200.478,59.6896524 200.229,60.3696524 C199.98,61.0496524 199.732,62.3926524 199.649,63.0066524 C199.566,63.6196524 199.665,65.7596524 199.996,66.4726524 C200.328,67.1856524 200.445,67.6496524 200.594,68.5456524 C200.743,69.4406524 200.908,70.7176524 200.908,70.8506524 C200.908,70.9836524 201.091,71.5806524 200.561,71.9946524 C200.029,72.4096524 198.903,71.7126524 198.537,71.0496524 C198.172,70.3866524 196.746,68.8446524 196.514,68.3296524 C196.282,67.8156524 195.735,67.1196524 195.95,66.8036524 C195.95,66.8036524 195.437,65.5606524 195.437,64.4496524 C195.437,63.3386524 195.535,61.3646524 196.017,60.3036524 C196.497,59.2416524 196.879,58.3136524 197.526,57.4846524 C198.172,56.6556524 200.162,55.1296524 200.162,55.1296524 L200.841,55.4236524" id="Fill-90" fill="#CB2C39"></path>
            <path d="M203.099,49.3016524 L202.739,51.6296524 C202.739,51.6296524 203.896,55.7226524 204.521,56.6296524 C204.907,57.1896524 205.304,57.3306524 205.552,57.3576524 L205.802,57.3576524 C206.05,57.3306524 206.447,57.1896524 206.833,56.6296524 C207.458,55.7226524 208.614,51.6296524 208.614,51.6296524 L208.255,49.3016524 L211.818,50.4886524 L211.521,51.0356524 L208.239,59.5356524 L206.583,62.1916524 L204.771,62.1916524 L203.114,59.5356524 L199.833,51.0356524 L199.536,50.4886524 L203.099,49.3016524" id="Fill-91" fill="#A09B87"></path>
            <path d="M216.094,73.7726524 L214.992,71.6906524 C214.992,71.6906524 211.619,69.0976524 210.577,68.7436524 C209.933,68.5256524 209.529,68.6496524 209.315,68.7756524 L209.114,68.9246524 C208.932,69.0946524 208.697,69.4456524 208.723,70.1246524 C208.762,71.2246524 210.279,75.1996524 210.279,75.1996524 L211.958,76.8516524 L208.392,78.0276524 L208.303,77.4106524 L205.859,68.6336524 L205.601,65.5136524 L206.228,65.0476524 L206.428,64.8986524 L207.055,64.4316524 L209.97,65.5736524 L217.678,70.4306524 L218.242,70.6926524 L216.094,73.7726524" id="Fill-92" fill="#A09B87"></path>
            <path d="M218.487,56.9176524 L216.159,57.2816524 C216.159,57.2816524 212.61,59.6236524 211.936,60.4946524 C211.519,61.0326524 211.504,61.4536524 211.554,61.6986524 L211.63,61.9366524 C211.731,62.1646524 211.986,62.4996524 212.637,62.6986524 C213.69,63.0186524 217.942,62.8796524 217.942,62.8796524 L220.051,61.8306524 L219.999,65.5856524 L219.389,65.4686524 L210.293,64.9196524 L207.26,64.1466524 L207.024,63.4026524 L206.947,63.1636524 L206.71,62.4196524 L208.739,60.0356524 L215.844,54.3316524 L216.276,53.8826524 L218.487,56.9176524" id="Fill-93" fill="#A09B87"></path>
            <path d="M192.775,56.9176524 L195.102,57.2816524 C195.102,57.2816524 198.652,59.6236524 199.326,60.4946524 C199.742,61.0326524 199.757,61.4536524 199.707,61.6986524 L199.632,61.9366524 C199.53,62.1646524 199.276,62.4996524 198.625,62.6986524 C197.571,63.0186524 193.32,62.8796524 193.32,62.8796524 L191.21,61.8306524 L191.262,65.5856524 L191.873,65.4686524 L200.968,64.9196524 L204.001,64.1466524 L204.238,63.4026524 L204.314,63.1636524 L204.551,62.4196524 L202.522,60.0356524 L195.417,54.3316524 L194.987,53.8826524 L192.775,56.9176524" id="Fill-94" fill="#A09B87"></path>
            <path d="M195.124,73.7726524 L196.226,71.6906524 C196.226,71.6906524 199.599,69.0976524 200.641,68.7436524 C201.285,68.5256524 201.689,68.6496524 201.904,68.7756524 L202.104,68.9246524 C202.286,69.0946524 202.521,69.4456524 202.496,70.1246524 C202.456,71.2246524 200.939,75.1996524 200.939,75.1996524 L199.26,76.8516524 L202.826,78.0276524 L202.915,77.4106524 L205.36,68.6336524 L205.617,65.5136524 L204.99,65.0476524 L204.163,64.4316524 L201.249,65.5736524 L193.54,70.4306524 L192.976,70.6926524 L195.124,73.7726524" id="Fill-95" fill="#A09B87"></path>
            <path d="M84.021,29.3586524 C84.021,29.3586524 105.854,11.4416524 126.604,7.77565244 C147.354,4.10865244 166.938,5.69165244 178.771,7.35865244 C190.604,9.02565244 201.354,13.4416524 202.604,15.6916524 C202.604,15.6916524 198.688,20.6086524 193.354,21.9416524 C188.021,23.2756524 128.104,28.5256524 115.271,29.3586524 C102.438,30.1916524 84.021,29.3586524 84.021,29.3586524" id="Fill-96" fill="#292A28"></path>
            <path d="M7.479,57.9006524 C7.479,57.9006524 10.021,56.9006524 11.062,57.3586524 C12.104,57.8166524 19.042,65.0876524 19.271,65.9626524 C19.5,66.8376524 16.833,67.6506524 15.958,67.7336524 C15.083,67.8166524 11.083,68.1296524 10.229,67.9006524 C9.375,67.6716524 9.479,66.7756524 9.479,66.7756524 C9.479,66.7756524 7.958,64.0046524 7.146,61.4006524 L7.479,57.9006524" id="Fill-97" fill="#0D0E0C"></path>
            <path d="M4.021,47.2546524 C4.021,47.2546524 5.208,48.6916524 6.896,48.9416524 C8.583,49.1916524 15.937,47.3166524 22.271,44.6506524 C28.604,41.9836524 35.437,38.4416524 34.771,37.4006524 C34.104,36.3586524 27.771,36.9416524 23.854,37.9836524 C19.937,39.0256524 5.729,43.4416524 2.729,45.1086524 C2.729,45.1086524 4.354,45.8166524 4.021,47.2546524" id="Fill-98" fill="#EFEDEF"></path>
            <path d="M244.927,29.2546524 C244.927,29.2546524 245.239,32.0976524 243.521,33.1606524 C241.802,34.2226524 238.083,34.5046524 234.833,33.5666524 C231.583,32.6296524 222.427,27.5356524 222.363799,26.0356524 C222.302,24.5356524 236.614,25.8166524 238.927,26.4416524 C241.239,27.0666524 244.364,28.6916524 244.927,29.2546524" id="Fill-99" fill="#8C2227"></path>
            <path d="M83.081,68.3596524 L83.021,68.3246524 C82.965,68.2926524 81.648,67.5136524 81.039,65.9926524 C80.151,62.4486524 80.069,54.7806524 80.014,49.7066524 C79.999,48.2996524 79.985,47.0496524 79.958,46.1476524 C80.121,46.1256524 80.287,46.1026524 80.455,46.0806524 C80.485,46.9926524 80.498,48.2646524 80.514,49.7016524 C80.568,54.7526524 80.65,62.3846524 81.514,65.8396524 C81.982,67.0056524 82.969,67.6986524 83.215,67.8576524 C85.029,67.8236524 117.096,67.2126524 142.278,66.7406524 C142.359,66.9916524 142.408,67.1436524 142.408,67.1436524 L142.884,66.9896524 C142.884,66.9896524 142.853,66.8946524 142.8,66.7306524 C158.728,66.4326524 171.776,66.1916524 172.438,66.1916524 C174.313,66.1916524 177.126,65.0256524 178.884,61.7406524 C179.112,61.3136524 179.359,60.8436524 179.624,60.3386524 C181.304,57.1356524 183.716,52.5406524 186.983,48.3576524 C187.411,48.3306524 187.714,48.1266524 187.938,47.8586524 C188.194,47.5516524 188.827,46.8666524 189.486,46.1656524 C189.379,46.2866524 189.272,46.4066524 189.165,46.5256524 C185.002,51.1636524 182.032,56.8246524 180.067,60.5706524 C179.801,61.0776524 179.554,61.5496524 179.325,61.9766524 C177.465,65.4536524 174.547,66.6916524 172.438,66.6916524 C170.71,66.6916524 84.027,68.3426524 83.151,68.3586524 L83.081,68.3596524 M191.343,43.9816524 C191.274,43.8936524 191.166,43.7606524 191.015,43.5926524 C193.857,40.1136524 196.701,36.0406524 199.348,31.6466524 C201.597,27.9136524 202.666,25.7836524 202.815,24.7406524 C202.977,23.6086524 202.732,16.8316524 202.73,16.7636524 C202.729,16.5826524 202.678,16.1136524 202.463,15.8616524 C202.556,15.7526524 202.604,15.6916524 202.604,15.6916524 C202.59,15.6666524 202.574,15.6406524 202.557,15.6146524 L202.725,15.4176524 C203.215,15.8356524 203.23,16.6616524 203.23,16.7546524 C203.239,17.0256524 203.478,23.6356524 203.31,24.8106524 C203.149,25.9386524 202.092,28.0606524 199.777,31.9046524 C197.099,36.3496524 194.221,40.4686524 191.343,43.9816524" id="Fill-100" fill="#60191B"></path>
            <path d="M81.582,25.4796524 L81.981,25.2226524 L82.028,25.2956524 C81.878,25.3596524 81.729,25.4216524 81.582,25.4796524" id="Fill-101" fill="#110E0D"></path>
            <path d="M80.011,41.5216524 C80.221,37.4976524 80.724,32.5566524 80.942,31.3156524 L80.987,31.2106524 C81.834,30.0566524 83.236,29.2886524 83.821,29.0026524 L81.561,25.4936524 L81.582,25.4796524 C81.729,25.4216524 81.878,25.3596524 82.028,25.2956524 L84.432,29.0276524 C84.162,29.2426524 84.021,29.3586524 84.021,29.3586524 C84.021,29.3586524 84.089,29.3616524 84.22,29.3676524 C83.882,29.5226524 82.314,30.2846524 81.424,31.4596524 C81.205,32.7736524 80.721,37.5396524 80.514,41.4586524 C80.346,41.4796524 80.178,41.5006524 80.011,41.5216524" id="Fill-102" fill="#60191B"></path>
            <path d="M84.22,29.3676524 C84.089,29.3616524 84.021,29.3586524 84.021,29.3586524 C84.021,29.3586524 84.162,29.2426524 84.432,29.0276524 L84.558,29.2216524 L84.285,29.3386524 C84.283,29.3386524 84.261,29.3486524 84.22,29.3676524 M202.463,15.8616524 C202.443,15.8386524 202.423,15.8176524 202.401,15.7986524 L202.557,15.6146524 C202.574,15.6406524 202.59,15.6666524 202.604,15.6916524 C202.604,15.6916524 202.556,15.7526524 202.463,15.8616524" id="Fill-103" fill="#161010"></path>
            <path d="M142.278,66.7406524 C141.94,65.6936524 141.047,62.9216524 140.845,62.2646524 C140.804,62.1316524 140.779,61.9916524 140.768,61.8416524 C140.935,61.8266524 141.1,61.8116524 141.265,61.7966524 C141.274,61.9136524 141.292,62.0206524 141.322,62.1186524 C141.534,62.8056524 142.508,65.8246524 142.8,66.7306524 C142.627,66.7346524 142.452,66.7376524 142.278,66.7406524 M141.348,58.1996524 C141.365,58.1016524 141.383,58.0026524 141.4,57.9006524 C141.598,51.4966524 142.154,45.8866524 142.685,41.6256524 C142.855,41.6186524 143.022,41.6116524 143.191,41.6046524 C142.658,45.8676524 142.097,51.5016524 141.896,57.9496524 C141.885,58.0176524 141.873,58.0836524 141.862,58.1496524 C141.691,58.1666524 141.52,58.1826524 141.348,58.1996524" id="Fill-104" fill="#60191B"></path>
            <path d="M142.408,67.1436524 C142.408,67.1436524 142.359,66.9916524 142.278,66.7406524 C142.452,66.7376524 142.627,66.7346524 142.8,66.7306524 C142.853,66.8946524 142.884,66.9896524 142.884,66.9896524 L142.408,67.1436524" id="Fill-105" fill="#2A1413"></path>
            <path d="M143.288,37.1856524 C143.374,36.5956524 143.453,36.0636524 143.524,35.5926524 C144.067,31.9526524 144.903,27.8896524 145.106,26.9186524 C145.28,26.9026524 145.451,26.8876524 145.626,26.8726524 C145.503,27.4556524 144.595,31.8016524 144.018,35.6666524 C143.951,36.1126524 143.876,36.6146524 143.796,37.1676524 C143.627,37.1736524 143.457,37.1796524 143.288,37.1856524" id="Fill-106" fill="#60191B"></path>
            <path d="M145.106,26.9186524 C145.134,26.7836524 145.15,26.7076524 145.152,26.7016524 L149.714,5.63865244 L150.202,5.74465244 L145.64,26.8066524 C145.639,26.8096524 145.634,26.8326524 145.626,26.8726524 C145.451,26.8876524 145.28,26.9026524 145.106,26.9186524" id="Fill-107" fill="#161010"></path>
            <path d="M0.479,43.8166524 C0.479,43.8166524 0.458,46.7546524 0.854,50.0046524 C0.083,49.9836524 0.083,49.9836524 0.083,49.9836524 L5.68434189e-14,56.9626524 L0.771,56.9626524 L3.083,47.6296524 L0.479,43.8166524" id="Fill-108" fill="#0D0E0C"></path>
            <path d="M214.25,36.2546524 C211.527,36.2546524 209.313,34.0396524 209.313,31.3166524 C209.313,28.5936524 211.527,26.3796524 214.25,26.3796524 C216.973,26.3796524 219.188,28.5936524 219.188,31.3166524 C219.188,34.0396524 216.973,36.2546524 214.25,36.2546524 M214.25,26.8796524 C211.803,26.8796524 209.813,28.8696524 209.813,31.3166524 C209.813,33.7636524 211.803,35.7546524 214.25,35.7546524 C216.697,35.7546524 218.688,33.7636524 218.688,31.3166524 C218.688,28.8696524 216.697,26.8796524 214.25,26.8796524" id="Fill-109" fill="#60191B"></path>
            <path d="M218.211,46.4686524 L218.013,46.1366524 C218.124,46.2206524 218.233,46.3046524 218.342,46.3916524 L218.211,46.4686524" id="Fill-110" fill="#161010"></path>
            <path d="M218.342,46.3916524 C218.233,46.3046524 218.124,46.2206524 218.013,46.1366524 L217.955,46.0396524 L221.765,43.7656524 L228.108,30.5216524 L228.559,30.7376524 L222.151,44.1176524 L218.342,46.3916524" id="Fill-111" fill="#60191B"></path>
            <path d="M190.188,2.65065244 C190.188,2.65065244 193.271,-0.933347558 201.146,0.233652442 C200.521,2.10865244 200.229,2.27565244 200.229,2.27565244 L201.229,4.27565244 L190.188,2.65065244" id="Fill-112" fill="#CB2C39"></path>
            <path d="M96.354,29.1086524 L98.354,22.5256524 C98.354,22.5256524 113.354,12.0256524 126.354,9.69165244 C139.354,7.35865244 145.271,7.44165244 145.271,7.44165244 L139.364,26.5666524 C139.364,26.5666524 113.521,29.1086524 107.688,29.1086524 C101.854,29.1086524 96.354,29.1086524 96.354,29.1086524" id="Fill-113" fill="#161614"></path>
            <path d="M104.313,21.4416524 C104.313,21.4416524 112.688,15.7336524 123.313,12.9006524 C131.733,10.6556524 140.688,9.94165244 141.188,10.2546524 C141.688,10.5666524 143.438,11.2546524 143.25,13.1296524 C143.063,15.0046524 139.364,26.5666524 139.364,26.5666524 C139.364,26.5666524 109.063,29.3796524 100.313,28.3166524 L104.313,21.4416524" id="Fill-114" fill="#CDE9EE"></path>
            <path d="M154.771,7.27565244 L151.688,25.8586524 L183.521,22.4416524 L185.188,10.4416524 C185.188,10.4416524 172.688,7.69165244 154.771,7.27565244" id="Fill-115" fill="#161614"></path>
            <path d="M186.521,10.4416524 L185.063,22.3586524 C185.063,22.3586524 192.438,21.4836524 193.354,21.1916524 C194.271,20.9006524 195.896,20.1086524 195.896,20.1086524 L196.604,13.8166524 C196.604,13.8166524 192.563,11.7336524 186.521,10.4416524" id="Fill-116" fill="#161614"></path>
            <path d="M154.396,10.9836524 C154.396,10.9836524 154.979,10.0256524 155.813,10.0256524 C156.26,10.0256524 163.416,10.0736524 170.427,10.7856524 C176.459,11.3986524 182.521,12.6916524 182.521,12.6916524 L181.063,22.7756524 L151.646,25.6296524 L154.396,10.9836524" id="Fill-117" fill="#CDE9EE"></path>
            <path d="M96.739,28.0666524 C96.739,28.0666524 95.646,25.8796524 95.614,24.7856524 C95.583,23.6916524 100.688,19.7756524 104.188,20.7336524 C105.938,21.3166524 106.81302,22.0256524 106.81302,22.2546524 C106.81302,22.4836524 106.833,27.0666524 105.604,28.5046524 C104.791,29.0466524 102.146,29.6296524 102.146,29.6296524 C102.146,29.6296524 102.396,32.0046524 102.041,32.6716524 C101.688,33.3376524 101.208,34.0256524 98.708,33.7126524 C96.208,33.4006524 95.541,31.7546524 95.646,31.4836524 C95.75,31.2126524 97.041,29.6506524 97.041,29.0466524 C97.041,28.4416524 96.739,28.0666524 96.739,28.0666524" id="Fill-118" fill="#CB2C39"></path>
            <path d="M248.104,54.2336524 C248.104,54.2336524 244.729,55.2336524 244.188,58.6086524 C247.229,58.5256524 247.229,58.5256524 247.229,58.5256524 L248.104,54.2336524" id="Fill-119" fill="#0D0E0C"></path>
            <path d="M2.552,45.1606524 C2.552,45.1606524 0.437,50.8586524 0.687,57.3586524 L4.292,47.4836524 L4.292,45.9006524 L2.552,45.1606524" id="Fill-120" fill="#0D0E0C"></path>
            <path d="M186.888,48.3596524 C186.116,48.3596524 184.961,47.8056524 183.188,46.1086524 C178.063,41.3586524 175.938,41.8586524 158.438,41.3586524 C157.382,41.3286524 156.234,41.3146524 155,41.3146524 C151.601,41.3146524 147.574,41.4226524 143.191,41.6046524 C143.406,39.8926524 143.615,38.4016524 143.796,37.1676524 C152.615,36.8626524 160.421,36.7036524 166.085,36.7036524 C169.292,36.7036524 171.813,36.7546524 173.438,36.8586524 C184.693,37.5816524 189.636,42.0576524 191.015,43.5926524 C190.273,44.5016524 189.531,45.3686524 188.793,46.1916524 C188.163,46.8936524 187.56,47.6186524 186.983,48.3576524 C186.952,48.3586524 186.92,48.3596524 186.888,48.3596524 M189.486,46.1656524 C190.104,45.4676524 190.723,44.7386524 191.343,43.9816524 C191.407,44.0646524 191.438,44.1086524 191.438,44.1086524 C191.438,44.1086524 190.435,45.1546524 189.486,46.1656524" id="Fill-121" fill="#D15058"></path>
            <path d="M186.983,48.3576524 C187.56,47.6186524 188.163,46.8936524 188.793,46.1916524 C189.531,45.3686524 190.273,44.5016524 191.015,43.5926524 C191.166,43.7606524 191.274,43.8936524 191.343,43.9816524 C190.723,44.7386524 190.104,45.4676524 189.486,46.1656524 C188.827,46.8666524 188.194,47.5516524 187.938,47.8586524 C187.714,48.1266524 187.411,48.3306524 186.983,48.3576524" id="Fill-122" fill="#813337"></path>
            <path d="M70.813,48.1086524 C69.063,46.3586524 65.438,44.1086524 65.438,44.1086524 C68.643,43.1676524 73.736,42.3016524 80.011,41.5216524 C79.927,43.1336524 79.89,44.5986524 79.938,45.6196524 C79.945,45.7786524 79.952,45.9556524 79.958,46.1476524 C73.766,47.0016524 70.813,48.1086524 70.813,48.1086524 M80.455,46.0806524 C80.45,45.9056524 80.444,45.7436524 80.437,45.5966524 C80.389,44.5686524 80.428,43.0876524 80.514,41.4586524 C97.55,39.3726524 123.01,37.8966524 143.288,37.1856524 C143.107,38.4246524 142.898,39.9166524 142.685,41.6256524 C122.317,42.4936524 94.589,44.9086524 86.438,45.4836524 C84.195,45.6416524 82.203,45.8506524 80.455,46.0806524" id="Fill-123" fill="#D15058"></path>
            <path d="M79.958,46.1476524 C79.952,45.9556524 79.945,45.7786524 79.938,45.6196524 C79.89,44.5986524 79.927,43.1336524 80.011,41.5216524 C80.178,41.5006524 80.346,41.4796524 80.514,41.4586524 C80.428,43.0876524 80.389,44.5686524 80.437,45.5966524 C80.444,45.7436524 80.45,45.9056524 80.455,46.0806524 C80.287,46.1026524 80.121,46.1256524 79.958,46.1476524" id="Fill-124" fill="#813337"></path>
            <path d="M142.685,41.6256524 C142.898,39.9166524 143.107,38.4246524 143.288,37.1856524 C143.457,37.1796524 143.627,37.1736524 143.796,37.1676524 C143.615,38.4016524 143.406,39.8926524 143.191,41.6046524 C143.022,41.6116524 142.855,41.6186524 142.685,41.6256524" id="Fill-125" fill="#813337"></path>
            <path d="M100.552,64.8566524 C97.063,64.8566524 94.396,64.0666524 94.396,64.0666524 C98.862,62.7536524 121.101,60.1626524 141.348,58.1996524 C141.246,58.7786524 141.142,59.2836524 141.051,59.7256524 C140.864,60.6336524 140.727,61.2986524 140.768,61.8416524 C125.979,63.1786524 105.149,64.6196524 101.896,64.8166524 C101.437,64.8446524 100.988,64.8566524 100.552,64.8566524 M141.265,61.7966524 C141.232,61.3256524 141.362,60.6936524 141.54,59.8276524 C141.639,59.3516524 141.751,58.8066524 141.862,58.1496524 C156.611,56.7246524 170.211,55.6426524 174.979,55.6426524 C176.057,55.6426524 176.684,55.6976524 176.771,55.8166524 C177.771,57.1916524 163.396,59.3166524 150.896,60.8166524 C148.367,61.1206524 145.023,61.4546524 141.265,61.7966524" id="Fill-126" fill="#D15058"></path>
            <path d="M140.768,61.8416524 C140.727,61.2986524 140.864,60.6336524 141.051,59.7256524 C141.142,59.2836524 141.246,58.7786524 141.348,58.1996524 C141.52,58.1826524 141.691,58.1666524 141.862,58.1496524 C141.751,58.8066524 141.639,59.3516524 141.54,59.8276524 C141.362,60.6936524 141.232,61.3256524 141.265,61.7966524 C141.1,61.8116524 140.935,61.8266524 140.768,61.8416524" id="Fill-127" fill="#813337"></path>
            <path d="M51.229,59.7546524 C51.229,60.2376524 50.837,60.6296524 50.354,60.6296524 C49.871,60.6296524 49.479,60.2376524 49.479,59.7546524 C49.479,59.2716524 49.871,58.8796524 50.354,58.8796524 C50.837,58.8796524 51.229,59.2716524 51.229,59.7546524" id="Fill-128" fill="#191919"></path>
            <path d="M47.854,62.5666524 C47.854,63.0506524 47.462,63.4416524 46.979,63.4416524 C46.496,63.4416524 46.104,63.0506524 46.104,62.5666524 C46.104,62.0836524 46.496,61.6916524 46.979,61.6916524 C47.462,61.6916524 47.854,62.0836524 47.854,62.5666524" id="Fill-129" fill="#191919"></path>
            <path d="M49.208,66.6916524 C49.208,67.1756524 48.817,67.5666524 48.333,67.5666524 C47.85,67.5666524 47.458,67.1756524 47.458,66.6916524 C47.458,66.2086524 47.85,65.8166524 48.333,65.8166524 C48.817,65.8166524 49.208,66.2086524 49.208,66.6916524" id="Fill-130" fill="#191919"></path>
            <path d="M53.229,66.6086524 C53.229,67.0916524 52.837,67.4836524 52.354,67.4836524 C51.871,67.4836524 51.479,67.0916524 51.479,66.6086524 C51.479,66.1256524 51.871,65.7336524 52.354,65.7336524 C52.837,65.7336524 53.229,66.1256524 53.229,66.6086524" id="Fill-131" fill="#191919"></path>
            <path d="M54.625,62.4416524 C54.625,62.9256524 54.234,63.3166524 53.75,63.3166524 C53.267,63.3166524 52.875,62.9256524 52.875,62.4416524 C52.875,61.9586524 53.267,61.5666524 53.75,61.5666524 C54.234,61.5666524 54.625,61.9586524 54.625,62.4416524" id="Fill-132" fill="#191919"></path>
            <path d="M206.5,59.7546524 C206.5,60.2376524 206.109,60.6296524 205.625,60.6296524 C205.142,60.6296524 204.75,60.2376524 204.75,59.7546524 C204.75,59.2716524 205.142,58.8796524 205.625,58.8796524 C206.109,58.8796524 206.5,59.2716524 206.5,59.7546524" id="Fill-133" fill="#191919"></path>
            <path d="M203.125,62.5666524 C203.125,63.0506524 202.734,63.4416524 202.25,63.4416524 C201.767,63.4416524 201.375,63.0506524 201.375,62.5666524 C201.375,62.0836524 201.767,61.6916524 202.25,61.6916524 C202.734,61.6916524 203.125,62.0836524 203.125,62.5666524" id="Fill-134" fill="#191919"></path>
            <path d="M204.479,66.6916524 C204.479,67.1756524 204.087,67.5666524 203.604,67.5666524 C203.121,67.5666524 202.729,67.1756524 202.729,66.6916524 C202.729,66.2086524 203.121,65.8166524 203.604,65.8166524 C204.087,65.8166524 204.479,66.2086524 204.479,66.6916524" id="Fill-135" fill="#191919"></path>
            <path d="M208.5,66.6086524 C208.5,67.0916524 208.109,67.4836524 207.625,67.4836524 C207.142,67.4836524 206.75,67.0916524 206.75,66.6086524 C206.75,66.1256524 207.142,65.7336524 207.625,65.7336524 C208.109,65.7336524 208.5,66.1256524 208.5,66.6086524" id="Fill-136" fill="#191919"></path>
            <path d="M209.896,62.4416524 C209.896,62.9256524 209.504,63.3166524 209.021,63.3166524 C208.537,63.3166524 208.146,62.9256524 208.146,62.4416524 C208.146,61.9586524 208.537,61.5666524 209.021,61.5666524 C209.504,61.5666524 209.896,61.9586524 209.896,62.4416524" id="Fill-137" fill="#191919"></path>
        </g>
    </g>
</svg>