<svg xmlns="http://www.w3.org/2000/svg" viewBox="136.3 208.45 348.7 53.09">
    <path d="M146.9728,260.64985v-8.88277h6.12842c13.56516,0 22.31021,-9.08934 22.31021,-22.24135c0,-11.1551 -9.22706,-20.17559 -21.27733,-20.17559h-17.8344v51.29971zM146.9728,242.12687v-23.13651h6.47271c7.43674,0 11.22396,5.09554 11.22396,11.36168c0,7.1613 -4.26924,11.77483 -11.84369,11.77483z"
          data-paper-data="{&quot;glyphName&quot;:&quot;P&quot;,&quot;glyphIndex&quot;:0,&quot;firstGlyphOfWord&quot;:true,&quot;word&quot;:1}"
          fill-rule="nonzero" fill="#f4374c" stroke="none" stroke-width="1" stroke-linecap="butt"
          stroke-linejoin="miter" stroke-miterlimit="10" stroke-dasharray="" stroke-dashoffset="0" font-family="none"
          font-weight="none" font-size="none" text-anchor="none" style="mix-blend-mode: normal;"></path>
    <path d="M212.80168,260.64985h11.63711l-27.13032,-52.19487l-27.06146,52.19487h11.01739l3.30522,-6.88587h24.85798zM196.89533,228.14856l7.84989,15.97521h-15.56206z"
          data-paper-data="{&quot;glyphName&quot;:&quot;A&quot;,&quot;glyphIndex&quot;:1,&quot;word&quot;:1}"
          fill-rule="nonzero" fill="#f4374c" stroke="none" stroke-width="1" stroke-linecap="butt"
          stroke-linejoin="miter" stroke-miterlimit="10" stroke-dasharray="" stroke-dashoffset="0" font-family="none"
          font-weight="none" font-size="none" text-anchor="none" style="mix-blend-mode: normal;"></path>
    <path d="M240.62059,237.92649c4.95782,0.55087 7.71217,3.09864 7.71217,7.23016c0,3.30522 -2.75435,6.12842 -6.26614,6.12842c-3.02978,0 -5.43983,-0.75745 -7.78103,-3.71837l-8.81391,6.47271c4.88897,5.37098 10.74195,7.50559 16.59494,7.50559c9.02049,0 17.35238,-7.1613 17.35238,-17.14581c0,-9.91565 -7.23016,-15.83749 -15.97521,-16.38836c-5.43983,-0.34429 -7.1613,-2.47891 -7.1613,-4.82011c0,-2.82321 1.92804,-4.54467 4.75125,-4.54467c1.79033,0 4.06266,1.10174 5.43983,2.54777l8.40076,-6.12842c-3.92494,-4.68239 -8.74505,-6.61043 -13.84059,-6.61043c-7.09244,0 -15.08005,6.12842 -15.08005,14.80461c0,8.05646 5.78413,13.63402 14.6669,14.6669z"
          data-paper-data="{&quot;glyphName&quot;:&quot;S&quot;,&quot;glyphIndex&quot;:2,&quot;word&quot;:1}"
          fill-rule="nonzero" fill="#f4374c" stroke="none" stroke-width="1" stroke-linecap="butt"
          stroke-linejoin="miter" stroke-miterlimit="10" stroke-dasharray="" stroke-dashoffset="0" font-family="none"
          font-weight="none" font-size="none" text-anchor="none" style="mix-blend-mode: normal;"></path>
    <path d="M278.14856,237.92649c4.95782,0.55087 7.71217,3.09864 7.71217,7.23016c0,3.30522 -2.75435,6.12842 -6.26614,6.12842c-3.02978,0 -5.43983,-0.75745 -7.78103,-3.71837l-8.81391,6.47271c4.88897,5.37098 10.74195,7.50559 16.59494,7.50559c9.02049,0 17.35238,-7.1613 17.35238,-17.14581c0,-9.91565 -7.23016,-15.83749 -15.97521,-16.38836c-5.43983,-0.34429 -7.1613,-2.47891 -7.1613,-4.82011c0,-2.82321 1.92804,-4.54467 4.75125,-4.54467c1.79033,0 4.06266,1.10174 5.43983,2.54777l8.40076,-6.12842c-3.92494,-4.68239 -8.74505,-6.61043 -13.84059,-6.61043c-7.09244,0 -15.08005,6.12842 -15.08005,14.80461c0,8.05646 5.78413,13.63402 14.6669,14.6669z"
          data-paper-data="{&quot;glyphName&quot;:&quot;S&quot;,&quot;glyphIndex&quot;:3,&quot;word&quot;:1}"
          fill-rule="nonzero" fill="#f4374c" stroke="none" stroke-width="1" stroke-linecap="butt"
          stroke-linejoin="miter" stroke-miterlimit="10" stroke-dasharray="" stroke-dashoffset="0" font-family="none"
          font-weight="none" font-size="none" text-anchor="none" style="mix-blend-mode: normal;"></path>
    <path d="M314.78137,260.64985v-8.88277h6.12842c13.56516,0 22.31021,-9.08934 22.31021,-22.24135c0,-11.1551 -9.22706,-20.17559 -21.27733,-20.17559h-17.8344v51.29971zM314.78137,242.12687v-23.13651h6.47271c7.43674,0 11.22396,5.09554 11.22396,11.36168c0,7.1613 -4.26924,11.77483 -11.84369,11.77483z"
          data-paper-data="{&quot;glyphName&quot;:&quot;P&quot;,&quot;glyphIndex&quot;:4,&quot;word&quot;:1}"
          fill-rule="nonzero" fill="#f4374c" stroke="none" stroke-width="1" stroke-linecap="butt"
          stroke-linejoin="miter" stroke-miterlimit="10" stroke-dasharray="" stroke-dashoffset="0" font-family="none"
          font-weight="none" font-size="none" text-anchor="none" style="mix-blend-mode: normal;"></path>
    <path d="M374.27526,261.54502c14.6669,0 26.51059,-11.91255 26.51059,-26.57945c0,-14.6669 -11.84369,-26.51059 -26.57945,-26.51059c-14.6669,0 -26.51059,11.84369 -26.51059,26.51059c0,14.6669 11.84369,26.57945 26.57945,26.57945zM374.2064,218.64607c8.67619,0 15.63092,7.29902 15.63092,16.3195c0,9.1582 -6.88587,16.3195 -15.56206,16.3195c-8.81391,0 -15.63092,-7.1613 -15.63092,-16.3195c0,-9.02049 6.81701,-16.3195 15.56206,-16.3195z"
          data-paper-data="{&quot;glyphName&quot;:&quot;O&quot;,&quot;glyphIndex&quot;:5,&quot;word&quot;:1}"
          fill-rule="nonzero" fill="#f4374c" stroke="none" stroke-width="1" stroke-linecap="butt"
          stroke-linejoin="miter" stroke-miterlimit="10" stroke-dasharray="" stroke-dashoffset="0" font-family="none"
          font-weight="none" font-size="none" text-anchor="none" style="mix-blend-mode: normal;"></path>
    <path d="M424.47323,251.76709l8.40076,8.88277h14.18489l-11.08625,-11.84369c7.1613,-3.30522 11.56826,-10.05337 11.56826,-19.28043c0,-11.1551 -9.22706,-20.17559 -21.27733,-20.17559h-17.8344v51.29971h10.67309v-8.88277zM419.10225,242.12687v-23.13651h6.47271c7.43674,0 11.22396,5.09554 11.22396,11.36168c0,7.1613 -4.26924,11.77483 -11.84369,11.77483z"
          data-paper-data="{&quot;glyphName&quot;:&quot;R&quot;,&quot;glyphIndex&quot;:6,&quot;word&quot;:1}"
          fill-rule="nonzero" fill="#f4374c" stroke="none" stroke-width="1" stroke-linecap="butt"
          stroke-linejoin="miter" stroke-miterlimit="10" stroke-dasharray="" stroke-dashoffset="0" font-family="none"
          font-weight="none" font-size="none" text-anchor="none" style="mix-blend-mode: normal;"></path>
    <path d="M471.5037,260.64985v-41.65949h13.4963v-9.64021h-36.83939v9.64021h12.66999v41.65949z"
          data-paper-data="{&quot;glyphName&quot;:&quot;T&quot;,&quot;glyphIndex&quot;:7,&quot;lastGlyphOfWord&quot;:true,&quot;word&quot;:1}"
          fill-rule="nonzero" fill="#f4374c" stroke="none" stroke-width="1" stroke-linecap="butt"
          stroke-linejoin="miter" stroke-miterlimit="10" stroke-dasharray="" stroke-dashoffset="0" font-family="none"
          font-weight="none" font-size="none" text-anchor="none" style="mix-blend-mode: normal;"></path>
</svg>